<svg width="209" height="209" viewBox="0 0 209 209" fill="none" xmlns="http://www.w3.org/2000/svg">
<path d="M71.2581 61.8842C71.275 62.6132 71.2275 63.3501 71.1154 64.0951C71.088 64.1046 71.0683 64.1333 71.0562 64.1812C70.8652 64.9636 70.5711 65.6775 70.1738 66.3227C69.38 67.6108 68.2587 68.5001 66.8097 68.9906C66.5656 68.6437 66.4439 68.2373 66.4447 67.7715C66.4455 67.4636 66.5091 67.2192 66.6357 67.0381C67.2755 66.7558 67.8106 66.3279 68.2409 65.7544C68.6092 65.3317 68.8812 64.8117 69.0569 64.1944C69.0698 64.1497 69.0528 64.1242 69.0061 64.1178L68.8659 64.0987C68.9465 64.1162 69.0246 64.1162 69.1004 64.0987C69.1168 64.0946 69.1316 64.0862 69.1434 64.0744C69.1551 64.0626 69.1633 64.0478 69.1669 64.0317C69.3119 63.3633 69.3764 62.7488 69.3603 62.1881C69.2297 59.3371 67.2123 57.6478 64.3607 57.8428C62.6346 57.9613 61.1901 58.9662 60.5518 60.5981C60.1513 61.7338 60.1122 62.8995 60.4346 64.0951L59.9498 64.1034L58.5271 64.1501C58.1991 62.8429 58.2462 61.538 58.6685 60.2356C59.6476 57.3763 62.2272 55.7528 65.2419 55.9251C68.658 56.1213 71.0236 58.5487 71.2581 61.8842Z" fill="#FE9235"/>
<path d="M86.697 64.0867C86.5532 64.2291 86.5749 64.4265 86.5205 64.5736C86.2981 65.171 86.0415 65.7445 85.7505 66.294C84.9455 67.5757 83.8459 68.4646 82.4517 68.9607C82.3373 68.9432 82.2555 68.875 82.2064 68.7561C81.9445 68.1173 81.9283 67.5538 82.158 67.0657C82.8865 66.7067 83.4655 66.2346 83.895 65.6492C84.2222 65.2073 84.4624 64.6885 84.6155 64.0927C84.9967 63.0694 85.0365 62.0321 84.7352 60.9809C84.0486 58.5882 81.9223 57.5665 79.5736 57.8775C76.5226 58.2819 75.2679 61.2298 75.9521 63.9683C75.9601 63.9998 75.9786 64.0279 76.0046 64.048C76.0306 64.0682 76.0628 64.0792 76.0959 64.0795L78.8689 64.0879C77.586 64.0735 76.6709 64.0711 76.1237 64.0807C76.0987 64.0807 76.0838 64.0903 76.079 64.1094C76.0742 64.1302 76.0609 64.1405 76.0391 64.1405L74.0676 64.0951L73.8959 63.1021C73.5828 59.3371 76.0391 56.1572 79.9616 55.931C84.6868 55.6595 87.5444 59.58 86.6535 64.0113C86.6503 64.0281 86.6507 64.0432 86.6547 64.0568C86.666 64.0927 86.6801 64.1027 86.697 64.0867Z" fill="#FE9235"/>
<path d="M102.181 64.0962C101.957 64.956 101.648 65.7101 101.253 66.3585C100.417 67.6642 99.2929 68.5407 97.8818 68.9882C97.5087 68.382 97.4442 67.7427 97.6884 67.0704C98.3911 66.741 98.9617 66.2788 99.4001 65.6838C99.7369 65.23 100.004 64.7339 100.203 64.1955C100.216 64.1596 100.206 64.1321 100.172 64.1129L100.113 64.0818C100.191 64.0683 100.239 64.0212 100.26 63.9407C100.99 60.9761 99.6612 58.1155 96.3104 57.844C93.7997 57.6394 91.7544 59.1301 91.3894 61.6101C91.2596 62.4915 91.3132 63.3194 91.5502 64.0938L89.4227 64.089C89.4702 64.0858 89.5061 64.0787 89.5303 64.0675C89.5553 64.0555 89.5633 64.0272 89.5544 63.9825C88.747 59.9388 91.2588 56.1332 95.5839 55.9262C100.316 55.6989 103.149 59.7199 102.181 64.0962Z" fill="#FE9235"/>
<path d="M117.739 64.1057C117.546 64.8953 117.241 65.6299 116.826 66.3095C116.041 67.5936 114.913 68.4896 113.443 68.9977C113.038 68.3349 112.974 67.6869 113.252 67.0536C113.907 66.7601 114.45 66.3282 114.88 65.7579C115.265 65.2842 115.562 64.7235 115.772 64.0758C116.645 60.8971 115.06 57.8703 111.465 57.8248C107.93 57.7805 106.342 60.8612 107.031 63.9167C107.034 64.0714 106.935 64.1448 106.735 64.1368C106.212 64.1161 105.688 64.1145 105.164 64.1321C105.136 64.1329 105.116 64.1217 105.101 64.0986C105.076 64.0579 105.058 64.0519 105.047 64.0806C105.05 64.0607 105.056 64.0435 105.066 64.0292C105.081 64.007 105.088 63.9799 105.083 63.9538C104.185 59.4913 107.496 55.4141 112.216 55.9549C116.107 56.4011 118.289 59.5428 117.842 63.3125C117.809 63.5893 117.774 63.8537 117.739 64.1057Z" fill="#FE9235"/>
<path d="M133.453 61.8793C133.471 62.6218 133.41 63.3564 133.272 64.083C133.065 64.914 132.757 65.6698 132.35 66.3501C131.534 67.6414 130.412 68.5203 128.983 68.9869C128.744 68.6072 128.624 68.1921 128.625 67.7415C128.626 67.4527 128.698 67.2143 128.842 67.026C129.51 66.719 130.047 66.2855 130.454 65.7256C130.815 65.267 131.095 64.721 131.293 64.0878C131.601 63.0581 131.644 62.0826 131.421 61.1614C130.939 59.1611 129.621 58.0549 127.467 57.8427C125.011 57.601 122.782 59.1312 122.472 61.6113C122.381 62.3419 122.421 63.165 122.592 64.0806C121.907 64.1739 121.256 64.1476 120.638 64.0016C120.35 62.4982 120.459 61.1423 120.964 59.934C122.26 56.8342 125.31 55.3255 128.631 56.1008C131.05 56.6655 132.735 58.3703 133.289 60.8061C133.341 61.0358 133.396 61.3935 133.453 61.8793Z" fill="#FE9235"/>
<path d="M148.918 61.3446C149.041 62.2714 149.008 63.1702 148.821 64.0412C148.816 64.0691 148.823 64.0922 148.844 64.1106C148.868 64.1329 148.883 64.1305 148.89 64.1034C148.869 64.156 148.842 64.1983 148.809 64.2302C148.781 64.2573 148.763 64.29 148.754 64.3283C148.576 65.0406 148.298 65.7022 147.917 66.3131C147.116 67.6132 145.986 68.506 144.528 68.9918C144.252 68.5507 144.139 68.0841 144.187 67.592C144.207 67.3894 144.27 67.2028 144.375 67.0321C145.056 66.7163 145.605 66.2728 146.023 65.7018C146.362 65.2695 146.613 64.7909 146.776 64.2661C146.791 64.2175 146.79 64.182 146.774 64.1596C146.752 64.1317 146.713 64.1142 146.656 64.107C146.715 64.115 146.766 64.113 146.808 64.101C146.849 64.0883 146.876 64.0607 146.886 64.0185C147.123 63.0829 147.159 62.1765 146.995 61.2991C146.432 58.8155 144.394 57.5832 141.949 57.8524C139.555 58.118 138.075 59.8742 137.956 62.2873C137.935 62.8592 137.998 63.4414 138.144 64.034C138.117 64.0388 138.092 64.0532 138.07 64.0771C138.046 64.1042 138.016 64.1174 137.979 64.1166L136.354 64.0926C136.319 64.0918 136.293 64.0767 136.274 64.0472C136.258 64.0209 136.235 64.0065 136.204 64.0041C136.076 63.3509 136.031 62.6805 136.069 61.993C136.211 59.7235 137.444 57.6179 139.503 56.595C141.721 55.4931 144.716 55.7312 146.667 57.2757C147.937 58.2799 148.687 59.6362 148.918 61.3446Z" fill="#FE9235"/>
<path d="M107.031 63.9167C107.018 63.959 107.016 63.9961 107.025 64.028C107.03 64.0459 107.041 64.0617 107.056 64.0729C107.071 64.0841 107.09 64.0902 107.108 64.0902L115.772 64.0759C115.562 64.7235 115.264 65.2842 114.88 65.758C114.109 65.8736 113.566 66.3055 113.252 67.0536C112.973 67.6869 113.037 68.3349 113.442 68.9977C113.899 69.647 114.499 69.9676 115.242 69.9596C116.108 69.95 116.926 69.4679 117.251 68.6651C117.583 67.8468 117.441 67.0616 116.826 66.3095C117.241 65.6299 117.545 64.8954 117.739 64.1058C118.678 64.0787 119.574 64.0715 120.426 64.0842C120.543 64.0858 120.613 64.0583 120.637 64.0017C121.255 64.1476 121.907 64.174 122.592 64.0807L131.293 64.0878C131.094 64.7211 130.815 65.2671 130.454 65.7257C129.639 65.8892 129.102 66.3226 128.841 67.0261C128.698 67.2143 128.626 67.4528 128.625 67.7415C128.624 68.1922 128.743 68.6073 128.983 68.987C129.262 69.4049 129.626 69.6904 130.077 69.8436C131.387 70.2886 132.696 69.5062 132.937 68.134C133.054 67.4664 132.859 66.8718 132.349 66.3502C132.757 65.6698 133.064 64.9141 133.272 64.083C134.253 64.0838 135.21 64.0818 136.142 64.0771C136.165 64.0771 136.183 64.0731 136.196 64.0651C136.221 64.0483 136.224 64.028 136.204 64.0041C136.235 64.0065 136.258 64.0208 136.274 64.0472C136.293 64.0767 136.319 64.0918 136.354 64.0926L137.979 64.1165C138.016 64.1173 138.046 64.1042 138.07 64.0771C138.092 64.0531 138.117 64.0388 138.144 64.034C138.164 64.0683 138.191 64.0854 138.225 64.0854C141.036 64.0759 143.846 64.083 146.656 64.107C146.713 64.1141 146.752 64.1317 146.774 64.1596C146.79 64.1819 146.791 64.2174 146.776 64.2661C146.613 64.7909 146.362 65.2694 146.023 65.7017C145.203 65.8804 144.653 66.3238 144.375 67.0321C144.27 67.2028 144.207 67.3894 144.187 67.592C144.139 68.0841 144.252 68.5507 144.528 68.9918C146.278 71.4802 149.947 68.8087 147.917 66.3131C148.298 65.7021 148.576 65.0405 148.754 64.3283C148.763 64.29 148.781 64.2573 148.809 64.2302C148.842 64.1983 148.869 64.156 148.89 64.1034C150.973 64.0739 152.354 64.0755 153.033 64.1082C155.753 64.2386 158.173 66.2245 159.041 68.7178C159.208 69.1987 159.357 69.9804 159.488 71.0627C159.79 73.5551 160.094 76.0515 160.399 78.5519L160.918 82.7249L160.11 82.7251L54.9346 82.7536L54.7871 82.7476L54.9032 82.7105C54.937 82.7002 54.9515 82.6778 54.9467 82.6435C54.8234 81.8069 54.7283 80.967 54.6614 80.124C54.6022 79.3774 54.4474 78.6237 54.3664 77.864C54.2963 77.2132 54.2222 76.6493 54.144 76.1724C53.9675 75.0845 53.8451 73.9898 53.7766 72.8883C53.7435 72.3476 53.6827 71.81 53.594 71.2756C53.5425 70.9693 53.5332 70.6882 53.5662 70.4322C53.9289 67.6494 55.3754 65.6842 57.9058 64.5365C58.1282 64.436 58.3881 64.3929 58.6311 64.3068C58.8212 64.2398 59.0054 64.2007 59.1835 64.1895C59.4389 64.1728 59.6944 64.1441 59.9499 64.1034L60.4346 64.095L68.8659 64.0986L69.0061 64.1177C69.0529 64.1241 69.0698 64.1496 69.0569 64.1943C68.8812 64.8116 68.6092 65.3317 68.2409 65.7544C67.4585 65.8724 66.9234 66.3003 66.6357 67.0381C66.5092 67.2191 66.4455 67.4636 66.4447 67.7715C66.4439 68.2372 66.5656 68.6436 66.8097 68.9906C67.2578 69.6821 67.8747 70.0079 68.6604 69.968C70.6247 69.8699 71.3766 67.7954 70.1738 66.3226C70.5711 65.6774 70.8652 64.9636 71.0562 64.1811C71.0683 64.1333 71.0881 64.1046 71.1155 64.095H74.0673L76.0389 64.1405C76.0606 64.1405 76.0739 64.1301 76.0788 64.1094C76.0836 64.0902 76.0985 64.0807 76.1235 64.0807C76.6707 64.0711 77.5857 64.0735 78.8686 64.0878L84.6152 64.0926C84.4621 64.6884 84.222 65.2072 83.8948 65.6491C83.0325 65.8676 82.4535 66.3398 82.1578 67.0656C81.9281 67.5537 81.9442 68.1172 82.2061 68.7561C82.2553 68.8749 82.3371 68.9431 82.4515 68.9606C82.4209 68.9463 82.3983 68.9467 82.3838 68.9618C82.358 68.9906 82.3564 69.0205 82.379 69.0516C82.9652 69.8591 84.0374 70.1881 84.9597 69.8184C86.1722 69.3327 86.698 67.8995 86.0174 66.745C85.9312 66.5982 85.8422 66.4479 85.7503 66.2939C86.0412 65.7444 86.2979 65.1709 86.5203 64.5736C86.5747 64.4264 86.5529 64.229 86.6968 64.0866L89.4226 64.089L91.5501 64.0938L100.113 64.0818L100.172 64.113C100.206 64.1321 100.216 64.1596 100.203 64.1955C100.004 64.7339 99.7368 65.23 99.4 65.6838C98.5522 65.8816 97.9817 66.3438 97.6883 67.0704C97.4441 67.7427 97.5086 68.382 97.8817 68.9882C98.2992 69.5776 98.8399 69.8986 99.5039 69.9512C100.351 70.0194 101.24 69.6031 101.619 68.8362C102.071 67.9246 101.949 67.0987 101.253 66.3585C101.648 65.7101 101.957 64.956 102.181 64.0962L105.046 64.0807C105.058 64.0519 105.076 64.0579 105.101 64.0986C105.115 64.1217 105.136 64.1329 105.163 64.1321C105.688 64.1145 106.212 64.1161 106.735 64.1369C106.935 64.1449 107.033 64.0715 107.031 63.9167Z" fill="url(#paint0_linear_533_17829)"/>
<path d="M164.164 159.999L165.104 159.915L160.392 82.6943L159.129 83.0867L164.164 159.999Z" fill="url(#paint1_linear_533_17829)" stroke="url(#paint2_linear_533_17829)"/>
<path d="M57.9955 64.2074C55.2991 65.0074 53.5709 66.6839 52.811 69.2369C52.6909 69.6429 52.6256 70.1673 52.6151 70.8102C52.6079 71.2193 52.6486 71.7433 52.7372 72.3822C52.9129 73.6464 53.0697 74.9113 53.2075 76.1771C53.151 76.4594 53.1809 76.721 53.2969 76.9619L54.0173 82.7164C54.0181 82.7228 54.0169 82.7292 54.0137 82.7356C54.0089 82.7452 54.004 82.7543 53.9992 82.7631C56.8101 105.917 59.6213 129.068 62.4329 152.217C62.5284 152.998 62.63 154.392 62.8729 155.137C63.5531 157.229 64.9267 158.703 66.9937 159.562C67.6368 159.829 68.2577 159.921 68.8565 159.838C69.1482 159.839 69.4576 159.86 69.7848 159.901C70.1515 159.947 70.4605 159.97 70.712 159.97C102.584 159.969 134.459 159.969 166.337 159.971L166.492 161.08C166.52 161.423 166.553 161.762 166.59 162.097C166.686 162.969 166.33 163.236 165.459 163.236C131.21 163.226 96.9609 163.225 62.711 163.233C62.6715 163.233 62.636 163.221 62.6046 163.197L62.4886 163.111C62.4773 162.648 62.4587 162.313 62.4329 162.105C60.7012 147.966 56.804 116.273 50.7415 67.0237C50.6811 66.53 50.3942 66.2759 49.8809 66.2616C50.3958 65.7555 50.8757 65.4612 51.6215 64.9444C52.7421 64.1667 53.8445 64.0758 55.3228 64.0339C56.2069 64.0084 57.0977 64.0662 57.9955 64.2074Z" fill="#FFD494"/>
<path d="M59.95 64.1033C59.6946 64.1439 59.4391 64.1727 59.1837 64.1894C59.0056 64.2006 58.8214 64.2397 58.6312 64.3067C58.3883 64.3928 58.1284 64.4359 57.906 64.5364C55.3756 65.6841 53.929 67.6493 53.5664 70.4321C53.5334 70.6881 53.5426 70.9692 53.5942 71.2755C53.6828 71.8099 53.7437 72.3475 53.7767 72.8882C53.8452 73.9897 53.9677 75.0843 54.1442 76.1722C54.2224 76.6492 54.2965 77.2131 54.3666 77.8639C54.4476 78.6236 54.6023 79.3773 54.6616 80.1239C54.7285 80.9669 54.8235 81.8067 54.9468 82.6434C54.9517 82.6777 54.9372 82.7 54.9033 82.7104L54.7873 82.7475L53.9991 82.763C54.004 82.7543 54.0088 82.7451 54.0137 82.7355C54.0169 82.7292 54.0181 82.7228 54.0173 82.7164L53.2968 76.9619L53.2074 76.177C53.0696 74.9113 52.9128 73.6463 52.7372 72.3822C52.6485 71.7433 52.6078 71.2193 52.6151 70.8101C52.6256 70.1673 52.6908 69.6429 52.8109 69.2369C53.5708 66.6838 55.299 65.0073 57.9954 64.2074C58.1123 64.2369 58.2895 64.2177 58.5273 64.1499L59.95 64.1033Z" fill="url(#paint3_linear_533_17829)"/>
<path d="M83.8947 65.6492C83.4652 66.2346 82.8862 66.7068 82.1577 67.0657C82.4535 66.3399 83.0325 65.8677 83.8947 65.6492Z" fill="#8B2425"/>
<path d="M99.4001 65.6838C98.9617 66.2788 98.3912 66.741 97.6885 67.0704C97.9818 66.3438 98.5524 65.8816 99.4001 65.6838Z" fill="#8B2425"/>
<path d="M146.023 65.7017C145.605 66.2727 145.056 66.7162 144.375 67.032C144.654 66.3238 145.203 65.8803 146.023 65.7017Z" fill="#8B2425"/>
<path d="M68.241 65.7544C67.8107 66.3279 67.2756 66.7558 66.6357 67.0381C66.9234 66.3003 67.4585 65.8724 68.241 65.7544Z" fill="#8B2425"/>
<path d="M130.454 65.7256C130.047 66.2855 129.509 66.719 128.841 67.026C129.102 66.3226 129.639 65.8891 130.454 65.7256Z" fill="#8B2425"/>
<path d="M114.88 65.7581C114.449 66.3283 113.907 66.7602 113.251 67.0537C113.566 66.3056 114.108 65.8737 114.88 65.7581Z" fill="#8B2425"/>
<path d="M49.8807 66.2617C50.394 66.2761 50.6809 66.5301 50.7414 67.0238C56.8039 116.273 60.701 147.967 62.4328 162.105C62.4586 162.313 62.4771 162.648 62.4884 163.111L61.3207 163.256C61.3255 163.243 61.328 163.23 61.328 163.219C61.328 163.198 61.3175 163.186 61.2965 163.182C58.0392 162.565 54.7807 161.954 51.521 161.348C51.1544 161.28 50.8631 161.263 50.6471 161.295C46.3889 161.951 42.1279 162.591 37.8641 163.214C37.7634 163.229 37.6812 163.262 37.6175 163.312C36.1875 163.387 36.6892 162.238 36.7399 161.392L39.282 140.518L41.4687 122.541L41.5884 121.4L42.634 112.863L42.7561 111.768L42.8492 111.117L43.3085 107.333L43.8597 102.783L44.1414 100.503L45.0407 93.0197C45.9634 85.4427 46.8849 77.8641 47.8052 70.2839C47.9539 69.0696 48.6562 66.9281 49.8807 66.2617ZM52.401 160.182C54.2191 160.572 56.7414 161.062 59.9681 161.652C60.2832 161.71 60.5165 161.713 60.668 161.661C60.9637 161.56 61.0886 161.319 61.0427 160.939C57.3535 130.76 53.6654 100.581 49.9786 70.4024C49.9561 70.2173 49.8557 70.0734 49.6776 69.9705C49.6422 69.9497 49.6043 69.9441 49.564 69.9537C49.2739 70.0263 49.1103 70.2161 49.0732 70.5232C45.4283 100.553 41.7729 130.581 38.1071 160.607C38.0273 161.267 37.8593 161.975 38.7888 161.831C42.5627 161.249 46.3377 160.674 50.114 160.106C51.0133 159.971 51.5621 160.001 52.401 160.182Z" fill="#DB0A16"/>
<path d="M85.7504 66.2939C85.8423 66.4479 85.9313 66.5982 86.0175 66.745C86.6981 67.8995 86.1723 69.3327 84.9598 69.8184C84.0375 70.1881 82.9653 69.8591 82.3791 69.0516C82.3565 69.0205 82.3581 68.9906 82.3839 68.9619C82.3984 68.9467 82.421 68.9463 82.4516 68.9607C83.8457 68.4646 84.9453 67.5757 85.7504 66.2939Z" fill="#8B2425"/>
<path d="M116.826 66.3096C117.441 67.0617 117.583 67.8469 117.252 68.6652C116.927 69.468 116.108 69.9501 115.243 69.9597C114.499 69.9677 113.899 69.647 113.443 68.9978C114.913 68.4898 116.041 67.5937 116.826 66.3096Z" fill="#8B2425"/>
<path d="M147.917 66.313C149.947 68.8086 146.278 71.4801 144.528 68.9917C145.986 68.5059 147.116 67.613 147.917 66.313Z" fill="#8B2425"/>
<path d="M70.1741 66.3228C71.3769 67.7955 70.625 69.87 68.6607 69.9681C67.875 70.008 67.2581 69.6822 66.8101 68.9907C68.259 68.5001 69.3804 67.6108 70.1741 66.3228Z" fill="#8B2425"/>
<path d="M132.349 66.3501C132.859 66.8717 133.055 67.4663 132.937 68.1339C132.696 69.5061 131.387 70.2885 130.077 69.8435C129.626 69.6904 129.262 69.4048 128.983 68.9869C130.412 68.5203 131.534 67.6414 132.349 66.3501Z" fill="#8B2425"/>
<path d="M101.253 66.3586C101.949 67.0988 102.071 67.9247 101.619 68.8363C101.24 69.6032 100.351 70.0195 99.504 69.9513C98.84 69.8987 98.2993 69.5777 97.8818 68.9883C99.2929 68.5408 100.417 67.6643 101.253 66.3586Z" fill="#8B2425"/>
<path d="M52.4013 160.182C51.5624 160.001 51.0136 159.971 50.1143 160.106C46.338 160.674 42.563 161.249 38.7891 161.831C37.8596 161.975 38.0276 161.267 38.1074 160.607C41.7732 130.581 45.4286 100.553 49.0735 70.5232C49.1106 70.2162 49.2742 70.0263 49.5643 69.9538C49.6046 69.9442 49.6425 69.9498 49.6779 69.9705C49.856 70.0734 49.9564 70.2174 49.9789 70.4024C53.6657 100.581 57.3537 130.76 61.043 160.939C61.0889 161.319 60.964 161.56 60.6683 161.661C60.5168 161.713 60.2835 161.71 59.9684 161.652C56.7417 161.062 54.2194 160.572 52.4013 160.182Z" fill="#F95146"/>
<path d="M53.2074 76.1772L53.2968 76.9621C53.1808 76.7212 53.151 76.4596 53.2074 76.1772Z" fill="#D4E4F4"/>
<path d="M54.7872 82.7476L54.9346 82.7535C55.0362 83.4363 55.1272 84.115 55.2078 84.7898C56.7744 97.8422 58.4051 110.887 59.9765 123.94C61.1555 133.728 62.3433 143.517 63.54 153.306C63.6593 154.283 63.8055 155.014 63.9788 155.5C64.7532 157.677 66.3791 159.123 68.8563 159.838C68.2575 159.921 67.6366 159.829 66.9935 159.562C64.9265 158.703 63.5529 157.229 62.8728 155.137C62.6298 154.392 62.5283 152.998 62.4328 152.217C59.6211 129.068 56.8099 105.917 53.999 82.7631L54.7872 82.7476Z" fill="url(#paint4_linear_533_17829)"/>
<path d="M64.484 95.7138C64.5216 96.0171 64.6701 96.2962 64.9016 96.4984C65.133 96.7005 65.4313 96.8117 65.74 96.8109L72.6083 96.7918C72.7865 96.7912 72.9626 96.7533 73.125 96.6805C73.2874 96.6077 73.4323 96.5017 73.5503 96.3694C73.6682 96.2372 73.7566 96.0817 73.8094 95.9132C73.8623 95.7448 73.8785 95.5671 73.857 95.392L73.0205 88.5775C72.9833 88.2744 72.8352 87.9954 72.6042 87.793C72.3733 87.5907 72.0754 87.479 71.767 87.4792L64.8938 87.4828C64.7152 87.483 64.5388 87.5207 64.376 87.5935C64.2133 87.6662 64.068 87.7722 63.9497 87.9047C63.8315 88.0371 63.743 88.1928 63.69 88.3616C63.6371 88.5304 63.621 88.7084 63.6427 88.8838L64.484 95.7138ZM78.1458 95.6995C78.1833 96.0054 78.3329 96.2871 78.5661 96.4912C78.7993 96.6953 79.1 96.8078 79.4114 96.8073L86.2628 96.7977C86.4429 96.7975 86.6209 96.7595 86.7851 96.6862C86.9492 96.6129 87.0958 96.5059 87.215 96.3723C87.3343 96.2388 87.4236 96.0817 87.477 95.9115C87.5304 95.7413 87.5467 95.5618 87.5248 95.3848L86.6847 88.5871C86.6469 88.2818 86.4976 88.0007 86.2649 87.7969C86.0322 87.593 85.7322 87.4805 85.4215 87.4804H78.5737C78.3935 87.4803 78.2154 87.5181 78.051 87.5912C77.8867 87.6643 77.7399 87.7711 77.6204 87.9045C77.5008 88.038 77.4113 88.195 77.3577 88.3653C77.3041 88.5355 77.2876 88.7151 77.3093 88.8921L78.1458 95.6995ZM100.352 88.5859C100.315 88.2808 100.166 87.9998 99.9342 87.7959C99.7019 87.592 99.4022 87.4794 99.0917 87.4792L92.2367 87.4828C92.057 87.4829 91.8794 87.5207 91.7156 87.5937C91.5518 87.6667 91.4055 87.7732 91.2863 87.9063C91.1672 88.0394 91.0779 88.1959 91.0244 88.3657C90.9709 88.5354 90.9543 88.7144 90.9759 88.8909L91.81 95.6995C91.8475 96.0045 91.9966 96.2854 92.2291 96.4891C92.4616 96.6928 92.7614 96.8051 93.0719 96.8049L99.9282 96.8001C100.108 96.7999 100.285 96.762 100.449 96.6888C100.613 96.6157 100.759 96.509 100.878 96.3758C100.997 96.2426 101.086 96.086 101.14 95.9162C101.193 95.7464 101.209 95.5673 101.188 95.3908L100.352 88.5859ZM113.595 96.7977C113.775 96.7976 113.953 96.7595 114.118 96.686C114.282 96.6126 114.429 96.5054 114.548 96.3716C114.668 96.2378 114.757 96.0804 114.81 95.9099C114.864 95.7394 114.88 95.5596 114.858 95.3824L114.015 88.5895C113.977 88.2841 113.828 88.003 113.595 87.7992C113.362 87.5954 113.062 87.4828 112.751 87.4828L105.909 87.4792C105.729 87.4791 105.551 87.5169 105.386 87.59C105.222 87.6631 105.075 87.7699 104.956 87.9033C104.836 88.0367 104.746 88.1937 104.693 88.364C104.639 88.5342 104.622 88.7138 104.644 88.8909L105.472 95.6971C105.509 96.0035 105.659 96.2858 105.892 96.4904C106.125 96.695 106.427 96.8078 106.739 96.8073L113.595 96.7977ZM119.143 95.6983C119.181 96.0042 119.33 96.2859 119.563 96.49C119.797 96.6942 120.097 96.8066 120.409 96.8061L127.261 96.7977C127.441 96.7975 127.619 96.7595 127.783 96.6863C127.947 96.613 128.094 96.5062 128.213 96.3727C128.332 96.2393 128.422 96.0824 128.475 95.9123C128.529 95.7422 128.545 95.5629 128.523 95.386L127.683 88.5883C127.645 88.283 127.496 88.0019 127.263 87.7981C127.031 87.5942 126.731 87.4817 126.42 87.4816L119.569 87.4792C119.388 87.4793 119.21 87.5172 119.046 87.5904C118.882 87.6637 118.735 87.7706 118.616 87.9042C118.496 88.0378 118.407 88.1949 118.353 88.3652C118.3 88.5355 118.284 88.7151 118.305 88.8921L119.143 95.6983ZM140.92 96.7977C141.1 96.7975 141.278 96.7595 141.442 96.6861C141.607 96.6127 141.753 96.5057 141.873 96.372C141.992 96.2384 142.082 96.0812 142.136 95.9108C142.189 95.7405 142.206 95.5608 142.184 95.3836L141.351 88.593C141.314 88.2869 141.164 88.005 140.931 87.8004C140.698 87.5959 140.397 87.4829 140.085 87.4828L133.232 87.4792C133.051 87.4792 132.872 87.5172 132.708 87.5907C132.543 87.6641 132.396 87.7714 132.276 87.9053C132.157 88.0392 132.067 88.1968 132.014 88.3675C131.96 88.5383 131.944 88.7183 131.966 88.8957L132.815 95.6971C132.853 96.0032 133.003 96.2849 133.236 96.489C133.47 96.6931 133.771 96.8055 134.083 96.8049L140.92 96.7977ZM146.469 95.7007C146.506 96.0055 146.655 96.2864 146.887 96.4901C147.119 96.6938 147.418 96.8063 147.729 96.8061L154.591 96.8013C154.77 96.8013 154.948 96.7636 155.111 96.6907C155.275 96.6178 155.421 96.5114 155.54 96.3786C155.658 96.2457 155.748 96.0894 155.801 95.92C155.854 95.7505 155.871 95.5718 155.849 95.3956L155.016 88.5871C154.979 88.2826 154.831 88.0022 154.599 87.7988C154.367 87.5953 154.068 87.4829 153.758 87.4828L146.901 87.4792C146.721 87.4791 146.544 87.5167 146.38 87.5894C146.217 87.6622 146.071 87.7684 145.952 87.9011C145.833 88.0339 145.743 88.1901 145.69 88.3595C145.636 88.5289 145.62 88.7076 145.641 88.8838L146.469 95.7007ZM74.3526 100.968C74.3153 100.666 74.1674 100.388 73.9369 100.186C73.7063 99.9849 73.4091 99.874 73.1015 99.8748L66.2211 99.8928C66.0433 99.8932 65.8677 99.9308 65.7058 100.003C65.5439 100.076 65.3993 100.181 65.2817 100.313C65.164 100.445 65.076 100.6 65.0233 100.768C64.9706 100.936 64.9545 101.113 64.976 101.288L65.8161 108.1C65.8533 108.401 66.0007 108.679 66.2305 108.881C66.4603 109.082 66.7566 109.193 67.0636 109.193L73.9501 109.196C74.1281 109.196 74.3041 109.158 74.4664 109.086C74.6287 109.013 74.7736 108.908 74.8915 108.776C75.0095 108.644 75.0977 108.488 75.1505 108.32C75.2032 108.152 75.2193 107.974 75.1975 107.8L74.3526 100.968ZM79.4815 108.101C79.5187 108.403 79.6661 108.68 79.8959 108.882C80.1257 109.083 80.422 109.194 80.729 109.195L87.613 109.196C87.7909 109.196 87.9668 109.158 88.129 109.086C88.2912 109.014 88.4361 108.908 88.554 108.776C88.6719 108.644 88.7602 108.489 88.813 108.321C88.8659 108.153 88.8821 107.976 88.8605 107.801L88.0216 100.967C87.9843 100.665 87.8364 100.387 87.6059 100.185C87.3753 99.9837 87.0781 99.8728 86.7705 99.8736L79.8876 99.894C79.7101 99.8944 79.5346 99.932 79.3727 100.004C79.2109 100.077 79.0664 100.182 78.9488 100.314C78.8312 100.446 78.7431 100.601 78.6903 100.768C78.6375 100.936 78.6212 101.113 78.6426 101.288L79.4815 108.101ZM101.687 100.975C101.65 100.673 101.502 100.394 101.271 100.191C101.04 99.9893 100.742 99.8779 100.433 99.8784L93.5579 99.8916C93.3796 99.8919 93.2034 99.9297 93.0409 100.002C92.8785 100.075 92.7335 100.181 92.6155 100.314C92.4975 100.446 92.4091 100.601 92.3563 100.77C92.3035 100.938 92.2875 101.116 92.3092 101.291L93.1541 108.101C93.1919 108.403 93.3399 108.681 93.5703 108.883C93.8007 109.084 94.0977 109.196 94.4052 109.196L101.275 109.198C101.453 109.198 101.63 109.161 101.793 109.088C101.955 109.016 102.101 108.91 102.219 108.778C102.338 108.646 102.426 108.49 102.479 108.321C102.532 108.153 102.549 107.975 102.527 107.8L101.687 100.975ZM115.36 100.979C115.323 100.677 115.176 100.398 114.946 100.196C114.715 99.9945 114.418 99.8831 114.111 99.8832L107.216 99.8868C107.038 99.8868 106.862 99.9243 106.7 99.9967C106.537 100.069 106.392 100.175 106.275 100.307C106.157 100.439 106.068 100.594 106.016 100.762C105.963 100.931 105.947 101.108 105.969 101.283L106.816 108.101C106.853 108.402 107.001 108.68 107.231 108.881C107.46 109.082 107.757 109.193 108.063 109.193L114.939 109.196C115.117 109.196 115.293 109.159 115.455 109.086C115.617 109.014 115.762 108.909 115.88 108.777C115.998 108.646 116.086 108.491 116.139 108.323C116.192 108.155 116.209 107.978 116.188 107.803L115.36 100.979ZM120.487 108.1C120.525 108.402 120.673 108.68 120.903 108.882C121.134 109.083 121.431 109.194 121.738 109.195L128.606 109.196C128.784 109.196 128.961 109.158 129.123 109.086C129.286 109.014 129.432 108.908 129.55 108.776C129.668 108.643 129.757 108.488 129.81 108.319C129.863 108.15 129.879 107.973 129.858 107.797L129.02 100.977C128.983 100.674 128.835 100.395 128.604 100.193C128.373 99.9905 128.075 99.8791 127.767 99.8796L120.887 99.8904C120.709 99.8906 120.532 99.9283 120.37 100.001C120.207 100.074 120.062 100.18 119.944 100.312C119.826 100.445 119.737 100.6 119.684 100.769C119.632 100.938 119.616 101.116 119.638 101.291L120.487 108.1ZM142.681 100.974C142.643 100.672 142.495 100.394 142.264 100.192C142.034 99.9902 141.736 99.8791 141.428 99.8796L134.552 99.8904C134.373 99.8906 134.197 99.9282 134.034 100.001C133.872 100.074 133.727 100.18 133.609 100.312C133.491 100.444 133.402 100.6 133.35 100.769C133.297 100.937 133.281 101.115 133.303 101.29L134.153 108.101C134.19 108.403 134.338 108.681 134.569 108.882C134.799 109.083 135.095 109.194 135.403 109.195H142.276C142.454 109.194 142.63 109.157 142.793 109.084C142.956 109.012 143.101 108.906 143.219 108.774C143.337 108.642 143.426 108.486 143.478 108.318C143.531 108.149 143.547 107.971 143.526 107.796L142.681 100.974ZM156.35 100.978C156.312 100.675 156.164 100.396 155.933 100.193C155.702 99.991 155.404 99.8794 155.095 99.8796L148.224 99.888C148.046 99.8882 147.869 99.9259 147.706 99.9987C147.543 100.071 147.398 100.178 147.279 100.31C147.161 100.443 147.072 100.599 147.019 100.767C146.966 100.936 146.95 101.115 146.972 101.29L147.812 108.096C147.85 108.399 147.998 108.678 148.229 108.88C148.459 109.083 148.757 109.194 149.066 109.195H155.938C156.116 109.195 156.293 109.157 156.457 109.085C156.62 109.012 156.765 108.906 156.884 108.773C157.003 108.641 157.092 108.485 157.145 108.316C157.198 108.146 157.214 107.968 157.192 107.792L156.35 100.978ZM99.8037 110.598C99.9399 110.461 99.9826 110.312 99.9318 110.152C99.84 109.867 99.574 109.872 99.2658 109.856C96.1133 109.692 93.0949 110.612 92.0203 113.748C91.4364 115.45 91.4884 117.668 92.0179 119.394C93.3657 123.783 97.675 124.574 101.679 123.537C104.977 122.682 106.156 120.238 105.833 117.1C105.532 114.185 104.636 111.213 101.208 110.753C100.917 110.714 100.457 110.683 99.8291 110.661C99.7719 110.66 99.7634 110.639 99.8037 110.598ZM67.153 120.492C67.1908 120.799 67.341 121.083 67.5753 121.288C67.8096 121.493 68.1117 121.607 68.4247 121.607L75.2604 121.603C75.4416 121.603 75.6207 121.565 75.7859 121.491C75.951 121.417 76.0985 121.31 76.2186 121.175C76.3386 121.041 76.4285 120.883 76.4824 120.712C76.5362 120.541 76.5527 120.36 76.5308 120.182L75.6956 113.382C75.6577 113.074 75.5072 112.79 75.2724 112.585C75.0376 112.379 74.7349 112.266 74.4215 112.267L67.5894 112.273C67.4081 112.273 67.2289 112.311 67.0636 112.385C66.8983 112.458 66.7506 112.566 66.6304 112.7C66.5102 112.835 66.4202 112.993 66.3663 113.164C66.3124 113.335 66.2959 113.516 66.3178 113.694L67.153 120.492ZM80.822 120.494C80.8598 120.801 81.0098 121.084 81.2436 121.289C81.4774 121.494 81.7789 121.607 82.0913 121.607L88.9282 121.603C89.1092 121.603 89.2881 121.565 89.4531 121.492C89.6181 121.418 89.7655 121.311 89.8855 121.177C90.0054 121.042 90.0953 120.885 90.1491 120.714C90.2028 120.543 90.2193 120.362 90.1974 120.184L89.3585 113.376C89.321 113.069 89.171 112.786 88.9369 112.58C88.7028 112.375 88.4008 112.262 88.0881 112.262L81.2512 112.273C81.0703 112.273 80.8915 112.311 80.7266 112.385C80.5617 112.458 80.4145 112.566 80.2947 112.7C80.1749 112.834 80.0851 112.992 80.0314 113.163C79.9777 113.334 79.9613 113.514 79.9831 113.692L80.822 120.494ZM116.692 113.381C116.654 113.072 116.503 112.789 116.268 112.583C116.033 112.377 115.73 112.264 115.416 112.264L108.587 112.273C108.406 112.273 108.226 112.311 108.061 112.385C107.896 112.459 107.748 112.566 107.628 112.701C107.508 112.835 107.418 112.993 107.364 113.164C107.31 113.335 107.293 113.516 107.315 113.694L108.147 120.491C108.185 120.799 108.335 121.082 108.57 121.288C108.805 121.494 109.107 121.607 109.421 121.607L116.258 121.603C116.439 121.603 116.619 121.565 116.784 121.491C116.949 121.417 117.097 121.309 117.217 121.175C117.337 121.04 117.427 120.882 117.481 120.71C117.535 120.539 117.551 120.358 117.529 120.18L116.692 113.381ZM121.812 120.482C121.851 120.793 122.002 121.078 122.239 121.285C122.475 121.492 122.78 121.607 123.096 121.607L129.906 121.603C130.089 121.603 130.27 121.565 130.437 121.491C130.603 121.416 130.752 121.308 130.874 121.172C130.995 121.037 131.086 120.878 131.14 120.705C131.195 120.532 131.212 120.35 131.19 120.17L130.366 113.396C130.328 113.086 130.176 112.799 129.94 112.592C129.703 112.384 129.398 112.269 129.082 112.269L122.263 112.27C122.08 112.27 121.899 112.309 121.732 112.383C121.565 112.458 121.416 112.566 121.295 112.702C121.174 112.837 121.083 112.997 121.028 113.17C120.974 113.343 120.957 113.525 120.979 113.705L121.812 120.482ZM135.479 120.491C135.517 120.799 135.667 121.082 135.902 121.288C136.137 121.494 136.439 121.607 136.753 121.607L143.585 121.602C143.766 121.602 143.946 121.564 144.111 121.49C144.276 121.416 144.424 121.308 144.544 121.174C144.664 121.039 144.754 120.881 144.808 120.71C144.862 120.539 144.878 120.358 144.857 120.18L144.025 113.383C143.987 113.075 143.837 112.791 143.602 112.585C143.367 112.379 143.065 112.265 142.751 112.266L135.92 112.274C135.739 112.274 135.56 112.312 135.394 112.386C135.229 112.46 135.082 112.568 134.961 112.702C134.841 112.836 134.751 112.994 134.697 113.165C134.643 113.337 134.627 113.517 134.648 113.695L135.479 120.491ZM157.693 113.394C157.655 113.084 157.503 112.799 157.267 112.592C157.031 112.385 156.727 112.27 156.411 112.27L149.591 112.269C149.409 112.269 149.228 112.308 149.061 112.382C148.895 112.456 148.746 112.565 148.625 112.7C148.503 112.836 148.413 112.995 148.359 113.168C148.304 113.341 148.288 113.523 148.31 113.702L149.149 120.485C149.187 120.794 149.339 121.08 149.575 121.286C149.812 121.493 150.116 121.607 150.431 121.607L157.242 121.603C157.424 121.603 157.605 121.565 157.772 121.491C157.938 121.416 158.087 121.308 158.208 121.173C158.329 121.037 158.42 120.878 158.474 120.705C158.529 120.533 158.545 120.351 158.523 120.171L157.693 113.394ZM68.4791 132.873C68.5174 133.182 68.6683 133.465 68.9034 133.671C69.1385 133.878 69.4416 133.991 69.7556 133.992L76.5792 133.995C76.7615 133.995 76.9418 133.957 77.108 133.883C77.2743 133.809 77.4228 133.701 77.5437 133.566C77.6646 133.431 77.7552 133.272 77.8094 133.1C77.8636 132.928 77.8802 132.746 77.8581 132.567L77.0192 125.773C76.9811 125.463 76.8297 125.179 76.5939 124.972C76.358 124.766 76.0539 124.652 75.7391 124.653L68.9191 124.66C68.737 124.66 68.557 124.699 68.391 124.773C68.225 124.847 68.0768 124.955 67.9562 125.09C67.8355 125.225 67.7452 125.384 67.6911 125.556C67.6371 125.728 67.6205 125.91 67.6426 126.088L68.4791 132.873ZM118.024 125.782C117.986 125.472 117.834 125.186 117.598 124.978C117.361 124.771 117.056 124.656 116.74 124.656L109.919 124.658C109.736 124.658 109.555 124.696 109.388 124.77C109.221 124.845 109.072 124.953 108.951 125.089C108.83 125.225 108.739 125.384 108.685 125.557C108.631 125.73 108.614 125.912 108.636 126.092L109.474 132.871C109.512 133.181 109.664 133.466 109.9 133.673C110.136 133.88 110.441 133.994 110.757 133.994L117.567 133.993C117.75 133.993 117.93 133.955 118.097 133.881C118.264 133.806 118.413 133.698 118.534 133.563C118.656 133.427 118.747 133.268 118.801 133.095C118.856 132.923 118.873 132.74 118.851 132.561L118.024 125.782ZM123.149 132.873C123.188 133.182 123.339 133.466 123.575 133.673C123.811 133.879 124.115 133.993 124.429 133.993L131.235 133.994C131.417 133.994 131.598 133.956 131.764 133.881C131.931 133.807 132.079 133.699 132.2 133.564C132.322 133.429 132.412 133.27 132.467 133.097C132.521 132.925 132.538 132.743 132.516 132.563L131.687 125.776C131.649 125.466 131.498 125.18 131.261 124.973C131.025 124.766 130.72 124.651 130.404 124.652L123.578 124.655C123.395 124.655 123.215 124.694 123.048 124.768C122.881 124.843 122.733 124.951 122.612 125.087C122.491 125.223 122.4 125.382 122.346 125.555C122.292 125.728 122.276 125.91 122.298 126.09L123.149 132.873ZM136.808 132.877C136.846 133.185 136.997 133.469 137.232 133.675C137.467 133.88 137.77 133.994 138.084 133.994H144.907C145.089 133.994 145.269 133.956 145.435 133.882C145.6 133.808 145.748 133.7 145.869 133.566C145.989 133.431 146.08 133.272 146.134 133.101C146.188 132.929 146.204 132.748 146.183 132.569L145.352 125.77C145.315 125.461 145.164 125.177 144.929 124.97C144.694 124.764 144.39 124.65 144.076 124.65L137.244 124.659C137.062 124.659 136.882 124.697 136.716 124.771C136.551 124.845 136.403 124.953 136.282 125.088C136.162 125.223 136.072 125.381 136.018 125.553C135.964 125.725 135.947 125.906 135.97 126.085L136.808 132.877ZM82.1396 132.877C82.1771 133.184 82.3272 133.468 82.5615 133.674C82.7958 133.879 83.0981 133.993 83.4113 133.993L90.2494 133.996C90.4308 133.997 90.6102 133.959 90.7756 133.885C90.9411 133.811 91.0889 133.704 91.2092 133.569C91.3295 133.435 91.4196 133.277 91.4736 133.106C91.5276 132.934 91.5442 132.753 91.5223 132.575L90.6834 125.771C90.6455 125.464 90.495 125.18 90.2602 124.975C90.0254 124.769 89.7227 124.656 89.4093 124.656L82.5808 124.665C82.3997 124.665 82.2208 124.703 82.0557 124.777C81.8906 124.851 81.7432 124.958 81.6232 125.092C81.5031 125.226 81.4132 125.384 81.3593 125.555C81.3054 125.726 81.2887 125.907 81.3104 126.085L82.1396 132.877ZM104.35 125.777C104.312 125.472 104.163 125.19 103.93 124.986C103.697 124.782 103.397 124.669 103.086 124.67H96.2365C96.0565 124.67 95.8784 124.707 95.7142 124.781C95.55 124.854 95.4034 124.961 95.284 125.094C95.1646 125.228 95.0752 125.385 95.0217 125.555C94.9681 125.725 94.9516 125.904 94.9734 126.081L95.8098 132.886C95.8474 133.192 95.9967 133.473 96.2297 133.678C96.4627 133.882 96.7631 133.994 97.0742 133.994H103.923C104.103 133.994 104.281 133.956 104.446 133.883C104.61 133.81 104.756 133.703 104.876 133.57C104.995 133.436 105.085 133.279 105.138 133.109C105.192 132.939 105.208 132.759 105.186 132.582L104.35 125.777ZM159.008 125.77C158.97 125.463 158.819 125.181 158.585 124.976C158.351 124.772 158.05 124.659 157.737 124.659H150.908C150.727 124.659 150.548 124.697 150.383 124.77C150.218 124.844 150.07 124.951 149.95 125.085C149.83 125.22 149.74 125.377 149.686 125.548C149.632 125.719 149.616 125.9 149.637 126.078L150.469 132.878C150.507 133.185 150.657 133.468 150.891 133.673C151.125 133.878 151.427 133.992 151.739 133.992L158.584 133.995C158.765 133.995 158.944 133.957 159.109 133.883C159.275 133.81 159.422 133.702 159.542 133.568C159.662 133.433 159.752 133.275 159.806 133.104C159.86 132.933 159.876 132.752 159.854 132.574L159.008 125.77ZM69.8015 145.265C69.839 145.571 69.9886 145.854 70.2221 146.058C70.4555 146.263 70.7565 146.376 71.0683 146.375L77.9137 146.372C78.0941 146.372 78.2724 146.334 78.4369 146.26C78.6014 146.187 78.7483 146.08 78.8679 145.946C78.9875 145.813 79.0771 145.656 79.1308 145.485C79.1845 145.315 79.201 145.135 79.1793 144.958L78.3452 138.156C78.3077 137.85 78.1583 137.568 77.9251 137.364C77.692 137.159 77.3912 137.046 77.0796 137.046L70.2306 137.044C70.0501 137.044 69.8717 137.082 69.7071 137.155C69.5425 137.228 69.3955 137.335 69.2759 137.469C69.1563 137.603 69.0667 137.76 69.0131 137.931C68.9595 138.102 68.9431 138.282 68.965 138.459L69.8015 145.265ZM92.0142 138.155C91.9767 137.849 91.8274 137.568 91.5945 137.363C91.3615 137.159 91.0611 137.046 90.7498 137.046L83.8887 137.044C83.7082 137.043 83.5296 137.081 83.365 137.155C83.2003 137.228 83.0532 137.335 82.9336 137.469C82.8139 137.603 82.7243 137.76 82.6708 137.931C82.6173 138.102 82.601 138.282 82.6231 138.459L83.4693 145.266C83.5073 145.572 83.6569 145.853 83.8898 146.057C84.1227 146.26 84.4228 146.373 84.7337 146.373L91.5791 146.374C91.7593 146.374 91.9375 146.336 92.1019 146.263C92.2663 146.19 92.4131 146.083 92.5328 145.95C92.6524 145.817 92.742 145.66 92.7958 145.489C92.8496 145.319 92.8662 145.139 92.8447 144.962L92.0142 138.155ZM105.682 138.155C105.645 137.849 105.496 137.567 105.263 137.362C105.03 137.157 104.729 137.044 104.418 137.044L97.5541 137.045C97.3737 137.045 97.1953 137.083 97.0307 137.156C96.8662 137.23 96.7193 137.337 96.5997 137.471C96.4802 137.604 96.3908 137.762 96.3373 137.932C96.2839 138.103 96.2676 138.283 96.2897 138.46L97.1383 145.265C97.1763 145.57 97.3259 145.852 97.5588 146.055C97.7917 146.259 98.0918 146.372 98.4027 146.372L105.242 146.375C105.422 146.375 105.6 146.338 105.765 146.265C105.929 146.191 106.076 146.085 106.196 145.951C106.315 145.818 106.405 145.661 106.459 145.491C106.513 145.32 106.529 145.141 106.508 144.964L105.682 138.155ZM110.804 145.269C110.842 145.573 110.991 145.854 111.223 146.057C111.456 146.261 111.755 146.373 112.066 146.373L118.913 146.374C119.093 146.374 119.271 146.336 119.435 146.263C119.599 146.19 119.746 146.083 119.865 145.95C119.984 145.817 120.074 145.66 120.127 145.49C120.181 145.32 120.197 145.14 120.175 144.964L119.341 138.154C119.304 137.849 119.155 137.568 118.922 137.364C118.69 137.16 118.39 137.047 118.079 137.047L111.22 137.044C111.039 137.043 110.861 137.081 110.697 137.154C110.532 137.228 110.385 137.335 110.266 137.468C110.147 137.602 110.057 137.759 110.004 137.929C109.95 138.1 109.934 138.279 109.956 138.457L110.804 145.269ZM124.464 145.264C124.502 145.57 124.652 145.851 124.885 146.056C125.118 146.26 125.418 146.373 125.73 146.373H132.58C132.761 146.373 132.939 146.335 133.104 146.262C133.269 146.188 133.416 146.081 133.536 145.947C133.656 145.813 133.746 145.656 133.799 145.485C133.853 145.314 133.869 145.134 133.847 144.956L133.002 138.155C132.964 137.849 132.814 137.568 132.581 137.364C132.348 137.16 132.048 137.047 131.736 137.047L124.892 137.044C124.712 137.043 124.533 137.081 124.368 137.155C124.203 137.228 124.056 137.335 123.937 137.469C123.817 137.603 123.727 137.76 123.674 137.931C123.62 138.101 123.603 138.281 123.625 138.459L124.464 145.264ZM146.671 138.147C146.633 137.843 146.485 137.563 146.253 137.36C146.022 137.158 145.723 137.046 145.414 137.046H138.548C138.369 137.046 138.191 137.083 138.028 137.156C137.864 137.229 137.718 137.335 137.6 137.468C137.481 137.601 137.392 137.757 137.339 137.926C137.285 138.096 137.269 138.274 137.291 138.451L138.132 145.269C138.169 145.572 138.318 145.851 138.549 146.054C138.78 146.257 139.078 146.369 139.387 146.369L146.256 146.378C146.436 146.378 146.613 146.341 146.777 146.268C146.94 146.195 147.086 146.089 147.205 145.956C147.324 145.823 147.413 145.667 147.467 145.498C147.52 145.328 147.536 145.149 147.515 144.973L146.671 138.147ZM151.793 145.265C151.83 145.57 151.979 145.852 152.211 146.056C152.444 146.26 152.744 146.373 153.055 146.373L159.91 146.371C160.089 146.37 160.267 146.333 160.431 146.26C160.595 146.187 160.742 146.08 160.861 145.947C160.98 145.814 161.069 145.657 161.123 145.487C161.177 145.317 161.193 145.138 161.172 144.961L160.338 138.151C160.3 137.846 160.151 137.565 159.918 137.361C159.686 137.158 159.386 137.045 159.076 137.045H152.221C152.041 137.045 151.863 137.083 151.699 137.156C151.535 137.229 151.388 137.336 151.269 137.469C151.15 137.602 151.06 137.759 151.007 137.929C150.953 138.099 150.937 138.279 150.959 138.455L151.793 145.265Z" fill="#FFFFFE"/>
<path d="M64.484 95.7139L63.6427 88.8838C63.621 88.7084 63.6371 88.5304 63.69 88.3616C63.7429 88.1928 63.8315 88.0371 63.9497 87.9047C64.068 87.7723 64.2133 87.6662 64.376 87.5935C64.5387 87.5208 64.7152 87.483 64.8938 87.4828L71.767 87.4792C72.0754 87.4791 72.3733 87.5907 72.6042 87.793C72.8352 87.9954 72.9832 88.2745 73.0205 88.5775L73.857 95.392C73.8785 95.5672 73.8623 95.7448 73.8094 95.9133C73.7565 96.0817 73.6682 96.2372 73.5502 96.3694C73.4323 96.5017 73.2873 96.6077 73.125 96.6805C72.9626 96.7533 72.7865 96.7912 72.6083 96.7918L65.7399 96.8109C65.4312 96.8117 65.133 96.7005 64.9015 96.4984C64.6701 96.2962 64.5215 96.0171 64.484 95.7139Z" fill="#FFD494"/>
<path d="M78.1461 95.6995L77.3096 88.8922C77.2879 88.7152 77.3043 88.5356 77.358 88.3653C77.4116 88.1951 77.5011 88.038 77.6207 87.9046C77.7402 87.7711 77.887 87.6643 78.0513 87.5912C78.2156 87.5181 78.3938 87.4804 78.574 87.4805H85.4218C85.7325 87.4805 86.0325 87.5931 86.2652 87.7969C86.4979 88.0008 86.6472 88.2818 86.685 88.5871L87.5251 95.3849C87.547 95.5618 87.5307 95.7413 87.4773 95.9115C87.4239 96.0818 87.3346 96.2388 87.2153 96.3724C87.096 96.5059 86.9495 96.6129 86.7853 96.6862C86.6212 96.7596 86.4432 96.7976 86.2631 96.7978L79.4117 96.8074C79.1003 96.8079 78.7996 96.6954 78.5664 96.4912C78.3331 96.2871 78.1836 96.0054 78.1461 95.6995Z" fill="#FFD494"/>
<path d="M100.353 88.5859L101.188 95.3908C101.21 95.5674 101.193 95.7464 101.14 95.9162C101.086 96.086 100.997 96.2427 100.878 96.3759C100.759 96.509 100.613 96.6157 100.449 96.6889C100.286 96.762 100.108 96.7999 99.9283 96.8002L93.072 96.8049C92.7615 96.8052 92.4617 96.6928 92.2292 96.4891C91.9966 96.2855 91.8475 96.0046 91.81 95.6995L90.976 88.891C90.9544 88.7144 90.971 88.5354 91.0245 88.3657C91.078 88.1959 91.1673 88.0394 91.2864 87.9063C91.4056 87.7732 91.5519 87.6667 91.7157 87.5937C91.8795 87.5207 92.0571 87.4829 92.2367 87.4828L99.0918 87.4792C99.4023 87.4794 99.7019 87.592 99.9342 87.7959C100.167 87.9998 100.315 88.2808 100.353 88.5859Z" fill="#FFD494"/>
<path d="M113.595 96.7978L106.739 96.8073C106.427 96.8078 106.126 96.695 105.892 96.4904C105.659 96.2858 105.509 96.0035 105.472 95.6971L104.644 88.891C104.622 88.7139 104.639 88.5343 104.693 88.364C104.747 88.1938 104.836 88.0367 104.956 87.9033C105.075 87.7699 105.222 87.6631 105.387 87.59C105.551 87.5169 105.729 87.4792 105.91 87.4792L112.751 87.4828C113.062 87.4829 113.362 87.5954 113.595 87.7992C113.828 88.003 113.978 88.2841 114.016 88.5895L114.858 95.3825C114.88 95.5596 114.864 95.7394 114.811 95.9099C114.757 96.0805 114.668 96.2378 114.549 96.3716C114.429 96.5054 114.282 96.6126 114.118 96.686C113.954 96.7595 113.775 96.7976 113.595 96.7978Z" fill="#FFD494"/>
<path d="M119.144 95.6983L118.306 88.8922C118.284 88.7151 118.3 88.5355 118.354 88.3652C118.407 88.1949 118.497 88.0378 118.616 87.9042C118.735 87.7706 118.882 87.6637 119.046 87.5904C119.211 87.5172 119.389 87.4793 119.569 87.4792L126.42 87.4816C126.731 87.4817 127.031 87.5943 127.264 87.7981C127.497 88.002 127.646 88.283 127.684 88.5883L128.524 95.3861C128.545 95.5629 128.529 95.7423 128.476 95.9123C128.422 96.0824 128.333 96.2393 128.213 96.3728C128.094 96.5062 127.948 96.613 127.784 96.6863C127.62 96.7595 127.442 96.7975 127.262 96.7978L120.409 96.8061C120.098 96.8066 119.797 96.6942 119.564 96.49C119.331 96.2859 119.181 96.0042 119.144 95.6983Z" fill="#FFD494"/>
<path d="M140.92 96.7978L134.083 96.8049C133.771 96.8055 133.47 96.6931 133.236 96.489C133.003 96.2849 132.853 96.0032 132.815 95.6971L131.966 88.8957C131.944 88.7183 131.96 88.5383 132.014 88.3675C132.067 88.1968 132.157 88.0392 132.276 87.9053C132.396 87.7714 132.543 87.6642 132.708 87.5907C132.873 87.5173 133.051 87.4793 133.232 87.4792L140.086 87.4828C140.397 87.4829 140.698 87.5959 140.931 87.8005C141.164 88.005 141.314 88.2869 141.351 88.5931L142.184 95.3837C142.206 95.5608 142.189 95.7405 142.136 95.9109C142.082 96.0812 141.993 96.2384 141.873 96.3721C141.754 96.5057 141.607 96.6127 141.442 96.6861C141.278 96.7595 141.1 96.7975 140.92 96.7978Z" fill="#FFD494"/>
<path d="M146.469 95.7007L145.641 88.8838C145.62 88.7076 145.637 88.5289 145.69 88.3595C145.744 88.1901 145.833 88.0339 145.952 87.9012C146.071 87.7684 146.217 87.6622 146.381 87.5895C146.544 87.5167 146.722 87.4792 146.901 87.4792L153.758 87.4828C154.068 87.483 154.367 87.5953 154.599 87.7988C154.831 88.0022 154.98 88.2826 155.017 88.5871L155.85 95.3956C155.871 95.5718 155.855 95.7506 155.801 95.92C155.748 96.0894 155.659 96.2457 155.54 96.3786C155.421 96.5115 155.275 96.6178 155.111 96.6907C154.948 96.7636 154.771 96.8013 154.591 96.8014L147.729 96.8061C147.419 96.8063 147.119 96.6939 146.887 96.4901C146.655 96.2864 146.506 96.0056 146.469 95.7007Z" fill="#FFD494"/>
<path d="M74.3526 100.968L75.1976 107.8C75.2193 107.974 75.2033 108.152 75.1505 108.32C75.0978 108.488 75.0095 108.644 74.8916 108.776C74.7737 108.908 74.6287 109.013 74.4664 109.086C74.3041 109.158 74.1281 109.196 73.9501 109.196L67.0636 109.193C66.7567 109.193 66.4603 109.082 66.2305 108.88C66.0007 108.679 65.8534 108.401 65.8162 108.1L64.9761 101.288C64.9545 101.113 64.9706 100.936 65.0233 100.768C65.076 100.6 65.1641 100.445 65.2818 100.313C65.3994 100.181 65.544 100.076 65.7059 100.003C65.8678 99.9308 66.0434 99.8931 66.2211 99.8927L73.1015 99.8748C73.4091 99.874 73.7063 99.9848 73.9369 100.186C74.1675 100.388 74.3154 100.666 74.3526 100.968Z" fill="#FFD494"/>
<path d="M79.4818 108.101L78.6429 101.288C78.6216 101.113 78.6378 100.936 78.6906 100.768C78.7434 100.601 78.8315 100.446 78.9491 100.314C79.0667 100.182 79.2112 100.077 79.373 100.004C79.5349 99.9319 79.7104 99.8943 79.888 99.8939L86.7708 99.8735C87.0784 99.8728 87.3756 99.9836 87.6062 100.185C87.8367 100.387 87.9846 100.665 88.0219 100.967L88.8608 107.801C88.8824 107.975 88.8662 108.153 88.8134 108.321C88.7605 108.489 88.6722 108.644 88.5543 108.776C88.4364 108.908 88.2915 109.013 88.1293 109.086C87.9671 109.158 87.7913 109.196 87.6133 109.196L80.7293 109.194C80.4223 109.194 80.126 109.083 79.8962 108.882C79.6664 108.68 79.519 108.403 79.4818 108.101Z" fill="#FFD494"/>
<path d="M101.687 100.975L102.527 107.8C102.549 107.975 102.532 108.153 102.479 108.321C102.426 108.49 102.338 108.646 102.219 108.778C102.101 108.91 101.955 109.016 101.793 109.088C101.63 109.161 101.453 109.198 101.275 109.198L94.4052 109.196C94.0977 109.196 93.8007 109.084 93.5703 108.883C93.3399 108.681 93.1919 108.403 93.1541 108.101L92.3092 101.291C92.2875 101.116 92.3035 100.938 92.3563 100.77C92.4091 100.601 92.4975 100.446 92.6155 100.314C92.7335 100.181 92.8785 100.075 93.0409 100.002C93.2034 99.9298 93.3796 99.892 93.5579 99.8916L100.433 99.8784C100.742 99.8779 101.04 99.9893 101.271 100.191C101.502 100.394 101.65 100.673 101.687 100.975Z" fill="#FFD494"/>
<path d="M115.36 100.979L116.188 107.803C116.209 107.978 116.193 108.155 116.14 108.323C116.087 108.491 115.998 108.646 115.88 108.777C115.762 108.909 115.617 109.014 115.455 109.087C115.293 109.159 115.117 109.196 114.939 109.196L108.064 109.193C107.757 109.193 107.461 109.082 107.231 108.881C107.001 108.68 106.854 108.403 106.816 108.101L105.969 101.283C105.947 101.108 105.963 100.931 106.016 100.762C106.069 100.594 106.157 100.439 106.275 100.307C106.393 100.175 106.538 100.069 106.7 99.9968C106.862 99.9244 107.038 99.8869 107.216 99.8869L114.111 99.8833C114.419 99.8832 114.716 99.9946 114.946 100.197C115.176 100.399 115.323 100.677 115.36 100.979Z" fill="#FFD494"/>
<path d="M120.487 108.1L119.637 101.291C119.616 101.116 119.632 100.938 119.684 100.769C119.737 100.6 119.825 100.445 119.944 100.312C120.062 100.18 120.207 100.074 120.37 100.001C120.532 99.9283 120.709 99.8906 120.887 99.8904L127.767 99.8796C128.075 99.8792 128.373 99.9905 128.604 100.193C128.835 100.395 128.983 100.674 129.02 100.977L129.858 107.797C129.879 107.973 129.863 108.15 129.81 108.319C129.757 108.488 129.668 108.643 129.55 108.776C129.431 108.908 129.286 109.014 129.123 109.086C128.96 109.158 128.784 109.196 128.605 109.196L121.738 109.195C121.431 109.195 121.134 109.083 120.903 108.882C120.673 108.68 120.525 108.402 120.487 108.1Z" fill="#FFD494"/>
<path d="M142.681 100.974L143.526 107.796C143.547 107.971 143.531 108.149 143.479 108.318C143.426 108.486 143.337 108.642 143.219 108.774C143.101 108.906 142.956 109.012 142.793 109.084C142.63 109.157 142.454 109.195 142.276 109.195H135.403C135.095 109.195 134.799 109.083 134.569 108.882C134.338 108.681 134.191 108.403 134.153 108.101L133.303 101.29C133.281 101.115 133.297 100.937 133.35 100.769C133.402 100.6 133.491 100.444 133.609 100.312C133.727 100.18 133.872 100.074 134.034 100.001C134.197 99.9283 134.373 99.8906 134.552 99.8904L141.428 99.8796C141.736 99.8791 142.034 99.9902 142.264 100.192C142.495 100.394 142.643 100.672 142.681 100.974Z" fill="#FFD494"/>
<path d="M156.35 100.978L157.193 107.792C157.214 107.968 157.198 108.147 157.145 108.316C157.092 108.485 157.003 108.641 156.884 108.773C156.766 108.906 156.62 109.012 156.457 109.085C156.294 109.157 156.117 109.195 155.938 109.195H149.066C148.758 109.194 148.46 109.083 148.229 108.88C147.998 108.678 147.85 108.399 147.812 108.096L146.972 101.29C146.951 101.115 146.967 100.936 147.02 100.768C147.073 100.599 147.161 100.443 147.28 100.31C147.398 100.178 147.543 100.072 147.706 99.9988C147.869 99.926 148.046 99.8882 148.225 99.888L155.095 99.8796C155.404 99.8794 155.702 99.991 155.933 100.193C156.164 100.396 156.313 100.675 156.35 100.978Z" fill="#FFD494"/>
<path d="M99.8293 110.661C100.457 110.683 100.917 110.714 101.208 110.754C104.637 111.213 105.532 114.185 105.833 117.1C106.156 120.238 104.977 122.683 101.679 123.537C97.6752 124.574 93.3658 123.783 92.018 119.394C91.4886 117.669 91.4366 115.45 92.0205 113.748C93.0951 110.612 96.1134 109.692 99.266 109.856C99.5742 109.872 99.8401 109.867 99.932 110.152C99.9828 110.312 99.9401 110.461 99.8039 110.598C99.7636 110.639 99.772 110.66 99.8293 110.661ZM96.383 112.217C95.6807 112.47 95.4619 111.663 96.0433 111.441C97.0104 111.074 98.0084 110.827 99.0375 110.7C99.0456 110.699 99.0504 110.695 99.052 110.688C99.0883 110.531 99.0863 110.527 99.046 110.677C99.0443 110.682 99.0411 110.684 99.0363 110.683C95.0364 110.535 92.5366 112.238 92.4617 116.342C92.423 118.508 93.0334 120.749 94.8647 122.063C96.1533 122.986 97.6413 123.132 99.2418 123.045C102.237 122.882 105.055 121.764 105.032 118.287C105.022 116.815 104.758 115.392 104.24 114.018C103.002 110.74 98.9819 111.279 96.383 112.217Z" fill="#DB0A16"/>
<path d="M96.0433 111.441C95.4619 111.663 95.6807 112.47 96.383 112.217C98.9819 111.279 103.002 110.74 104.24 114.018C104.758 115.392 105.022 116.815 105.032 118.287C105.055 121.764 102.237 122.882 99.2418 123.045C97.6413 123.132 96.1533 122.986 94.8648 122.063C93.0334 120.749 92.423 118.508 92.4617 116.342C92.5366 112.238 95.0364 110.535 99.0363 110.683C99.0411 110.684 99.0444 110.682 99.046 110.677C99.0863 110.527 99.0883 110.531 99.052 110.688C99.0504 110.695 99.0456 110.699 99.0375 110.7C98.0084 110.827 97.0104 111.074 96.0433 111.441ZM95.8644 112.373C95.1065 112.098 94.0525 112.243 93.737 113.053C93.6459 113.287 93.6362 113.68 93.7079 114.233C93.9763 116.301 94.2285 118.37 94.4646 120.442C94.5219 120.943 94.7519 121.286 95.1549 121.468C95.362 121.562 95.7355 121.609 96.2754 121.609C98.2933 121.61 100.311 121.608 102.328 121.602C102.703 121.601 102.984 121.555 103.172 121.466C103.927 121.108 103.904 120.462 103.801 119.652C103.543 117.624 103.286 115.594 103.03 113.564C102.92 112.688 102.381 112.251 101.415 112.251C100.105 112.253 98.7945 112.281 97.4842 112.266C96.9922 112.26 96.5486 112.384 96.0663 112.409C96.0075 112.413 95.9402 112.401 95.8644 112.373Z" fill="#F6FAFD"/>
<path d="M96.0664 112.409C96.5487 112.384 96.9923 112.26 97.4843 112.266C98.7946 112.281 100.105 112.252 101.415 112.251C102.382 112.25 102.92 112.688 103.03 113.564C103.287 115.594 103.544 117.624 103.801 119.652C103.904 120.462 103.927 121.108 103.172 121.466C102.984 121.555 102.703 121.6 102.328 121.602C100.311 121.608 98.2934 121.61 96.2755 121.609C95.7356 121.608 95.3621 121.561 95.155 121.468C94.752 121.285 94.522 120.943 94.4647 120.442C94.2286 118.37 93.9764 116.301 93.708 114.232C93.6363 113.68 93.646 113.286 93.7371 113.053C94.0526 112.243 95.1066 112.098 95.8645 112.373C95.9403 112.4 96.0076 112.412 96.0664 112.409Z" fill="#FFD494"/>
<path d="M67.1532 120.492L66.318 113.694C66.2961 113.516 66.3126 113.335 66.3665 113.164C66.4204 112.993 66.5104 112.835 66.6306 112.7C66.7508 112.566 66.8985 112.458 67.0638 112.385C67.2291 112.311 67.4083 112.273 67.5896 112.273L74.4217 112.267C74.7351 112.266 75.0378 112.38 75.2726 112.585C75.5074 112.79 75.6579 113.074 75.6958 113.382L76.531 120.182C76.5529 120.36 76.5364 120.541 76.4826 120.712C76.4288 120.883 76.3388 121.041 76.2188 121.175C76.0987 121.31 75.9512 121.417 75.7861 121.491C75.6209 121.565 75.4418 121.603 75.2606 121.603L68.4249 121.607C68.1119 121.607 67.8098 121.493 67.5755 121.288C67.3412 121.083 67.191 120.799 67.1532 120.492Z" fill="#FFD494"/>
<path d="M80.8224 120.494L79.9835 113.692C79.9616 113.514 79.9781 113.334 80.0318 113.163C80.0855 112.992 80.1752 112.834 80.2951 112.7C80.4149 112.566 80.5621 112.458 80.727 112.385C80.8919 112.311 81.0707 112.273 81.2515 112.273L88.0885 112.262C88.4012 112.262 88.7032 112.375 88.9373 112.58C89.1714 112.785 89.3214 113.068 89.3589 113.376L90.1978 120.184C90.2197 120.362 90.2032 120.543 90.1494 120.714C90.0957 120.885 90.0058 121.042 89.8858 121.176C89.7659 121.311 89.6185 121.418 89.4535 121.492C89.2885 121.565 89.1096 121.603 88.9286 121.603L82.0916 121.607C81.7793 121.607 81.4778 121.494 81.244 121.289C81.0102 121.084 80.8602 120.801 80.8224 120.494Z" fill="#FFD494"/>
<path d="M116.692 113.381L117.53 120.18C117.552 120.358 117.535 120.539 117.482 120.71C117.428 120.882 117.338 121.04 117.218 121.175C117.097 121.309 116.95 121.417 116.784 121.491C116.619 121.565 116.439 121.603 116.258 121.603L109.421 121.607C109.108 121.607 108.805 121.494 108.57 121.288C108.335 121.082 108.185 120.799 108.147 120.491L107.315 113.694C107.294 113.516 107.31 113.335 107.364 113.164C107.418 112.993 107.508 112.835 107.629 112.701C107.749 112.566 107.896 112.459 108.061 112.385C108.227 112.311 108.406 112.273 108.587 112.273L115.417 112.264C115.73 112.264 116.033 112.377 116.268 112.583C116.503 112.789 116.654 113.072 116.692 113.381Z" fill="#FFD494"/>
<path d="M121.813 120.482L120.98 113.705C120.958 113.525 120.974 113.343 121.029 113.17C121.083 112.997 121.174 112.837 121.295 112.702C121.417 112.566 121.566 112.458 121.733 112.383C121.899 112.309 122.08 112.271 122.263 112.27L129.082 112.269C129.398 112.269 129.704 112.384 129.94 112.592C130.177 112.799 130.328 113.086 130.366 113.396L131.19 120.17C131.212 120.35 131.195 120.532 131.141 120.705C131.086 120.878 130.995 121.037 130.874 121.172C130.753 121.308 130.604 121.416 130.437 121.491C130.27 121.565 130.089 121.603 129.907 121.603L123.096 121.607C122.78 121.607 122.476 121.493 122.239 121.285C122.003 121.078 121.851 120.793 121.813 120.482Z" fill="#FFD494"/>
<path d="M135.479 120.491L134.648 113.695C134.627 113.517 134.643 113.337 134.697 113.165C134.751 112.994 134.841 112.836 134.962 112.702C135.082 112.568 135.229 112.46 135.394 112.386C135.56 112.312 135.739 112.274 135.92 112.274L142.751 112.266C143.065 112.265 143.367 112.379 143.602 112.585C143.837 112.791 143.987 113.075 144.025 113.383L144.857 120.18C144.878 120.358 144.862 120.539 144.808 120.71C144.754 120.881 144.664 121.039 144.544 121.174C144.424 121.308 144.276 121.416 144.111 121.49C143.946 121.564 143.766 121.602 143.585 121.602L136.753 121.607C136.439 121.607 136.137 121.494 135.902 121.288C135.667 121.082 135.517 120.799 135.479 120.491Z" fill="#FFD494"/>
<path d="M157.693 113.394L158.523 120.171C158.546 120.351 158.529 120.533 158.475 120.705C158.42 120.878 158.33 121.037 158.208 121.173C158.087 121.308 157.939 121.416 157.772 121.491C157.605 121.565 157.425 121.603 157.242 121.603L150.432 121.607C150.116 121.607 149.812 121.493 149.576 121.286C149.339 121.08 149.188 120.795 149.149 120.485L148.31 113.703C148.288 113.523 148.305 113.341 148.359 113.168C148.413 112.995 148.504 112.836 148.625 112.7C148.746 112.565 148.895 112.456 149.062 112.382C149.228 112.308 149.409 112.269 149.592 112.269L156.412 112.27C156.727 112.271 157.031 112.385 157.268 112.592C157.504 112.799 157.655 113.084 157.693 113.394Z" fill="#FFD494"/>
<path d="M68.4793 132.873L67.6428 126.088C67.6207 125.91 67.6373 125.728 67.6913 125.556C67.7454 125.384 67.8357 125.225 67.9563 125.09C68.077 124.955 68.2252 124.847 68.3912 124.773C68.5572 124.699 68.7372 124.66 68.9193 124.66L75.7393 124.653C76.0541 124.652 76.3582 124.766 76.594 124.972C76.8299 125.179 76.9812 125.463 77.0194 125.773L77.8583 132.567C77.8804 132.746 77.8637 132.928 77.8096 133.1C77.7554 133.272 77.6648 133.431 77.5439 133.566C77.423 133.701 77.2745 133.809 77.1082 133.883C76.9419 133.957 76.7617 133.995 76.5794 133.995L69.7557 133.992C69.4417 133.991 69.1387 133.878 68.9036 133.671C68.6685 133.465 68.5176 133.182 68.4793 132.873Z" fill="#FFD494"/>
<path d="M118.024 125.782L118.851 132.561C118.873 132.741 118.856 132.923 118.801 133.095C118.747 133.268 118.656 133.427 118.535 133.563C118.413 133.698 118.264 133.807 118.097 133.881C117.931 133.955 117.75 133.993 117.567 133.993L110.757 133.994C110.441 133.994 110.137 133.88 109.9 133.673C109.664 133.466 109.513 133.181 109.474 132.871L108.637 126.092C108.614 125.912 108.631 125.73 108.685 125.557C108.739 125.384 108.83 125.225 108.951 125.089C109.073 124.953 109.222 124.845 109.388 124.771C109.555 124.696 109.736 124.658 109.919 124.658L116.74 124.656C117.056 124.656 117.362 124.771 117.598 124.978C117.835 125.186 117.986 125.472 118.024 125.782Z" fill="#FFD494"/>
<path d="M123.149 132.873L122.298 126.09C122.276 125.91 122.292 125.728 122.346 125.555C122.4 125.382 122.491 125.223 122.612 125.087C122.733 124.951 122.882 124.843 123.048 124.768C123.215 124.694 123.396 124.655 123.578 124.655L130.404 124.652C130.72 124.651 131.025 124.766 131.261 124.973C131.498 125.18 131.649 125.466 131.687 125.776L132.516 132.563C132.538 132.743 132.521 132.925 132.467 133.097C132.413 133.269 132.322 133.429 132.201 133.564C132.08 133.699 131.931 133.807 131.764 133.881C131.598 133.956 131.417 133.994 131.235 133.994L124.429 133.993C124.115 133.993 123.811 133.879 123.575 133.673C123.34 133.466 123.188 133.182 123.149 132.873Z" fill="#FFD494"/>
<path d="M136.808 132.877L135.969 126.085C135.947 125.906 135.964 125.725 136.018 125.553C136.072 125.381 136.162 125.223 136.282 125.088C136.403 124.953 136.551 124.845 136.716 124.771C136.882 124.697 137.062 124.659 137.244 124.659L144.076 124.65C144.39 124.65 144.693 124.764 144.929 124.97C145.164 125.177 145.315 125.461 145.352 125.77L146.183 132.569C146.204 132.748 146.188 132.929 146.134 133.101C146.08 133.272 145.989 133.431 145.869 133.566C145.748 133.7 145.6 133.808 145.434 133.882C145.269 133.956 145.089 133.994 144.907 133.994H138.084C137.77 133.994 137.467 133.88 137.232 133.674C136.997 133.469 136.846 133.185 136.808 132.877Z" fill="#FFD494"/>
<path d="M82.1397 132.877L81.3105 126.085C81.2888 125.907 81.3055 125.727 81.3594 125.555C81.4133 125.384 81.5032 125.227 81.6233 125.092C81.7433 124.958 81.8907 124.851 82.0558 124.777C82.2209 124.703 82.3999 124.665 82.5809 124.665L89.4094 124.656C89.7228 124.656 90.0255 124.769 90.2603 124.975C90.4951 125.18 90.6456 125.464 90.6835 125.772L91.5224 132.575C91.5443 132.753 91.5277 132.934 91.4737 133.106C91.4198 133.277 91.3296 133.435 91.2093 133.57C91.089 133.704 90.9412 133.811 90.7757 133.885C90.6103 133.959 90.4309 133.997 90.2495 133.997L83.4114 133.993C83.0982 133.993 82.7959 133.879 82.5616 133.674C82.3273 133.468 82.1773 133.184 82.1397 132.877Z" fill="#FFD494"/>
<path d="M104.35 125.778L105.187 132.582C105.208 132.759 105.192 132.939 105.138 133.109C105.085 133.279 104.995 133.436 104.876 133.57C104.757 133.703 104.61 133.81 104.446 133.883C104.282 133.956 104.104 133.994 103.924 133.994H97.0745C96.7634 133.994 96.4629 133.882 96.23 133.678C95.997 133.474 95.8477 133.192 95.8101 132.886L94.9736 126.081C94.9519 125.904 94.9684 125.725 95.0219 125.555C95.0755 125.385 95.1649 125.228 95.2843 125.094C95.4037 124.961 95.5503 124.854 95.7145 124.781C95.8787 124.708 96.0568 124.67 96.2368 124.67H103.086C103.397 124.669 103.697 124.782 103.93 124.986C104.163 125.19 104.313 125.472 104.35 125.778Z" fill="#FFD494"/>
<path d="M159.008 125.77L159.854 132.574C159.876 132.752 159.86 132.933 159.806 133.104C159.753 133.275 159.663 133.434 159.543 133.568C159.422 133.702 159.275 133.81 159.11 133.884C158.944 133.957 158.765 133.995 158.584 133.995L151.74 133.992C151.427 133.992 151.125 133.878 150.891 133.673C150.657 133.468 150.507 133.185 150.469 132.878L149.638 126.078C149.616 125.9 149.633 125.72 149.687 125.549C149.74 125.377 149.83 125.22 149.95 125.086C150.071 124.952 150.218 124.844 150.383 124.771C150.548 124.697 150.727 124.659 150.908 124.659H157.738C158.05 124.659 158.352 124.772 158.586 124.977C158.82 125.181 158.97 125.464 159.008 125.77Z" fill="#FFD494"/>
<path d="M69.8015 145.265L68.965 138.459C68.9431 138.282 68.9595 138.102 69.0131 137.931C69.0667 137.761 69.1562 137.603 69.2759 137.469C69.3955 137.336 69.5425 137.228 69.707 137.155C69.8716 137.082 70.0501 137.044 70.2306 137.044L77.0796 137.046C77.3912 137.046 77.6919 137.159 77.9251 137.364C78.1583 137.568 78.3077 137.85 78.3452 138.156L79.1793 144.958C79.201 145.135 79.1845 145.315 79.1308 145.485C79.0771 145.656 78.9875 145.813 78.8679 145.947C78.7483 146.08 78.6014 146.187 78.4369 146.26C78.2724 146.334 78.0941 146.372 77.9137 146.372L71.0683 146.375C70.7565 146.376 70.4554 146.263 70.222 146.058C69.9886 145.854 69.839 145.571 69.8015 145.265Z" fill="#FFD494"/>
<path d="M92.0144 138.155L92.8449 144.962C92.8664 145.14 92.8498 145.319 92.796 145.489C92.7422 145.66 92.6526 145.817 92.533 145.95C92.4133 146.084 92.2665 146.19 92.1021 146.263C91.9377 146.337 91.7595 146.374 91.5793 146.374L84.7339 146.373C84.423 146.373 84.1229 146.26 83.89 146.057C83.6571 145.853 83.5076 145.572 83.4695 145.266L82.6233 138.459C82.6012 138.282 82.6175 138.102 82.671 137.931C82.7245 137.76 82.8141 137.603 82.9338 137.469C83.0534 137.335 83.2005 137.228 83.3652 137.155C83.5298 137.081 83.7084 137.044 83.8889 137.044L90.7501 137.046C91.0613 137.046 91.3618 137.159 91.5947 137.363C91.8276 137.568 91.9769 137.849 92.0144 138.155Z" fill="#FFD494"/>
<path d="M105.682 138.155L106.508 144.964C106.529 145.141 106.513 145.32 106.459 145.491C106.405 145.661 106.315 145.818 106.196 145.951C106.076 146.085 105.929 146.192 105.765 146.265C105.601 146.338 105.422 146.375 105.242 146.375L98.4028 146.372C98.0919 146.372 97.7918 146.259 97.5589 146.055C97.326 145.852 97.1765 145.571 97.1384 145.265L96.2899 138.46C96.2678 138.283 96.284 138.103 96.3374 137.932C96.3909 137.762 96.4803 137.604 96.5999 137.471C96.7194 137.337 96.8663 137.23 97.0308 137.156C97.1954 137.083 97.3738 137.045 97.5542 137.045L104.418 137.044C104.729 137.044 105.03 137.157 105.263 137.362C105.496 137.567 105.645 137.849 105.682 138.155Z" fill="#FFD494"/>
<path d="M110.804 145.269L109.956 138.457C109.934 138.28 109.95 138.1 110.004 137.929C110.057 137.759 110.147 137.602 110.266 137.468C110.386 137.335 110.532 137.228 110.697 137.155C110.861 137.081 111.039 137.044 111.22 137.044L118.079 137.047C118.39 137.047 118.69 137.16 118.922 137.364C119.155 137.568 119.304 137.849 119.341 138.154L120.175 144.964C120.197 145.14 120.181 145.32 120.127 145.49C120.074 145.66 119.984 145.817 119.865 145.95C119.746 146.083 119.599 146.19 119.435 146.263C119.271 146.336 119.093 146.374 118.914 146.374L112.066 146.373C111.755 146.373 111.456 146.261 111.224 146.057C110.991 145.854 110.842 145.573 110.804 145.269Z" fill="#FFD494"/>
<path d="M124.465 145.264L123.626 138.459C123.604 138.282 123.62 138.102 123.674 137.931C123.727 137.76 123.817 137.603 123.937 137.469C124.057 137.335 124.204 137.228 124.369 137.155C124.533 137.081 124.712 137.044 124.892 137.044L131.737 137.047C132.048 137.047 132.348 137.16 132.581 137.364C132.814 137.568 132.964 137.849 133.002 138.155L133.847 144.956C133.869 145.134 133.853 145.314 133.799 145.485C133.746 145.656 133.656 145.813 133.536 145.947C133.417 146.081 133.269 146.189 133.105 146.262C132.94 146.335 132.761 146.373 132.58 146.373H125.73C125.419 146.373 125.118 146.26 124.885 146.056C124.652 145.852 124.502 145.57 124.465 145.264Z" fill="#FFD494"/>
<path d="M146.671 138.147L147.515 144.973C147.537 145.149 147.52 145.328 147.467 145.498C147.414 145.667 147.325 145.823 147.206 145.956C147.087 146.089 146.941 146.195 146.777 146.268C146.613 146.341 146.436 146.378 146.257 146.378L139.387 146.369C139.078 146.369 138.78 146.257 138.549 146.054C138.318 145.852 138.17 145.572 138.132 145.269L137.291 138.451C137.269 138.275 137.286 138.096 137.339 137.927C137.392 137.757 137.481 137.601 137.6 137.468C137.719 137.335 137.865 137.229 138.028 137.156C138.192 137.084 138.369 137.046 138.548 137.046H145.414C145.723 137.046 146.022 137.158 146.254 137.361C146.485 137.563 146.634 137.843 146.671 138.147Z" fill="#FFD494"/>
<path d="M151.793 145.265L150.959 138.455C150.937 138.279 150.953 138.099 151.007 137.929C151.06 137.759 151.15 137.602 151.269 137.469C151.388 137.336 151.535 137.229 151.699 137.156C151.863 137.083 152.041 137.045 152.221 137.045H159.076C159.386 137.045 159.686 137.158 159.918 137.361C160.151 137.565 160.3 137.846 160.338 138.152L161.172 144.961C161.193 145.138 161.177 145.317 161.123 145.487C161.069 145.657 160.98 145.814 160.861 145.947C160.742 146.08 160.595 146.187 160.431 146.26C160.267 146.333 160.089 146.371 159.91 146.371L153.055 146.373C152.744 146.373 152.444 146.26 152.211 146.056C151.979 145.852 151.83 145.571 151.793 145.265Z" fill="#FFD494"/>
<path d="M166.492 161.08L174.135 161.762C175.835 162.018 177.434 162.206 179.046 162.691C179.336 162.778 179.579 162.904 179.775 163.068C179.803 163.091 179.825 163.119 179.84 163.152C179.855 163.184 179.862 163.219 179.862 163.255C179.862 163.29 179.853 163.325 179.838 163.357C179.822 163.389 179.8 163.418 179.772 163.44C179.158 163.932 178.029 164.109 177.266 164.238C175.243 164.582 173.209 164.844 171.164 165.025C160.545 165.967 149.213 166.388 138.769 166.645C117.889 167.161 97.0069 167.222 76.1238 166.831C66.5994 166.652 57.0801 166.321 47.5661 165.838C43.0985 165.611 38.6408 165.266 34.1933 164.803C32.5965 164.637 31.1036 164.387 29.5709 164.091C29.1019 164.001 28.159 163.805 27.8024 163.404C27.775 163.373 27.7625 163.337 27.7649 163.294C27.7746 163.118 27.8516 162.993 27.9958 162.92C28.9677 162.421 30.1124 162.305 31.2475 162.072L36.7402 161.392C36.6894 162.238 36.1878 163.386 37.6178 163.312L61.321 163.256L62.4887 163.111L62.6047 163.197C62.6361 163.221 62.6716 163.233 62.7111 163.233C96.961 163.225 131.21 163.226 165.46 163.236C166.33 163.236 166.686 162.969 166.59 162.097C166.553 161.762 166.52 161.423 166.492 161.08Z" fill="#9F0B00"/>
<path d="M61.3209 163.256L37.6177 163.312C37.6813 163.262 37.7635 163.229 37.8643 163.214C42.1281 162.591 46.3891 161.951 50.6472 161.295C50.8632 161.263 51.1545 161.28 51.5212 161.348C54.7809 161.954 58.0394 162.565 61.2967 163.182C61.3176 163.186 61.3281 163.198 61.3281 163.219C61.3281 163.23 61.3257 163.243 61.3209 163.256Z" fill="#F95146"/>
<defs>
<linearGradient id="paint0_linear_533_17829" x1="107.232" y1="63.9167" x2="107.232" y2="82.7536" gradientUnits="userSpaceOnUse">
<stop stop-color="#E9414C"/>
<stop offset="1" stop-color="#FC8A37"/>
</linearGradient>
<linearGradient id="paint1_linear_533_17829" x1="161.796" y1="82.1812" x2="164.036" y2="159.76" gradientUnits="userSpaceOnUse">
<stop stop-color="#FB8738"/>
<stop offset="1" stop-color="#FA8239"/>
</linearGradient>
<linearGradient id="paint2_linear_533_17829" x1="161.468" y1="82.1783" x2="161.468" y2="159.962" gradientUnits="userSpaceOnUse">
<stop stop-color="#FB8738"/>
<stop offset="1" stop-color="#FA8239"/>
</linearGradient>
<linearGradient id="paint3_linear_533_17829" x1="56.2821" y1="64.1033" x2="56.2821" y2="82.763" gradientUnits="userSpaceOnUse">
<stop stop-color="#E9424B"/>
<stop offset="1" stop-color="#FC8937"/>
</linearGradient>
<linearGradient id="paint4_linear_533_17829" x1="61.4276" y1="82.7476" x2="61.4276" y2="159.868" gradientUnits="userSpaceOnUse">
<stop stop-color="#FB8638"/>
<stop offset="1" stop-color="#FB8737"/>
</linearGradient>
</defs>
</svg>
