<svg width="209" height="209" viewBox="0 0 209 209" fill="none" xmlns="http://www.w3.org/2000/svg">
<ellipse cx="103.977" cy="170.863" rx="89.4778" ry="4.13245" fill="#9F0B00"/>
<path fill-rule="evenodd" clip-rule="evenodd" d="M175.972 78.1971L174.62 82.0807L167.151 103.547C167.142 103.572 167.124 103.593 167.1 103.605C167.076 103.616 167.048 103.618 167.023 103.609C160.878 101.467 154.727 99.3266 148.57 97.1896C147.792 96.9203 147.252 96.6438 146.95 96.3602C145.906 95.376 145.694 93.6834 146.361 92.4268C146.526 92.1147 146.898 91.7042 147.475 91.1952C150.005 88.9686 152.322 85.966 151.936 82.4295C151.501 78.4445 148.025 75.5541 144.225 75.0077C141.081 74.5556 137.411 75.8193 135.593 78.6136C133.933 81.1694 134.372 84.0919 134.855 86.92C135.204 88.9615 134.429 90.5366 132.342 91.1418C131.98 91.2474 131.582 91.226 131.149 91.0777C124.824 88.9063 118.507 86.7266 112.199 84.5386C112.172 84.529 112.15 84.5089 112.137 84.4826C112.124 84.4563 112.122 84.4259 112.132 84.398C114.188 78.4866 116.244 72.5735 118.301 66.6585C118.609 65.771 118.751 65.0982 118.728 64.6402C118.655 63.1683 117.493 61.8459 116.031 61.5771C115.649 61.5059 115.071 61.5421 114.296 61.6857C112.81 61.9598 111.614 62.0992 110.708 62.1039C100.718 62.1573 99.6925 47.9721 108.307 44.9126C112.03 43.5902 115.734 45.5925 118.213 48.3815C118.314 48.4951 118.416 48.6139 118.519 48.7342L118.519 48.7342L118.519 48.7343L118.519 48.7343C118.937 49.2225 119.377 49.7355 119.872 50.0296C121.255 50.8501 123.176 50.5262 124.178 49.2287C124.399 48.9392 124.639 48.4272 124.897 47.6927C127.013 41.6294 129.121 35.5691 131.219 29.5118C131.224 29.4981 131.234 29.4869 131.247 29.4806C131.261 29.4743 131.276 29.4734 131.29 29.478L186.149 48.5684C186.18 48.5794 186.206 48.6021 186.22 48.6314C186.234 48.6607 186.236 48.6944 186.226 48.725L175.972 78.1971ZM81.3888 113.272C81.4149 113.304 81.4552 113.32 81.5098 113.319V113.319C81.5786 113.271 81.6569 113.247 81.7447 113.247C88.5555 113.239 95.3651 113.236 102.174 113.238C102.304 113.294 102.369 113.368 102.368 113.459C102.341 120.004 102.347 126.546 102.384 133.085C102.754 134.991 104.516 136.364 106.454 135.888C106.723 135.822 107.254 135.559 108.045 135.1C111.831 132.902 116.706 132.144 119.952 135.823C121.955 138.092 122.613 141.103 121.926 144.047C121.18 147.244 118.454 150.355 115.017 150.816C112.349 151.174 110.053 149.953 107.791 148.719C106.454 147.991 105.416 147.731 104.099 148.45C103.288 148.894 102.717 149.63 102.387 150.657L102.391 170.908C102.352 170.975 102.277 171.008 102.168 171.008C82.8429 170.994 63.5265 170.991 44.2189 170.999C44.1911 170.999 44.1644 170.988 44.1447 170.969C44.125 170.949 44.1139 170.923 44.1139 170.896L44.1157 152.578L44.1175 112.941C44.1175 112.872 44.1406 112.863 44.1869 112.914C44.3791 113.129 44.5435 113.237 44.6799 113.237H64.6122C65.8242 113.237 66.6358 113.97 67.184 115.032V115.033C67.3857 114.543 67.5714 114.076 67.7411 113.632C68.38 111.971 67.6023 109.923 65.8741 109.369C65.511 109.253 64.9948 109.236 64.3256 109.318C57.8708 110.11 51.4361 110.888 45.0216 111.651C44.6882 111.69 44.5019 111.544 44.4628 111.211L42.181 91.9304C42.0517 91.3111 41.9479 90.6988 41.8696 90.0937C41.3926 86.3845 40.9316 82.7104 40.4866 79.0712L39.4828 69.8304L37.5321 53.7515C37.5314 53.7464 37.5317 53.7413 37.533 53.7363C37.5343 53.7314 37.5366 53.7268 37.5398 53.7228C37.543 53.7188 37.5469 53.7155 37.5514 53.7131C37.5559 53.7106 37.5609 53.7092 37.566 53.7087L95.2269 46.7372C95.2609 46.7336 95.2948 46.7434 95.3215 46.7644C95.3481 46.7853 95.3653 46.8159 95.3693 46.8493C96.1441 53.3101 96.9225 59.7501 97.7044 66.1693C97.8053 66.9927 97.7958 67.6086 97.6759 68.0167C97.2595 69.4459 95.7697 70.3981 94.2818 70.2896C93.9626 70.267 93.402 70.0885 92.5999 69.7538C88.8818 68.2001 84.3611 67.7035 81.4083 71.0531C77.5443 75.4404 79.1587 82.0471 84.0033 84.8646C87.8531 87.1018 90.8503 85.6156 94.1127 83.3428C95.0311 82.7021 95.6724 82.3253 96.0367 82.2126C97.3324 81.8104 98.9076 82.3443 99.5803 83.5777C99.769 83.9254 99.9061 84.4475 99.9915 85.144C100.776 91.632 101.561 98.1219 102.348 104.613C102.349 104.621 102.349 104.629 102.348 104.637C102.348 104.644 102.347 104.65 102.345 104.657C102.341 104.671 102.334 104.684 102.325 104.695C102.316 104.707 102.305 104.716 102.293 104.723C102.28 104.73 102.266 104.735 102.252 104.736C95.7128 105.53 89.1589 106.32 82.5902 107.107L82.5043 107.117C82.0816 107.168 81.6661 107.218 81.3194 107.484C79.8207 108.636 79.5217 110.432 80.5006 112.032C80.7854 112.496 81.0815 112.909 81.3888 113.272ZM66.659 129.999C63.9251 127.034 64.468 122.817 66.2621 119.409V119.409C66.0147 126.217 72.9257 129.419 78.6229 126.877C80.0563 126.239 81.2897 125.241 82.3232 123.884C82.4751 126.298 81.7121 128.351 80.0343 130.044C76.3483 133.763 70.2346 133.877 66.659 129.999ZM83.1787 122.331C83.0879 122.535 82.9867 122.74 82.8749 122.944L81.5543 113.564C83.59 116.206 84.5416 119.268 83.1787 122.331ZM81.5543 113.564V113.564C81.5506 113.559 81.5471 113.555 81.5438 113.55C81.5471 113.555 81.5506 113.559 81.5543 113.564ZM160.95 152.754L160.938 170.857C160.938 170.92 160.906 170.951 160.844 170.951C142.985 171.03 123.705 171.027 103.003 170.942C102.941 170.941 102.879 170.919 102.816 170.875C102.835 166.92 102.796 162.982 102.757 159.04C102.734 156.699 102.71 154.355 102.699 152.006C102.698 151.822 102.695 151.634 102.692 151.455C102.686 151.072 102.68 150.732 102.699 150.574C103 149.585 103.673 148.899 104.485 148.455C105.801 147.834 106.315 148.101 107.608 148.773L107.624 148.781C109.983 150.006 112.62 151.295 115.199 150.949C118.636 150.488 121.34 147.215 122.085 144.019C122.772 141.075 122.251 138.201 120.16 135.832C116.914 132.153 112.063 132.725 108.277 134.923C107.486 135.382 106.888 135.717 106.619 135.783L106.444 135.807C104.58 136.058 102.902 134.657 102.818 132.778C102.837 126.387 102.839 119.997 102.825 113.607C102.825 113.419 102.8 113.283 102.75 113.201C102.732 113.164 102.727 113.16 102.727 113.156C102.728 113.152 102.737 113.149 102.743 113.086C102.744 113.073 102.75 113.074 102.758 113.075C102.765 113.076 102.774 113.078 102.783 113.07C102.796 113.07 102.801 113.07 102.804 113.07C102.809 113.07 102.81 113.07 102.825 113.07C103.333 113.062 103.841 112.978 104.347 112.894C104.871 112.807 105.393 112.721 105.909 112.721C111.658 112.713 117.406 112.711 123.154 112.715C123.344 112.715 123.537 112.68 123.733 112.644C123.782 112.635 123.831 112.626 123.88 112.618C123.918 112.612 123.954 112.597 123.985 112.575C125.523 111.492 125.996 110.115 125.405 108.444C125.322 108.207 125.103 107.779 124.747 107.161C122.987 104.103 121.922 100.862 123.88 97.5994C126.708 92.8847 133.219 91.7563 137.521 95.0934C141.438 98.1316 140.936 103.202 138.704 107.082C138.651 107.175 138.595 107.269 138.538 107.365C138.248 107.855 137.938 108.378 137.827 108.889C137.535 110.23 137.932 111.367 139.018 112.301C139.314 112.556 139.664 112.684 140.066 112.685C147.007 112.708 153.919 112.718 160.803 112.715C160.846 112.715 160.887 112.733 160.917 112.763C160.947 112.793 160.965 112.834 160.965 112.877C160.962 114.427 160.957 115.977 160.952 117.527C160.935 123.326 160.917 129.128 161.011 134.921C161.105 140.634 161.102 147.116 160.95 152.754Z" fill="url(#paint0_linear_536_18101)"/>
<defs>
<linearGradient id="paint0_linear_536_18101" x1="131.675" y1="29.4751" x2="131.675" y2="170.845" gradientUnits="userSpaceOnUse">
<stop stop-color="#E9434B"/>
<stop offset="1" stop-color="#FD8E36"/>
</linearGradient>
</defs>
</svg>
