<svg width="209" height="209" viewBox="0 0 209 209" fill="none" xmlns="http://www.w3.org/2000/svg">
<path d="M183.204 44.7635L167.008 43.6577L171.512 49.9365L113.047 87.3205L97.9173 63.5228L26.5962 105.878L29.4183 110.7L95.5952 71.2823L110.725 95.08L174.758 54.4508L179.205 60.643L183.204 44.7635Z" fill="#9F0B00"/>
<path fill-rule="evenodd" clip-rule="evenodd" d="M158.244 69.2295V162.151H171.393V60.9123L158.244 69.2295ZM79.0199 85.3255V162.151H94.385V76.2343L79.0199 85.3255ZM109.765 99.8878L94.8663 76.4554V162.151H110.231V99.5897L109.765 99.8878ZM33.703 162.151V112.138L46.8518 104.359V162.151H33.703ZM47.3326 104.075V162.151H62.6978V94.9838L47.3326 104.075ZM63.1785 162.151V94.7002L78.5389 85.6089V162.151H63.1785ZM142.399 162.151V79.2487L157.764 69.5325V162.151H142.399ZM126.558 89.2676V162.151H141.918V79.5514L126.558 89.2676ZM110.712 162.151V99.2868L126.077 89.5705V162.151H110.712Z" fill="url(#paint0_linear_533_17967)"/>
<path d="M171.392 159.973L178.772 160.56C180.567 160.79 182.256 160.959 183.959 161.395C184.266 161.473 184.522 161.586 184.729 161.734C184.758 161.754 184.781 161.78 184.797 161.809C184.813 161.838 184.821 161.869 184.821 161.901C184.82 161.933 184.812 161.965 184.795 161.994C184.779 162.022 184.755 162.048 184.725 162.068C184.077 162.51 182.884 162.669 182.079 162.785C179.942 163.094 177.794 163.33 175.634 163.492C164.418 164.338 152.45 164.716 141.42 164.948C119.366 165.411 97.3112 165.466 75.255 165.114C65.1955 164.954 55.1415 164.656 45.0931 164.222C40.3744 164.019 35.6664 163.709 30.969 163.292C29.2825 163.143 27.7057 162.918 26.0869 162.653C25.5915 162.572 24.5957 162.396 24.2191 162.036C24.1901 162.008 24.177 161.975 24.1795 161.937C24.1897 161.779 24.271 161.666 24.4234 161.6C25.4498 161.152 26.6589 161.048 27.8577 160.838L33.7562 160.218C33.7026 160.978 33.5885 161.953 34.5859 161.953L59.6206 161.903L60.8539 161.772L60.9764 161.85C61.0096 161.871 61.0471 161.882 61.0888 161.882C97.2627 161.875 133.436 161.876 169.609 161.884C170.093 161.963 171.141 161.907 171.371 161.099C171.403 160.784 171.372 160.289 171.392 159.973Z" fill="#9F0B00"/>
<defs>
<linearGradient id="paint0_linear_533_17967" x1="33.7031" y1="162.152" x2="171.393" y2="60.9125" gradientUnits="userSpaceOnUse">
<stop stop-color="#E9414C"/>
<stop offset="1" stop-color="#FE9135"/>
</linearGradient>
</defs>
</svg>
