<svg width="209" height="209" viewBox="0 0 209 209" fill="none" xmlns="http://www.w3.org/2000/svg">
<path d="M119.054 37.538C117.434 36.7822 116.217 36.2622 115.404 35.9782C110.93 34.4184 106.298 34.0262 101.63 34.8016C99.5108 35.1532 97.9126 35.5409 96.0012 36.4291C95.512 36.6567 94.8922 36.7108 94.4504 36.9723C93.7727 37.375 93.0837 37.7597 92.3834 38.1264C92.2992 38.1699 92.2632 38.1451 92.2752 38.052L92.2865 37.9573C95.0244 32.8902 98.1824 28.0988 101.76 23.5831C103.496 21.3922 105.842 20.4454 108.462 21.9309C109.76 22.668 110.596 24.1173 111.532 25.4292C114.406 29.4565 116.914 33.4927 119.054 37.538Z" fill="#EC5047"/>
<path d="M119.054 37.5379C122.321 43.5112 124.843 49.8309 126.621 56.4969C128.304 62.8196 129.247 69.7959 128.523 76.3282C128.155 79.6492 127.648 82.9011 127.002 86.0838C125.691 92.9737 124.047 99.7082 122.07 106.287C121.497 108.018 120.74 110.387 120.12 111.55C119.472 112.766 118.459 113.607 117.079 114.075L108.847 114.142C109.095 104.785 108.174 95.5779 106.084 86.5211C106.077 86.4918 106.06 86.4658 106.036 86.4472C106.013 86.4287 105.983 86.4188 105.953 86.419C105.923 86.4193 105.894 86.4297 105.871 86.4487C105.847 86.4676 105.831 86.494 105.825 86.5233C103.737 95.7214 102.819 104.935 103.07 114.163C100.839 114.149 98.6018 114.139 96.3598 114.131C95.9556 114.13 95.4506 114.061 94.845 113.924C93.4408 113.32 92.7127 112.454 92.0545 110.991C91.5331 109.83 91.1273 108.777 90.8373 107.833C90.5608 106.935 90.3091 106.201 90.0822 105.631C88.4367 100.059 86.9753 94.3923 85.698 88.6309C85.662 88.4641 85.5718 87.999 85.4275 87.2356C85.3419 86.7788 85.2375 86.3167 85.1142 85.8494C85.0722 85.7938 85.0496 85.6946 85.0466 85.5518C85.0436 85.4286 85.0346 85.3294 85.0196 85.2543C84.4455 82.3631 83.9549 79.4561 83.5477 76.5333C82.5964 69.7305 83.4282 62.4003 85.2044 55.7778C85.3306 55.5434 85.3847 55.3406 85.3667 55.1692C86.5704 50.6145 88.182 46.2349 90.2017 42.0303L90.7967 40.8199L92.2867 37.9572L92.2754 38.0518C92.2634 38.145 92.2994 38.1698 92.3836 38.1262C93.0839 37.7596 93.7729 37.3749 94.4506 36.9722C94.8924 36.7107 95.5123 36.6566 96.0014 36.4289C97.9128 35.5408 99.511 35.1531 101.63 34.8015C106.298 34.0261 110.93 34.4183 115.404 35.9781C116.217 36.2621 117.434 36.7821 119.054 37.5379ZM100.766 74.9397C102.86 75.8368 105.125 76.1757 107.563 75.9563C108.886 75.9458 109.745 75.8826 110.139 75.7669C114.945 74.3589 118.21 71.4579 119.935 67.064C120.497 65.6349 120.795 64.1735 120.828 62.6798C120.904 59.1875 119.819 56.0295 117.571 53.2059C117.404 52.9963 117.149 52.9219 117.005 52.6289C116.966 52.5523 116.904 52.5049 116.82 52.4869C116.692 52.4583 116.623 52.3825 116.613 52.2593C116.607 52.1886 116.576 52.1308 116.52 52.0857C115.386 51.1886 114.163 50.4071 112.853 49.7414C111.929 49.217 110.923 48.7917 109.835 48.4657C105.451 47.3777 101.524 48.0359 98.0526 50.4402C95.2305 52.3952 93.3822 55.0287 92.5076 58.3407C91.1326 63.5499 92.7443 68.7748 96.6731 72.4692C97.8272 73.5527 99.1916 74.3762 100.766 74.9397Z" fill="#FB8937"/>
<path d="M109.834 48.4657C109.375 48.5498 108.997 48.5626 108.7 48.504C107.056 48.1824 105.631 48.1268 104.424 48.3372C100.089 49.0946 96.1628 51.9482 94.1724 55.8838C92.6532 58.8885 92.2565 62.3598 93.0995 65.6417C94.1469 69.7065 96.7023 72.8059 100.766 74.9397C99.1908 74.3762 97.8263 73.5527 96.6722 72.4693C92.7434 68.7748 91.1317 63.5499 92.5067 58.3408C93.3813 55.0288 95.2296 52.3953 98.0517 50.4402C101.523 48.0359 105.45 47.3777 109.834 48.4657Z" fill="#9E1F18"/>
<path d="M109.835 48.4657C110.923 48.7918 111.929 49.217 112.853 49.7415C117.316 52.4794 119.706 56.409 120.023 61.5303C120.082 62.477 119.888 63.3899 119.755 64.3456C119.636 65.1946 119.488 65.8851 119.309 66.4171C117.564 71.6375 112.991 75.1854 107.563 75.9563C105.125 76.1757 102.86 75.8368 100.767 74.9397C96.7034 72.8059 94.1481 69.7065 93.1007 65.6417C92.2577 62.3598 92.6544 58.8885 94.1736 55.8838C96.164 51.9482 100.091 49.0946 104.425 48.3372C105.632 48.1268 107.057 48.1824 108.701 48.504C108.999 48.5626 109.377 48.5498 109.835 48.4657ZM106.533 49.9849C106.533 49.8349 106.473 49.691 106.367 49.5849C106.261 49.4788 106.117 49.4192 105.967 49.4192C105.817 49.4192 105.673 49.4788 105.567 49.5849C105.461 49.691 105.401 49.8349 105.401 49.9849C105.401 50.135 105.461 50.2789 105.567 50.385C105.673 50.4911 105.817 50.5507 105.967 50.5507C106.117 50.5507 106.261 50.4911 106.367 50.385C106.473 50.2789 106.533 50.135 106.533 49.9849ZM116.302 61.9946C116.302 60.6463 116.036 59.3112 115.52 58.0655C115.004 56.8198 114.248 55.6879 113.295 54.7345C112.341 53.7811 111.209 53.0248 109.964 52.5089C108.718 51.9929 107.383 51.7273 106.035 51.7273C103.311 51.7273 100.7 52.8091 98.7745 54.7345C96.849 56.66 95.7672 59.2716 95.7672 61.9946C95.7672 64.7177 96.849 67.3292 98.7745 69.2547C100.7 71.1802 103.311 72.2619 106.035 72.2619C107.383 72.2619 108.718 71.9963 109.964 71.4803C111.209 70.9644 112.341 70.2081 113.295 69.2547C114.248 68.3013 115.004 67.1694 115.52 65.9237C116.036 64.678 116.302 63.3429 116.302 61.9946ZM97.5818 53.8394C97.5818 53.6893 97.5222 53.5454 97.4161 53.4393C97.3099 53.3332 97.166 53.2736 97.016 53.2736C96.8659 53.2736 96.722 53.3332 96.6159 53.4393C96.5098 53.5454 96.4502 53.6893 96.4502 53.8394C96.4502 53.9894 96.5098 54.1333 96.6159 54.2394C96.722 54.3455 96.8659 54.4052 97.016 54.4052C97.166 54.4052 97.3099 54.3455 97.4161 54.2394C97.5222 54.1333 97.5818 53.9894 97.5818 53.8394ZM115.477 54.4377C115.579 54.3264 115.628 54.1757 115.614 54.0187C115.6 53.8616 115.524 53.7111 115.402 53.6003C115.342 53.5454 115.273 53.5019 115.198 53.4722C115.123 53.4426 115.044 53.4274 114.966 53.4276C114.888 53.4277 114.812 53.4432 114.743 53.473C114.673 53.5029 114.612 53.5467 114.561 53.6017C114.46 53.713 114.411 53.8637 114.425 54.0208C114.439 54.1778 114.515 54.3283 114.636 54.4392C114.696 54.4941 114.766 54.5376 114.841 54.5672C114.915 54.5968 114.994 54.612 115.072 54.6119C115.15 54.6117 115.226 54.5963 115.296 54.5664C115.365 54.5365 115.427 54.4928 115.477 54.4377ZM94.3472 62.0419C94.3472 61.8805 94.2831 61.7257 94.1689 61.6116C94.0548 61.4975 93.9 61.4333 93.7386 61.4333C93.5772 61.4333 93.4224 61.4975 93.3082 61.6116C93.1941 61.7257 93.13 61.8805 93.13 62.0419C93.13 62.2034 93.1941 62.3581 93.3082 62.4723C93.4224 62.5864 93.5772 62.6505 93.7386 62.6505C93.9 62.6505 94.0548 62.5864 94.1689 62.4723C94.2831 62.3581 94.3472 62.2034 94.3472 62.0419ZM118.603 62.3877C118.692 62.2701 118.728 62.1197 118.703 61.9696C118.678 61.8195 118.593 61.6819 118.469 61.5872C118.407 61.5403 118.337 61.5054 118.263 61.4843C118.189 61.4633 118.112 61.4566 118.038 61.4646C117.963 61.4726 117.891 61.4952 117.826 61.5311C117.762 61.567 117.706 61.6154 117.662 61.6736C117.572 61.7912 117.536 61.9417 117.561 62.0918C117.587 62.2419 117.671 62.3794 117.795 62.4741C117.857 62.521 117.927 62.556 118.001 62.577C118.075 62.5981 118.152 62.6047 118.227 62.5967C118.302 62.5887 118.373 62.5661 118.438 62.5303C118.502 62.4944 118.558 62.446 118.603 62.3877ZM115.562 70.125C115.562 69.9768 115.504 69.8346 115.399 69.7298C115.294 69.6249 115.152 69.566 115.003 69.566C114.855 69.566 114.713 69.6249 114.608 69.7298C114.503 69.8346 114.444 69.9768 114.444 70.125C114.444 70.2733 114.503 70.4155 114.608 70.5203C114.713 70.6251 114.855 70.684 115.003 70.684C115.152 70.684 115.294 70.6251 115.399 70.5203C115.504 70.4155 115.562 70.2733 115.562 70.125ZM98.0055 70.6097C98.0055 70.4542 97.9438 70.3052 97.8339 70.1952C97.724 70.0853 97.5749 70.0236 97.4195 70.0236C97.264 70.0236 97.115 70.0853 97.0051 70.1952C96.8952 70.3052 96.8334 70.4542 96.8334 70.6097C96.8334 70.7651 96.8952 70.9142 97.0051 71.0241C97.115 71.134 97.264 71.1957 97.4195 71.1957C97.5749 71.1957 97.724 71.134 97.8339 71.0241C97.9438 70.9142 98.0055 70.7651 98.0055 70.6097ZM106.643 74.0358C106.643 73.878 106.58 73.7267 106.469 73.6151C106.357 73.5035 106.206 73.4408 106.048 73.4408C105.89 73.4408 105.739 73.5035 105.627 73.6151C105.516 73.7267 105.453 73.878 105.453 74.0358C105.453 74.1937 105.516 74.345 105.627 74.4566C105.739 74.5682 105.89 74.6309 106.048 74.6309C106.206 74.6309 106.357 74.5682 106.469 74.4566C106.58 74.345 106.643 74.1937 106.643 74.0358Z" fill="#EC5047"/>
<path d="M105.967 50.5505C106.279 50.5505 106.532 50.2972 106.532 49.9847C106.532 49.6723 106.279 49.4189 105.967 49.4189C105.654 49.4189 105.401 49.6723 105.401 49.9847C105.401 50.2972 105.654 50.5505 105.967 50.5505Z" fill="#E6F2FF"/>
<path d="M112.853 49.7417C114.164 50.4074 115.386 51.1888 116.521 52.0859C116.576 52.131 116.607 52.1889 116.613 52.2595C116.624 52.3827 116.693 52.4586 116.82 52.4872C116.905 52.5052 116.966 52.5525 117.005 52.6292C117.15 52.9222 117.404 52.9966 117.571 53.2062C119.819 56.0298 120.905 59.1878 120.828 62.6801C120.795 64.1738 120.498 65.6351 119.936 67.0642C118.21 71.4582 114.945 74.3591 110.139 75.7672C109.746 75.8829 108.887 75.946 107.563 75.9565C112.991 75.1856 117.564 71.6377 119.309 66.4173C119.488 65.8854 119.637 65.1949 119.755 64.3458C119.888 63.3901 120.082 62.4772 120.023 61.5305C119.706 56.4092 117.316 52.4796 112.853 49.7417Z" fill="#DD513A"/>
<path d="M116.301 61.9943C116.301 63.3427 116.036 64.6778 115.52 65.9235C115.004 67.1691 114.247 68.301 113.294 69.2544C112.341 70.2078 111.209 70.9641 109.963 71.4801C108.717 71.9961 107.382 72.2616 106.034 72.2616C103.311 72.2616 100.699 71.1799 98.7738 69.2544C96.8483 67.3289 95.7666 64.7174 95.7666 61.9943C95.7666 59.2713 96.8483 56.6598 98.7738 54.7343C100.699 52.8088 103.311 51.7271 106.034 51.7271C107.382 51.7271 108.717 51.9926 109.963 52.5086C111.209 53.0246 112.341 53.7809 113.294 54.7343C114.247 55.6877 115.004 56.8195 115.52 58.0652C116.036 59.3109 116.301 60.646 116.301 61.9943ZM112.976 67.3883C115.997 63.5677 115.118 57.511 110.934 54.867C110.916 54.8559 110.895 54.8514 110.874 54.8542C110.853 54.857 110.833 54.8669 110.819 54.8823C110.805 54.8977 110.797 54.9174 110.796 54.9381C110.795 54.9588 110.802 54.9791 110.815 54.9955C112.639 57.4058 113.13 59.9935 112.289 62.7585C111.421 65.6076 109.102 67.7107 106.21 68.3891C103.67 68.9827 101.285 68.4275 99.0553 66.7234C99.0366 66.71 99.0139 66.7035 98.991 66.705C98.9681 66.7065 98.9465 66.7159 98.9297 66.7316C98.9129 66.7473 98.9022 66.7683 98.8992 66.791C98.8962 66.8138 98.9012 66.8369 98.9133 66.8564C102.071 71.8311 109.332 71.9934 112.976 67.3883Z" fill="#ADC9F1"/>
<path d="M97.016 54.4055C97.3284 54.4055 97.5817 54.1522 97.5817 53.8397C97.5817 53.5272 97.3284 53.2739 97.016 53.2739C96.7035 53.2739 96.4502 53.5272 96.4502 53.8397C96.4502 54.1522 96.7035 54.4055 97.016 54.4055Z" fill="#E6F2FF"/>
<path d="M114.636 54.439C114.889 54.6699 115.265 54.6692 115.477 54.4375C115.688 54.2059 115.655 53.831 115.402 53.6001C115.149 53.3693 114.773 53.3699 114.561 53.6016C114.35 53.8333 114.383 54.2082 114.636 54.439Z" fill="#E6F2FF"/>
<path d="M110.934 54.8671C115.117 57.5112 115.997 63.5678 112.976 67.3885C109.331 71.9936 102.071 71.8313 98.9129 66.8565C98.9008 66.837 98.8958 66.814 98.8988 66.7912C98.9018 66.7684 98.9126 66.7474 98.9293 66.7318C98.9461 66.7161 98.9678 66.7067 98.9907 66.7052C99.0136 66.7037 99.0363 66.7102 99.0549 66.7235C101.285 68.4276 103.67 68.9829 106.209 68.3893C109.101 67.7108 111.421 65.6078 112.289 62.7586C113.13 59.9936 112.639 57.406 110.814 54.9956C110.801 54.9793 110.795 54.959 110.795 54.9383C110.796 54.9176 110.804 54.8978 110.819 54.8825C110.833 54.8671 110.852 54.8571 110.873 54.8543C110.895 54.8515 110.916 54.8561 110.934 54.8671Z" fill="#F0F2F4"/>
<path d="M93.7385 62.6503C94.0746 62.6503 94.3471 62.3778 94.3471 62.0417C94.3471 61.7056 94.0746 61.4331 93.7385 61.4331C93.4024 61.4331 93.1299 61.7056 93.1299 62.0417C93.1299 62.3778 93.4024 62.6503 93.7385 62.6503Z" fill="#E6F2FF"/>
<path d="M117.795 62.4742C118.055 62.6714 118.416 62.6327 118.602 62.3878C118.788 62.1429 118.728 61.7845 118.468 61.5873C118.208 61.3901 117.847 61.4288 117.661 61.6737C117.475 61.9186 117.535 62.277 117.795 62.4742Z" fill="#E6F2FF"/>
<path d="M115.002 70.6844C115.311 70.6844 115.561 70.4341 115.561 70.1254C115.561 69.8167 115.311 69.5664 115.002 69.5664C114.694 69.5664 114.443 69.8167 114.443 70.1254C114.443 70.4341 114.694 70.6844 115.002 70.6844Z" fill="#E6F2FF"/>
<path d="M97.4196 71.1955C97.7432 71.1955 98.0056 70.9332 98.0056 70.6095C98.0056 70.2858 97.7432 70.0234 97.4196 70.0234C97.0959 70.0234 96.8335 70.2858 96.8335 70.6095C96.8335 70.9332 97.0959 71.1955 97.4196 71.1955Z" fill="#E6F2FF"/>
<path d="M106.047 74.6311C106.376 74.6311 106.642 74.3646 106.642 74.036C106.642 73.7073 106.376 73.4409 106.047 73.4409C105.719 73.4409 105.452 73.7073 105.452 74.036C105.452 74.3646 105.719 74.6311 106.047 74.6311Z" fill="#E6F2FF"/>
<path d="M85.1137 85.8496C85.2369 86.317 85.3413 86.779 85.427 87.2359C85.5713 87.9992 85.6614 88.4643 85.6975 88.6311C86.9748 94.3925 88.4362 100.059 90.0816 105.631C89.6444 107.821 89.2334 110.484 88.8487 113.62C87.7419 122.643 83.3713 130.327 75.712 135.306C75.6413 135.353 75.5947 135.335 75.5722 135.254C74.2378 130.566 72.8884 125.876 71.5239 121.184C70.6831 118.292 69.8243 115.333 69.3983 112.348C69.206 110.998 69.1428 109.858 69.209 108.931C69.5133 104.709 71.9454 102.02 74.7089 98.8038C77.6422 95.3851 81.1104 91.067 85.1137 85.8496Z" fill="#EC5047"/>
<path d="M127.001 86.0837C130.821 91.0727 134.739 95.9115 138.754 100.6C140.823 103.014 142.593 105.764 142.737 109.014C142.879 112.22 141.946 115.7 141.06 118.806C139.496 124.304 137.925 129.791 136.349 135.265C136.345 135.281 136.337 135.295 136.326 135.307C136.315 135.319 136.301 135.328 136.286 135.334C136.27 135.339 136.254 135.341 136.238 135.339C136.222 135.337 136.207 135.331 136.193 135.322C128.865 130.388 124.553 123.524 123.259 114.728C122.857 111.987 122.46 109.174 122.069 106.287C124.047 99.7081 125.691 92.9737 127.001 86.0837Z" fill="#EC5047"/>
<path d="M108.848 114.142L108.715 118.648C108.584 122.238 108.275 125.758 107.788 129.206C107.501 131.244 106.962 133.208 106.17 135.098C106.134 135.186 106.111 135.232 106.1 135.238C105.957 135.342 105.848 135.314 105.771 135.155C105.401 134.391 105.109 133.584 104.894 132.732C103.751 128.212 103.361 123.411 103.228 118.759C103.225 118.673 103.181 118.631 103.095 118.632L102.622 118.637L103.084 118.574C103.167 118.563 103.207 118.517 103.204 118.434L103.071 114.163C102.82 104.935 103.738 95.7214 105.825 86.5233C105.832 86.4939 105.848 86.4676 105.871 86.4486C105.895 86.4297 105.924 86.4192 105.954 86.419C105.984 86.4187 106.013 86.4286 106.037 86.4472C106.061 86.4657 106.077 86.4918 106.084 86.521C108.175 95.5779 109.096 104.785 108.848 114.142Z" fill="#EC5047"/>
<path d="M103.07 114.163L103.203 118.434C103.206 118.517 103.166 118.564 103.084 118.574L102.622 118.637L97.0745 118.649C96.0579 118.673 94.8475 118.982 94.8497 117.569C94.8497 116.38 94.8482 115.165 94.8452 113.924C95.4508 114.061 95.9557 114.13 96.3599 114.131C98.602 114.139 100.839 114.149 103.07 114.163Z" fill="#DD513A"/>
<path d="M117.079 114.075L117.063 117.974C117.063 118.138 116.998 118.295 116.884 118.413C116.769 118.53 116.613 118.598 116.448 118.603L114.902 118.648H108.714L108.847 114.142L117.079 114.075Z" fill="#DD513A"/>
<path d="M114.902 118.648C114.913 119.185 115.12 119.683 115.154 120.156C115.739 128.442 116.893 136.787 118.619 145.19C120.242 153.093 122.624 160.67 125.766 167.922C128.108 173.33 131.079 178.336 134.659 183.182C134.902 183.513 135.141 183.771 135.375 183.958C135.452 184.021 135.525 184.016 135.594 183.942C138.562 180.795 142.203 179.742 146.517 180.782C146.55 180.79 146.584 180.79 146.617 180.782C146.649 180.775 146.68 180.76 146.706 180.738C146.731 180.717 146.752 180.69 146.765 180.66C146.779 180.629 146.785 180.596 146.783 180.563C146.693 178.814 146.698 176.932 147.117 175.275C147.795 172.595 149.148 170.21 151.181 168.287C154.613 165.043 158.708 163.755 163.466 164.424C170.063 165.35 175.268 170.83 175.883 177.455C175.886 177.487 175.896 177.518 175.913 177.546C175.929 177.574 175.951 177.598 175.978 177.616C176.004 177.634 176.034 177.646 176.066 177.652C176.097 177.657 176.13 177.655 176.16 177.646C183.344 175.643 189.883 180.358 190.118 187.785L18.8828 187.787C18.9489 187.646 18.9752 187.51 18.9617 187.379C18.9542 187.307 18.9685 187.24 19.0045 187.179C20.6748 184.237 23.7832 183.563 26.63 185.407C26.6656 185.43 26.7054 185.446 26.7473 185.453C26.7891 185.461 26.832 185.46 26.8734 185.45C26.9149 185.44 26.954 185.422 26.9885 185.397C27.023 185.372 27.0521 185.34 27.0741 185.303C28.8608 182.31 31.5229 180.834 35.0603 180.874C35.0848 180.874 35.1085 180.865 35.1271 180.85C35.1457 180.834 35.158 180.812 35.1617 180.789C35.9935 175.489 38.9147 170.986 43.4747 168.233C50.8004 163.811 60.2855 165.477 65.8148 171.984C66.7299 173.062 67.5166 174.403 68.2672 175.697C68.3078 175.766 68.3664 175.789 68.443 175.766C72.9211 174.468 76.7718 175.427 79.9951 178.643C80.0658 178.713 80.1281 178.706 80.1822 178.62C85.1029 170.575 88.6507 161.857 91.155 152.543C93.9876 142.003 95.8337 131.285 96.6933 120.389C96.7143 120.117 96.7692 119.826 96.8578 119.516C96.939 119.232 97.0111 118.943 97.0742 118.648L102.621 118.637L103.095 118.633C103.18 118.631 103.225 118.673 103.228 118.759C103.361 123.411 103.751 128.212 104.894 132.732C105.108 133.584 105.401 134.392 105.77 135.155C105.847 135.314 105.957 135.342 106.1 135.238C106.11 135.232 106.133 135.186 106.169 135.099C106.961 133.208 107.501 131.244 107.788 129.206C108.275 125.758 108.583 122.238 108.714 118.648H114.902Z" fill="#FFC69C"/>
</svg>
