<svg width="209" height="209" viewBox="0 0 209 209" fill="none" xmlns="http://www.w3.org/2000/svg">
<path d="M104.572 160.382C155.013 160.382 195.903 157.731 195.903 154.461C195.903 151.192 155.013 148.541 104.572 148.541C54.1321 148.541 13.2422 151.192 13.2422 154.461C13.2422 157.731 54.1321 160.382 104.572 160.382Z" fill="#8BEAE1"/>
<path d="M108.217 78.7024L110.118 99.1043H132.146V78.7024H108.217Z" fill="#F98039"/>
<path d="M111.784 81.7412L113.119 96.0656H128.579V81.7412H111.784Z" fill="white" fill-opacity="0.5"/>
<path d="M116.895 82.5664L113.091 86.3338V88.1582L119.211 82.801L116.895 82.5664Z" fill="#F98039"/>
<path d="M121.886 83.0964L113.863 93.1594V95.1631H114.992L126.64 82.8618L121.886 83.0964Z" fill="#F98039"/>
<path d="M127.3 85.8149L120.25 95.1631H124.143L127.47 89.6293L127.3 85.8149Z" fill="#F98039"/>
<path d="M112.545 99.1042H134.058L132.394 115.115H112.545V99.1042Z" fill="url(#paint0_linear_541_15519)"/>
<path d="M116.198 101.823H130.405L129.307 112.397H116.198V101.823Z" fill="#FAFAFA" fill-opacity="0.5"/>
<path d="M119.916 102.557L117.062 105.894L117.221 108.207L123.301 102.91L119.916 102.557Z" fill="url(#paint1_linear_541_15519)"/>
<path d="M126.966 102.557L119.122 111.19H123.837L128.986 104.362V102.557H126.966Z" fill="url(#paint2_linear_541_15519)"/>
<path d="M128.987 108.875L126.927 111.406H128.293L128.987 108.875Z" fill="url(#paint3_linear_541_15519)"/>
<path d="M82.5552 78.7024H104.068L102.405 94.7104H82.5552V78.7024Z" fill="url(#paint4_linear_541_15519)"/>
<path d="M86.2085 81.4209H100.415L99.317 91.9917H86.2085V81.4209Z" fill="white" fill-opacity="0.5"/>
<path d="M89.9258 82.155L87.0723 85.4891L87.2311 87.8047L93.3116 82.5083L89.9258 82.155Z" fill="url(#paint5_linear_541_15519)"/>
<path d="M96.9758 82.155L89.1313 90.7856H93.8464L98.9961 83.9601V82.155H96.9758Z" fill="url(#paint6_linear_541_15519)"/>
<path d="M98.9964 88.4729L96.937 91.0038H98.3025L98.9964 88.4729Z" fill="url(#paint7_linear_541_15519)"/>
<path d="M70.5918 94.7104L72.4923 115.115H94.5209V94.7104H70.5918Z" fill="#FC8E35"/>
<path d="M74.1587 97.752L75.4935 112.074H90.9539V97.752H74.1587Z" fill="white" fill-opacity="0.5"/>
<path d="M94.521 115.115H114.565L113.852 92.748H94.521V115.115Z" fill="#FFCF57"/>
<path d="M97.6895 111.577H111.397L110.909 96.2837H97.6895V111.577Z" fill="#F7B82D"/>
<path d="M79.2668 98.5745L75.4658 102.342V104.166L81.5853 98.8118L79.2668 98.5745Z" fill="#FC8B36"/>
<path d="M84.2606 99.1042L76.2378 109.17V111.171H77.3664L89.0147 98.8696L84.2606 99.1042Z" fill="#FC8B36"/>
<path d="M89.672 101.823L82.6245 111.171H86.5175L89.8448 105.637L89.672 101.823Z" fill="#FC8B36"/>
<path d="M102.126 97.0261L98.7593 101.147V104.089L105.653 97.0261H102.126Z" fill="#FFCF57"/>
<path d="M108.783 97.2994L98.6006 108.602V110.445H100.9L109.931 101.105L110.09 97.0261L108.783 97.2994Z" fill="#FFCF57"/>
<path d="M110.182 104.599L105.057 109.973L108.426 110.13L110.366 107.108L110.182 104.599Z" fill="#FFCF57"/>
<path d="M31.4976 100.719L28.5688 82.7541L34.981 81.686L34.4097 65.5068L58.2831 66.9338L57.6812 98.9332L31.4976 100.719Z" fill="#FED5B7"/>
<path d="M45.7907 99.1127L43.7202 83.5436L52.5177 82.6079L53.1782 98.6684L45.7907 99.1127Z" fill="#9F0B00"/>
<path d="M51.8573 83.3642L52.4871 98.7098L53.1782 98.6684L52.5177 82.6079L43.7202 83.5436L43.8094 84.2225L51.8573 83.3642Z" fill="#FFE8D8"/>
<path d="M50.2354 87.6033L50.801 91.9145H51.7652L51.5562 87.2749L50.2354 87.6033Z" fill="#F4E3DF"/>
<path d="M34.9811 81.686L27.354 82.9335V81.4762L34.9532 80.9104L34.9811 81.686Z" fill="#F25D44"/>
<path d="M33.1782 65.5068L59.3924 67.2594L59.933 66.3818L33.6297 62.6199L33.1782 65.5068Z" fill="#F25D44"/>
<path d="M59.3924 66.5474L33.2897 64.8003L33.1782 65.5069L59.3924 67.2595L59.933 66.3818L59.5289 66.3238L59.3924 66.5474Z" fill="#FFC69C"/>
<path d="M37.2827 68.6919L37.5809 72.5973H41.524V68.99L37.2827 68.6919Z" fill="#5DD8CC"/>
<path d="M36.6841 68.1426L37.0686 73.1465H42.1209V68.5235L36.6841 68.1426Z" stroke="#D3AFA9" stroke-width="0.25" stroke-miterlimit="10"/>
<path d="M43.9317 68.6612L44.1801 73.2517L49.1506 73.0405L48.9806 68.6611L43.9317 68.6612Z" stroke="#D3AFA9" stroke-width="0.25" stroke-miterlimit="10"/>
<path d="M37.5864 76.1163L38.1911 79.9858L42.1203 79.6822L41.8389 76.0859L37.5864 76.1163Z" fill="#5DD8CC"/>
<path d="M37.0879 75.7244L37.8264 80.4468L42.6222 80.0742L42.2767 75.6858L37.0879 75.7244Z" stroke="#D3AFA9" stroke-width="0.25" stroke-miterlimit="10"/>
<path d="M44.478 69.1169L44.6926 72.8071L48.5493 72.5973V69.1169H44.478Z" fill="#5DD8CC"/>
<path d="M44.985 76.0391L44.9126 79.7375L48.7721 79.8203L49.0424 76.3509L44.985 76.0391Z" fill="#5DD8CC"/>
<path d="M44.411 75.4319L44.3135 80.2564L49.3518 80.364L49.7057 75.8376L44.411 75.4319Z" stroke="#D3AFA9" stroke-width="0.25" stroke-miterlimit="10"/>
<path d="M51.2915 69.1169L51.7179 72.5973H55.7028L55.9592 69.1169H51.2915Z" fill="#5DD8CC"/>
<path d="M50.8013 68.7498L51.3196 72.9615H56.1405L56.4498 68.7498H50.8013Z" stroke="#D3AFA9" stroke-width="0.25" stroke-miterlimit="10"/>
<path d="M51.2915 76.0391L51.7179 79.5194H55.7028L55.9592 76.0391H51.2915Z" fill="#5DD8CC"/>
<path d="M50.8013 75.6746L51.3196 79.8863H56.1405L56.4498 75.6746H50.8013Z" stroke="#D3AFA9" stroke-width="0.25" stroke-miterlimit="10"/>
<path d="M31.2222 85.5582L32.479 94.622L35.1904 94.3184L34.399 85.2021L31.2222 85.5582Z" fill="#5DD8CC"/>
<path d="M30.7148 85.0806L32.1695 95.1905L35.6417 94.8014L34.7834 84.6252L30.7148 85.0806Z" stroke="#D3AFA9" stroke-width="0.25" stroke-miterlimit="10"/>
<path d="M32.3311 85.434L33.0221 94.5613L33.6742 94.4868L33.2729 85.3291L32.3311 85.434Z" fill="#88EDE1"/>
<path d="M31.2222 85.5582L31.264 85.7293L34.0729 85.4174L34.856 94.3571L35.1904 94.3184L34.399 85.2021L31.2222 85.5582Z" fill="#D0DAE2"/>
<path d="M39.1862 68.8271L38.4478 72.5973H39.4036L40.3427 68.9072L39.1862 68.8271Z" fill="#88EDE1"/>
<path d="M39.6044 76.1025L39.1836 79.9086L40.0252 79.8451L40.7163 76.1025H39.6044Z" fill="#88EDE1"/>
<path d="M46.5154 69.1169L45.9106 72.7408H46.3621L46.9779 69.1169H46.5154Z" fill="#88EDE1"/>
<path d="M46.5569 76.1604L45.7905 79.7567L47.4124 79.8202L48.07 76.2763L46.5569 76.1604Z" fill="#88EDE1"/>
<path d="M52.9078 69.1169L52.3672 72.5973H52.9078L53.4791 69.1169H52.9078Z" fill="#88EDE1"/>
<path d="M54.1088 69.1169L53.479 72.5973H54.5881L55.1287 69.1169H54.1088Z" fill="#88EDE1"/>
<path d="M52.9216 76.0391L52.5176 79.5194H53.479L54.3038 76.0391H52.9216Z" fill="#88EDE1"/>
<path d="M37.2827 68.6919L37.3078 69.0397L41.1395 69.3074V72.5973H41.524V68.99L37.2827 68.6919Z" fill="#FFE8D8"/>
<path d="M51.2915 69.1169L51.3417 69.5337H55.5105L55.282 72.5973H55.7028L55.9592 69.1169H51.2915Z" fill="#FFE8D8"/>
<path d="M41.3791 76.591L41.6271 79.7209L42.1203 79.6822L41.8389 76.0859L37.5864 76.1163L37.6645 76.6186L41.3791 76.591Z" fill="#FFE8D8"/>
<path d="M51.2915 76.0391L51.3222 76.2957H55.4492L55.2123 79.5194H55.7028L55.9592 76.0391H51.2915Z" fill="#FFE8D8"/>
<path d="M25.1748 91.6192L59.3923 88.0505" stroke="#CF0E00" stroke-width="2" stroke-miterlimit="10"/>
<path d="M51.0015 89.7783L49.0425 90.1564L49.2125 90.4573L51.0015 90.3386V89.7783Z" fill="#F4E3DF"/>
<path d="M44.9126 85.0145L45.3696 88.2271L49.4242 87.9015L49.2737 86.7699L51.1352 86.2951V84.2417L44.9126 85.0145Z" stroke="#D0DAE2" stroke-width="0.5" stroke-miterlimit="10"/>
<path d="M46.1221 92.7783H51.6174L51.7651 96.6147L46.7212 97.1502L46.1221 92.7783Z" stroke="#D0DAE2" stroke-width="0.5" stroke-miterlimit="10"/>
<path d="M58.2775 67.185L58.2831 67.5714L35.229 67.036C35.229 67.036 35.385 93.4961 40.9862 94.8429C46.5902 96.1871 57.762 94.6222 57.762 94.6222L57.6951 98.1605L31.4085 100.184L28.5688 82.7542L34.981 81.6833L34.4097 65.5042L58.2775 67.185Z" fill="#FFC69C"/>
<path d="M29.3966 100.835L27.7441 91.6191" stroke="#CF0E00" stroke-miterlimit="10"/>
<path d="M40.1446 99.5295L39.186 90.1565" stroke="#CF0E00" stroke-miterlimit="10"/>
<path d="M54.3789 98.1605V88.5723" stroke="#CF0E00" stroke-miterlimit="10"/>
<path d="M145.787 97.3599L184.193 93.7913" stroke="#CF0E00" stroke-width="2" stroke-miterlimit="10"/>
<path d="M150.522 106.576L148.669 97.3601" stroke="#CF0E00" stroke-miterlimit="10"/>
<path d="M162.588 105.27L161.513 95.8999" stroke="#CF0E00" stroke-miterlimit="10"/>
<path d="M178.564 103.904V94.313" stroke="#CF0E00" stroke-miterlimit="10"/>
<path d="M170.948 104.677L169.716 95.1355" stroke="#CF0E00" stroke-miterlimit="10"/>
<path d="M174.306 153.004H46.1918L43.6309 140.424L174.306 137.256C178.645 137.256 180.657 138.997 180.657 143.229C180.66 149.436 177.324 153.004 174.306 153.004Z" fill="#9F0B00"/>
<path d="M176.123 147.501H55.416C52.3395 147.501 49.6894 145.345 49.093 142.356C48.9537 141.652 48.9342 140.96 49.0233 140.292L43.6367 140.421L46.1977 153.002H174.306C177.096 153.002 180.156 149.949 180.599 144.581C179.386 146.48 177.712 147.501 176.123 147.501Z" fill="#A5A5A5"/>
<path d="M175.482 138.837C177.519 138.837 179.041 139.221 180.094 140.049C179.225 138.103 177.332 137.253 174.309 137.253L43.6338 140.421L43.9543 141.997L175.482 138.837Z" fill="white"/>
<path d="M174.306 137.253C174.306 137.253 170.237 136.914 170.237 133.64C170.237 130.367 188.735 123.409 181.888 102.828L146.456 105.088C146.456 105.088 146.935 116.153 136.246 116.153C125.556 116.153 63.6363 116.065 63.6363 116.065L61.2035 100.719L25.8909 102.772C25.8909 102.772 21.2065 125.791 35.8003 131.234C50.394 136.676 45.5285 140.292 45.5285 140.292L174.306 137.253Z" fill="url(#paint8_linear_541_15519)"/>
<path d="M76.0288 135.912L59.7826 137.397L59.5039 139.963L76.419 139.563L76.0288 135.912Z" fill="#F97A69"/>
<path d="M181.889 102.83L180.635 102.91C187.406 123.428 168.959 130.375 168.959 133.643C168.959 136.914 173.027 137.256 173.027 137.256L45.5678 140.264C45.5427 140.284 45.5288 140.295 45.5288 140.295L174.306 137.256C174.306 137.256 170.238 136.916 170.238 133.643C170.238 130.37 188.736 123.412 181.889 102.83Z" fill="white"/>
<path d="M170.237 133.643C170.237 133.014 170.923 132.249 171.976 131.278C157.051 134.383 137.327 135.329 115.705 135.785C52.6568 137.112 40.1586 121.427 38.325 102.049L25.8909 102.772C25.8909 102.772 21.2065 125.791 35.8003 131.234C50.394 136.676 45.5285 140.292 45.5285 140.292L174.306 137.253C174.306 137.253 170.237 136.914 170.237 133.643Z" fill="url(#paint9_linear_541_15519)"/>
<path d="M181.889 102.83L146.456 105.091C146.456 105.091 146.936 116.156 136.246 116.156C126.114 116.156 69.9707 116.076 64.1299 116.067L64.5953 118.444C65.2167 118.444 126.874 118.532 137.205 118.532C140.568 118.532 143.299 117.494 145.319 115.449C147.894 112.844 148.597 109.283 148.786 107.362L182.446 104.685C182.285 104.081 182.101 103.462 181.889 102.83Z" fill="#FFC69C"/>
<path d="M63.6363 117.492C64.2577 117.492 125.915 117.58 136.246 117.58C139.609 117.58 142.34 116.542 144.36 114.497C146.935 111.892 147.638 108.331 147.827 106.41L182.964 103.617C183.756 103.554 184.346 102.866 184.285 102.082C184.221 101.299 183.53 100.711 182.736 100.774L146.342 103.669L144.996 103.78L145.018 105.118C145.018 105.165 145.063 109.728 142.293 112.515C140.835 113.984 138.801 114.729 136.248 114.729C125.918 114.729 63.4496 114.638 62.8281 114.638L63.0789 114.64L63.6363 117.492Z" fill="#FFE8D8"/>
<path d="M183.268 100.835C183.296 100.931 183.318 101.028 183.327 101.133C183.391 101.917 182.8 102.607 182.006 102.667L146.869 105.46C146.679 107.381 145.977 110.939 143.402 113.547C141.382 115.592 138.651 116.63 135.287 116.63C125.587 116.63 70.6477 116.553 63.4497 116.542L63.6364 117.491C64.2578 117.491 125.916 117.58 136.246 117.58C139.609 117.58 142.34 116.542 144.361 114.497C146.935 111.891 147.638 108.331 147.827 106.41L182.964 103.617C183.756 103.553 184.346 102.866 184.285 102.082C184.235 101.481 183.817 101 183.268 100.835Z" fill="#FED5B7"/>
<path d="M61.3738 101.779L61.541 102.83L25.4927 105.833L25.7323 103.396L61.3738 101.779Z" fill="#FFC69C"/>
<path d="M106.64 120.883C106.64 121.041 106.509 121.171 106.35 121.171C106.192 121.171 106.061 121.041 106.061 120.883C106.061 120.726 106.192 120.596 106.35 120.596C106.509 120.596 106.64 120.726 106.64 120.883Z" fill="#F25D44"/>
<path d="M122.273 121.562C122.273 121.733 122.131 121.874 121.958 121.874C121.786 121.874 121.644 121.733 121.644 121.562C121.644 121.391 121.786 121.25 121.958 121.25C122.131 121.25 122.273 121.388 122.273 121.562Z" fill="#F25D44"/>
<path d="M47.5935 98.9331L46.4956 89.3945" stroke="#CF0E00" stroke-miterlimit="10"/>
<path d="M25.1748 100.004L24.7095 103.484L62.0954 101.746L60.925 96.8826L25.1748 100.004Z" fill="#FFE8D8"/>
<path d="M24.8377 102.529L24.7095 103.484L62.0954 101.746L61.8697 100.804L24.8377 102.529Z" fill="#FED5B7"/>
<path d="M153.122 116.142C154.91 116.142 156.36 114.706 156.36 112.935C156.36 111.163 154.91 109.728 153.122 109.728C151.334 109.728 149.884 111.163 149.884 112.935C149.884 114.706 151.334 116.142 153.122 116.142Z" fill="#F4E3DF"/>
<path d="M152.832 116.84C154.62 116.84 156.07 115.404 156.07 113.633C156.07 111.862 154.62 110.426 152.832 110.426C151.043 110.426 149.594 111.862 149.594 113.633C149.594 115.404 151.043 116.84 152.832 116.84Z" fill="#FFC69C"/>
<path d="M153.122 116.142C154.91 116.142 156.36 114.706 156.36 112.935C156.36 111.163 154.91 109.728 153.122 109.728C151.334 109.728 149.884 111.163 149.884 112.935C149.884 114.706 151.334 116.142 153.122 116.142Z" fill="#F4E3DF"/>
<path d="M153.415 115.62C151.625 115.62 150.176 114.185 150.176 112.413C150.176 111.952 150.277 111.516 150.452 111.121C150.093 111.637 149.884 112.261 149.884 112.935C149.884 114.707 151.333 116.142 153.122 116.142C154.446 116.142 155.583 115.355 156.084 114.226C155.499 115.068 154.524 115.62 153.415 115.62Z" fill="#EDDCD9"/>
<path d="M154.928 112.703C154.928 113.564 154.223 114.26 153.356 114.26C152.486 114.26 151.784 113.561 151.784 112.703C151.784 111.842 152.489 111.146 153.356 111.146C154.225 111.146 154.928 111.842 154.928 112.703Z" fill="#EDDCD9"/>
<path d="M154.459 112.935C154.459 113.666 153.86 114.259 153.122 114.259C152.383 114.259 151.784 113.666 151.784 112.935C151.784 112.203 152.383 111.61 153.122 111.61C153.86 111.61 154.459 112.203 154.459 112.935Z" fill="#F25D44"/>
<path d="M154.459 112.935C154.459 113.666 153.86 114.259 153.122 114.259C152.383 114.259 151.784 113.666 151.784 112.935C151.784 112.203 152.383 111.61 153.122 111.61C153.86 111.61 154.459 112.203 154.459 112.935Z" fill="#EDDCD9"/>
<path d="M153.18 126.136C150.55 125.868 150.045 122.945 150.04 122.918C150.026 122.832 150.084 122.749 150.171 122.735C150.257 122.722 150.341 122.78 150.355 122.865C150.374 122.976 150.828 125.575 153.214 125.818C155.582 126.061 156.271 123.014 156.276 122.984C156.296 122.898 156.382 122.843 156.466 122.862C156.552 122.882 156.608 122.965 156.588 123.05C156.583 123.086 155.833 126.406 153.18 126.136Z" fill="#FFC69C"/>
<path d="M153.18 126.136C153.097 126.128 153.035 126.056 153.038 125.973L153.222 120.147C153.225 120.058 153.297 119.989 153.387 119.992C153.476 119.995 153.545 120.067 153.543 120.155L153.359 125.981C153.356 126.07 153.283 126.139 153.194 126.136C153.189 126.139 153.186 126.136 153.18 126.136Z" fill="#FFC69C"/>
<path d="M153.339 120.558C152.807 120.503 152.417 120.031 152.473 119.503C152.528 118.976 153.005 118.59 153.537 118.645C154.069 118.7 154.459 119.172 154.404 119.699C154.348 120.227 153.871 120.613 153.339 120.558ZM153.504 118.96C153.147 118.924 152.826 119.181 152.79 119.534C152.754 119.887 153.013 120.205 153.37 120.24C153.727 120.276 154.047 120.02 154.083 119.666C154.122 119.313 153.86 118.998 153.504 118.96Z" fill="#FFC69C"/>
<path d="M153.431 119.04C153.398 119.037 153.367 119.018 153.353 118.985L153.228 118.64C153.211 118.595 153.236 118.549 153.281 118.532C153.32 118.518 153.362 118.535 153.381 118.565C153.392 118.549 153.412 118.537 153.434 118.532L153.228 114.188C153.225 114.141 153.261 114.102 153.309 114.099C153.364 114.094 153.395 114.133 153.398 114.179L153.624 118.951C153.626 118.996 153.593 119.032 153.551 119.037C153.526 119.04 153.501 119.034 153.484 119.02C153.473 119.029 153.459 119.034 153.445 119.037C153.442 119.04 153.437 119.04 153.431 119.04Z" fill="#FFC69C"/>
<path d="M154.459 112.935C154.459 113.666 153.86 114.259 153.122 114.259C152.383 114.259 151.784 113.666 151.784 112.935C151.784 112.203 152.383 111.61 153.122 111.61C153.86 111.61 154.459 112.203 154.459 112.935Z" fill="#EDDCD9"/>
<path d="M154.459 112.935C154.459 113.666 153.86 114.259 153.122 114.259C152.383 114.259 151.784 113.666 151.784 112.935C151.784 112.203 152.383 111.61 153.122 111.61C153.86 111.61 154.459 112.203 154.459 112.935Z" fill="#EDDCD9"/>
<path d="M153.766 125.827C151.127 125.675 150.488 122.78 150.483 122.749C150.463 122.664 150.519 122.581 150.606 122.561C150.692 122.545 150.775 122.597 150.795 122.683C150.817 122.793 151.389 125.371 153.782 125.509C156.159 125.647 156.708 122.573 156.714 122.542C156.728 122.457 156.811 122.399 156.898 122.412C156.984 122.426 157.043 122.509 157.029 122.595C157.026 122.628 156.427 125.978 153.766 125.827Z" fill="white"/>
<path d="M153.765 125.827C153.682 125.821 153.615 125.755 153.615 125.669L153.534 119.84C153.534 119.752 153.604 119.68 153.693 119.68C153.782 119.677 153.855 119.749 153.855 119.837L153.933 125.666C153.933 125.755 153.863 125.827 153.774 125.827C153.774 125.827 153.768 125.827 153.765 125.827Z" fill="white"/>
<path d="M153.671 120.246C153.136 120.215 152.726 119.76 152.757 119.23C152.788 118.7 153.247 118.294 153.782 118.325C154.318 118.355 154.727 118.811 154.697 119.341C154.666 119.87 154.206 120.276 153.671 120.246ZM153.766 118.642C153.406 118.623 153.1 118.893 153.077 119.249C153.058 119.605 153.331 119.909 153.691 119.931C154.05 119.95 154.357 119.68 154.379 119.324C154.398 118.968 154.125 118.662 153.766 118.642Z" fill="white"/>
<path d="M153.668 118.725C153.635 118.725 153.607 118.706 153.593 118.675L153.462 118.355C153.445 118.314 153.465 118.27 153.506 118.253C153.543 118.239 153.582 118.25 153.601 118.281C153.612 118.264 153.629 118.253 153.648 118.248L153.275 114.155C153.272 114.11 153.303 114.072 153.348 114.069C153.398 114.061 153.431 114.097 153.434 114.141L153.844 118.637C153.846 118.678 153.818 118.714 153.779 118.722C153.757 118.728 153.735 118.722 153.715 118.709C153.704 118.717 153.693 118.722 153.679 118.725C153.676 118.722 153.671 118.725 153.668 118.725Z" fill="#CECECE"/>
<path d="M34.9811 81.6859L27.354 82.9334V82.3097L34.9811 81.4016V81.6859Z" fill="#FFC69C"/>
<path d="M39.2056 132.622C39.657 132.826 40.0862 133.025 40.4846 133.223L173.662 129.779C173.899 129.569 174.144 129.351 174.395 129.125L39.2056 132.622Z" fill="#FFC69C"/>
<path d="M42.6948 134.435C43.032 134.642 43.3385 134.846 43.62 135.045L171.492 131.739C171.704 131.532 171.935 131.313 172.188 131.087L42.6948 134.435Z" fill="#FFC69C"/>
<path d="M44.4194 151.23C44.4194 151.23 47.5267 151.01 52.3755 150.513C56.2072 150.121 59.916 148.928 61.8527 149.342C63.7894 149.756 64.8708 152.474 67.5906 152.369C70.3104 152.265 73.4349 148.077 78.0385 149.342C82.642 150.606 89.5871 148.651 92.201 148.596C94.8177 148.541 97.0417 151.081 99.7615 150.513C102.481 149.944 107.03 149.954 113.936 152.016C120.841 154.081 125.86 147.387 130.003 147.105C133.818 146.846 137.525 151.955 140.403 151.903C143.279 151.851 144.617 147.821 146.083 148.596C147.548 149.374 147.309 152.524 149.087 152.162C150.865 151.801 159.447 147.509 162.588 148.596C165.726 149.684 170.521 150.127 173.556 149.661C176.59 149.195 175.972 153.054 178.38 152.265C180.788 151.475 178.862 153.871 178.862 153.871L44.4194 155.372V151.23Z" fill="#8BEAE1"/>
<path d="M121.26 149.168C121.26 149.753 120.78 150.228 120.19 150.228C119.599 150.228 119.12 149.753 119.12 149.168C119.12 148.583 119.599 148.108 120.19 148.108C120.78 148.108 121.26 148.583 121.26 149.168Z" fill="#8BEAE1"/>
<path d="M132.024 148.505C132.024 148.61 131.937 148.696 131.831 148.696C131.726 148.696 131.639 148.61 131.639 148.505C131.639 148.401 131.726 148.315 131.831 148.315C131.937 148.318 132.024 148.401 132.024 148.505Z" fill="#8BEAE1"/>
<path d="M141.715 149.256C141.715 149.651 141.392 149.971 140.994 149.971C140.595 149.971 140.272 149.651 140.272 149.256C140.272 148.861 140.595 148.541 140.994 148.541C141.389 148.539 141.715 148.859 141.715 149.256Z" fill="#8BEAE1"/>
<path d="M149.005 150.766C149.248 150.766 149.445 150.571 149.445 150.33C149.445 150.089 149.248 149.894 149.005 149.894C148.762 149.894 148.564 150.089 148.564 150.33C148.564 150.571 148.762 150.766 149.005 150.766Z" fill="#8BEAE1"/>
<path d="M152.463 149.256C152.463 149.375 152.366 149.468 152.249 149.468C152.132 149.468 152.034 149.372 152.034 149.256C152.034 149.137 152.132 149.043 152.249 149.043C152.366 149.043 152.463 149.137 152.463 149.256Z" fill="#8BEAE1"/>
<path d="M177.926 151.9C177.926 152.174 177.703 152.394 177.427 152.394C177.151 152.394 176.928 152.174 176.928 151.9C176.928 151.627 177.151 151.406 177.427 151.406C177.703 151.406 177.926 151.627 177.926 151.9Z" fill="#8BEAE1"/>
<path d="M176.128 151.445C176.128 151.594 176.006 151.718 175.853 151.718C175.702 151.718 175.577 151.597 175.577 151.445C175.577 151.296 175.699 151.172 175.853 151.172C176.006 151.172 176.128 151.296 176.128 151.445Z" fill="#8BEAE1"/>
<path d="M114.875 150.821C114.875 151.15 114.607 151.415 114.275 151.415C113.944 151.415 113.676 151.15 113.676 150.821C113.676 150.493 113.944 150.228 114.275 150.228C114.604 150.228 114.875 150.493 114.875 150.821Z" fill="#8BEAE1"/>
<path d="M117.19 150.766C117.19 150.884 117.093 150.978 116.976 150.978C116.856 150.978 116.761 150.882 116.761 150.766C116.761 150.647 116.859 150.553 116.976 150.553C117.096 150.551 117.19 150.647 117.19 150.766Z" fill="#8BEAE1"/>
<path d="M82.1009 151.207C82.1009 151.572 81.8027 151.864 81.4376 151.864C81.0698 151.864 80.7744 151.569 80.7744 151.207C80.7744 150.843 81.0726 150.551 81.4376 150.551C81.8027 150.551 82.1009 150.846 82.1009 151.207Z" fill="#8BEAE1"/>
<path d="M84.082 150.766C84.082 150.884 83.9844 150.978 83.8674 150.978C83.7476 150.978 83.6528 150.882 83.6528 150.766C83.6528 150.647 83.7504 150.553 83.8674 150.553C83.9844 150.551 84.082 150.647 84.082 150.766Z" fill="#8BEAE1"/>
<path d="M59.1638 150.371C59.4501 150.371 59.6821 150.141 59.6821 149.858C59.6821 149.574 59.4501 149.344 59.1638 149.344C58.8776 149.344 58.6455 149.574 58.6455 149.858C58.6455 150.141 58.8776 150.371 59.1638 150.371Z" fill="#8BEAE1"/>
<path d="M56.1989 151.437C56.3866 151.437 56.5388 151.286 56.5388 151.1C56.5388 150.914 56.3866 150.763 56.1989 150.763C56.0111 150.763 55.8589 150.914 55.8589 151.1C55.8589 151.286 56.0111 151.437 56.1989 151.437Z" fill="#8BEAE1"/>
<path d="M47.3118 147.096C47.3118 147.46 47.0136 147.752 46.6486 147.752C46.2807 147.752 45.9854 147.457 45.9854 147.096C45.9854 146.731 46.2835 146.439 46.6486 146.439C47.0164 146.439 47.3118 146.734 47.3118 147.096Z" fill="#8BEAE1"/>
<path d="M48.8139 152.127C48.8139 152.27 48.6969 152.386 48.552 152.386C48.4071 152.386 48.29 152.27 48.29 152.127C48.29 151.983 48.4071 151.867 48.552 151.867C48.6969 151.867 48.8139 151.983 48.8139 152.127Z" fill="#8BEAE1"/>
<path d="M67.3023 148.214C67.3023 148.745 66.8672 149.168 66.3389 149.168C65.8028 149.168 65.3755 148.737 65.3755 148.214C65.3755 147.683 65.8106 147.26 66.3389 147.26C66.8672 147.26 67.3023 147.69 67.3023 148.214Z" fill="#8BEAE1"/>
<path d="M30.6643 159.576C32.8741 159.694 35.0784 159.824 37.2882 159.912C39.4952 160.028 41.7023 160.139 43.9093 160.233L45.5646 160.302L47.2199 160.387L50.5304 160.55L57.1544 160.831L63.7755 161.157C65.9825 161.268 68.1923 161.331 70.3994 161.469L77.0233 161.809C79.2303 161.947 81.4402 162.051 83.6472 162.217H83.65C83.6667 162.217 83.6778 162.231 83.6751 162.247C83.6751 162.261 83.6611 162.272 83.6472 162.272L77.0149 162.098L70.3854 161.894C65.9658 161.742 61.5461 161.582 57.1293 161.378C52.7124 161.174 48.2955 160.939 43.8815 160.658C39.4674 160.373 35.0561 160.07 30.6559 159.625C30.642 159.623 30.6309 159.612 30.6309 159.595C30.6364 159.587 30.6476 159.576 30.6643 159.576Z" fill="#8BEAE1"/>
<path d="M27.5769 149.858C26.5904 150.048 25.6067 150.206 24.623 150.357L21.672 150.805L18.7209 151.238C17.7372 151.381 16.7535 151.539 15.7559 151.66C16.6978 151.312 17.6619 151.039 18.6373 150.813C19.6126 150.587 20.5991 150.404 21.5884 150.255C22.5804 150.115 23.5725 149.996 24.5729 149.927C25.5705 149.861 26.5709 149.822 27.5769 149.858Z" fill="#8BEAE1"/>
<path d="M52.0049 162.634C53.6964 162.661 55.3851 162.719 57.071 162.78C58.7598 162.841 60.4457 162.929 62.1316 163.001C63.8176 163.095 65.5035 163.178 67.1894 163.285L69.7169 163.451C70.5585 163.517 71.4029 163.572 72.2444 163.644C71.4001 163.633 70.5557 163.605 69.7114 163.586L67.1783 163.498C65.4896 163.434 63.8036 163.351 62.1149 163.277C60.429 163.18 58.7403 163.1 57.0543 162.993C55.3712 162.888 53.688 162.775 52.0049 162.634Z" fill="#8BEAE1"/>
<path d="M190.566 150.747C191.411 150.821 192.25 150.951 193.086 151.105C193.922 151.257 194.746 151.45 195.566 151.685C196.379 151.925 197.193 152.193 197.954 152.588C198.333 152.786 198.706 153.007 199.021 153.305C199.18 153.451 199.303 153.639 199.389 153.838C199.461 154.048 199.442 154.274 199.353 154.464C199.411 154.26 199.4 154.05 199.319 153.865C199.219 153.689 199.094 153.529 198.926 153.404C198.612 153.14 198.238 152.946 197.859 152.778C197.096 152.441 196.293 152.182 195.485 151.95C194.677 151.713 193.857 151.514 193.038 151.312C192.629 151.21 192.216 151.119 191.804 151.028L190.566 150.747Z" fill="#8BEAE1"/>
<path d="M27.1338 155.783C28.6553 155.828 30.1685 155.927 31.6816 156.07C32.4368 156.148 33.1892 156.253 33.9472 156.316C34.7024 156.388 35.4631 156.427 36.2211 156.457C37.7399 156.515 39.2558 156.6 40.7717 156.697C42.2849 156.81 43.8009 156.932 45.3112 157.103C45.3196 157.103 45.3252 157.111 45.3224 157.119C45.3224 157.128 45.3168 157.13 45.3084 157.13C43.7869 157.133 42.2682 157.075 40.7522 156.99C39.2363 156.893 37.7203 156.769 36.21 156.606C35.4548 156.529 34.6996 156.451 33.9388 156.41C33.1809 156.355 32.4201 156.341 31.6621 156.297C30.1462 156.195 28.6358 156.04 27.131 155.808C27.1227 155.808 27.1171 155.8 27.1199 155.792C27.1199 155.786 27.1254 155.783 27.1338 155.783Z" fill="#F2FCFB"/>
<path d="M106.141 152.372C107.069 152.287 108.003 152.303 108.934 152.356C109.861 152.419 110.789 152.519 111.706 152.69C112.62 152.864 113.523 153.093 114.42 153.333C114.869 153.451 115.312 153.595 115.764 153.694C115.989 153.747 116.215 153.794 116.438 153.841C116.664 153.89 116.895 153.89 117.124 153.918C118.966 154.081 120.802 153.741 122.583 153.291C124.36 152.803 126.105 152.176 127.788 151.401C127.794 151.398 127.802 151.401 127.808 151.406C127.81 151.412 127.808 151.42 127.802 151.426C126.194 152.356 124.458 153.065 122.661 153.567C121.758 153.81 120.841 154.001 119.91 154.092C119.679 154.128 119.445 154.133 119.211 154.147C118.977 154.155 118.743 154.177 118.508 154.172C118.04 154.152 117.572 154.152 117.11 154.07C116.878 154.031 116.644 154.02 116.418 153.959C116.193 153.901 115.967 153.843 115.739 153.791C115.287 153.681 114.85 153.529 114.395 153.427C113.498 153.195 112.581 153.054 111.667 152.916C109.839 152.632 107.997 152.438 106.144 152.4C106.136 152.4 106.13 152.394 106.13 152.386C106.127 152.378 106.133 152.372 106.141 152.372Z" fill="#F2FCFB"/>
<path d="M158.606 151.9C158.871 151.668 159.208 151.522 159.556 151.445C159.907 151.362 160.272 151.359 160.629 151.409C160.983 151.475 161.329 151.586 161.638 151.757C161.797 151.834 161.939 151.944 162.084 152.038C162.22 152.149 162.351 152.265 162.477 152.386C162.315 152.314 162.165 152.232 162.011 152.154C161.852 152.091 161.702 152.008 161.543 151.953C161.231 151.829 160.908 151.74 160.582 151.682C159.93 151.583 159.252 151.638 158.606 151.9Z" fill="#F2FCFB"/>
<path d="M148.443 158.088C150.291 157.942 152.141 157.848 153.994 157.796C154.919 157.776 155.847 157.782 156.772 157.746C157.698 157.718 158.623 157.655 159.545 157.586C161.393 157.442 163.24 157.313 165.088 157.199C166.935 157.081 168.783 156.981 170.636 156.893C170.645 156.893 170.65 156.899 170.65 156.907C170.65 156.915 170.645 156.921 170.639 156.921C168.803 157.177 166.955 157.354 165.107 157.484C164.182 157.553 163.257 157.6 162.332 157.641C161.407 157.688 160.479 157.716 159.554 157.738C158.628 157.76 157.7 157.787 156.775 157.843C155.85 157.887 154.928 157.972 154.003 158.025C152.152 158.119 150.299 158.157 148.443 158.116C148.435 158.116 148.429 158.11 148.429 158.102C148.429 158.094 148.435 158.088 148.443 158.088Z" fill="#F2FCFB"/>
<path d="M169.909 159.838L171.595 159.647L173.281 159.476L176.655 159.148L183.407 158.516C182.295 158.734 181.175 158.897 180.055 159.046C178.932 159.192 177.806 159.305 176.68 159.424C175.552 159.518 174.426 159.617 173.297 159.686C172.171 159.758 171.04 159.816 169.909 159.838Z" fill="#8BEAE1"/>
<defs>
<linearGradient id="paint0_linear_541_15519" x1="123.301" y1="99.1042" x2="123.301" y2="115.115" gradientUnits="userSpaceOnUse">
<stop stop-color="#EA454B"/>
<stop offset="1" stop-color="#FE9434"/>
</linearGradient>
<linearGradient id="paint1_linear_541_15519" x1="120.182" y1="102.557" x2="120.182" y2="108.207" gradientUnits="userSpaceOnUse">
<stop stop-color="#EE5646"/>
<stop offset="1" stop-color="#F98139"/>
</linearGradient>
<linearGradient id="paint2_linear_541_15519" x1="124.054" y1="102.557" x2="124.054" y2="111.19" gradientUnits="userSpaceOnUse">
<stop stop-color="#EE5646"/>
<stop offset="1" stop-color="#F98139"/>
</linearGradient>
<linearGradient id="paint3_linear_541_15519" x1="127.957" y1="108.875" x2="127.957" y2="111.406" gradientUnits="userSpaceOnUse">
<stop stop-color="#EE5646"/>
<stop offset="1" stop-color="#F98139"/>
</linearGradient>
<linearGradient id="paint4_linear_541_15519" x1="93.3117" y1="78.7024" x2="93.3117" y2="94.7104" gradientUnits="userSpaceOnUse">
<stop stop-color="#E03E41"/>
<stop offset="1" stop-color="#FD9135"/>
</linearGradient>
<linearGradient id="paint5_linear_541_15519" x1="90.1919" y1="82.155" x2="90.1919" y2="87.8047" gradientUnits="userSpaceOnUse">
<stop stop-color="#E6503E"/>
<stop offset="1" stop-color="#F67D38"/>
</linearGradient>
<linearGradient id="paint6_linear_541_15519" x1="94.0637" y1="82.155" x2="94.0637" y2="90.7856" gradientUnits="userSpaceOnUse">
<stop stop-color="#E6503E"/>
<stop offset="1" stop-color="#F67D38"/>
</linearGradient>
<linearGradient id="paint7_linear_541_15519" x1="97.9667" y1="88.4729" x2="97.9667" y2="91.0038" gradientUnits="userSpaceOnUse">
<stop stop-color="#E6503E"/>
<stop offset="1" stop-color="#F67D38"/>
</linearGradient>
<linearGradient id="paint8_linear_541_15519" x1="41.0928" y1="112.711" x2="183.408" y2="114.879" gradientUnits="userSpaceOnUse">
<stop stop-color="#E9424C"/>
<stop offset="1" stop-color="#FF9534"/>
</linearGradient>
<linearGradient id="paint9_linear_541_15519" x1="26.5009" y1="119.12" x2="174.295" y2="128.481" gradientUnits="userSpaceOnUse">
<stop stop-color="#E9424C"/>
<stop offset="1" stop-color="#FE9235"/>
</linearGradient>
</defs>
</svg>
