<svg width="209" height="209" viewBox="0 0 209 209" fill="none" xmlns="http://www.w3.org/2000/svg">
<g clip-path="url(#clip0_540_15270)">
<path d="M93.6563 20.4762C88.9311 20.3097 84.3129 20.901 79.8028 22.2501C60.0565 28.305 47.7617 47.9406 49.0203 68.2705C49.6457 78.3796 53.1631 87.3594 59.5728 95.2098L52.8005 96.1462C52.2542 95.5921 51.693 94.9558 51.1175 94.2383C37.9309 77.7893 37.5152 54.3855 49.9354 37.4444C55.7896 29.5709 64.0037 23.845 73.5158 21.3581C76.8132 20.5017 80.2032 20.0697 83.6859 20.0619C86.5524 20.0562 89.2523 20.1101 91.7857 20.2236C92.0728 20.2361 92.3847 20.2717 92.7225 20.3304C93.0257 20.3834 93.3371 20.4319 93.6563 20.4762Z" fill="#F16142"/>
<path d="M93.6562 20.4762C100.268 20.8197 106.412 22.596 112.088 25.805C128.353 34.9993 136.695 53.551 134.265 71.808C133.414 78.2073 131.305 84.1897 127.939 89.7566L126.826 89.456C129.831 84.6159 131.84 79.4318 132.851 73.9026C134.262 66.1903 133.757 58.6151 131.337 51.1781C126.621 36.6866 114.561 25.2811 99.4932 22.315C95.8119 21.5914 92.0442 21.3985 88.1902 21.7362C87.2936 21.8151 86.3392 21.9387 85.3268 22.1071C83.842 22.3554 82.3666 22.6571 80.901 23.0121C80.7608 23.0458 80.6677 23.0487 80.6227 23.0208C80.2761 22.8053 80.0029 22.5483 79.8027 22.25C84.3128 20.901 88.931 20.3097 93.6562 20.4762Z" fill="#FF7400"/>
<path d="M126.827 89.4562L126.391 89.3393L125.554 89.136C131.301 79.7615 133.395 69.6369 131.835 58.7616C130.982 52.8119 128.782 47.0139 125.594 41.9578C115.101 25.3287 94.6786 18.3486 76.4847 26.0619C75.5965 26.4382 74.7279 26.8496 73.8779 27.296C65.0115 31.9581 58.3674 39.4997 54.5009 48.7373C54.4973 48.7463 54.4957 48.7561 54.4963 48.7658C54.4968 48.7755 54.4999 48.7849 54.5051 48.7932C54.5097 48.8015 54.5164 48.8085 54.5247 48.8135C54.5325 48.8186 54.5418 48.8217 54.5516 48.8224C54.5656 48.8244 54.578 48.8215 54.5873 48.8138C50.2054 59.8527 50.1765 70.9054 54.5009 81.9725C54.4875 81.9725 54.4751 81.9767 54.4632 81.9855C54.4383 82.0036 54.4316 82.0274 54.443 82.0558C56.3695 86.7459 59.0394 90.9999 62.4522 94.8167L59.5728 95.2094C53.1631 87.3595 49.6459 78.3797 49.0204 68.2706C47.7618 47.9406 60.0565 28.305 79.8034 22.25C80.0031 22.5483 80.2767 22.8052 80.6228 23.0208C80.6683 23.0487 80.7609 23.0458 80.9017 23.0121C82.3672 22.657 83.8421 22.3554 85.3269 22.1071C86.3393 21.9387 87.2937 21.8151 88.1908 21.7362C92.0444 21.3984 95.812 21.5913 99.4939 22.3149C114.561 25.2811 126.622 36.6866 131.337 51.178C133.757 58.6152 134.262 66.1899 132.851 73.9022C131.84 79.4314 129.832 84.6161 126.827 89.4562Z" fill="#FD9035"/>
<path d="M125.554 89.1358L123.622 88.7111L123.801 88.7085C123.824 88.708 123.846 88.7023 123.866 88.6909C123.885 88.6801 123.902 88.664 123.914 88.6449C130.809 77.7329 132.479 64.1598 128.459 51.9313C125.232 42.115 118.39 33.5068 109.349 28.5748C100.889 23.9598 91.856 22.7099 82.2497 24.8249C69.613 27.8675 59.567 36.8929 54.5872 48.8137C54.5779 48.8214 54.566 48.8243 54.5515 48.8224C54.5417 48.8216 54.5324 48.8186 54.5246 48.8135C54.5164 48.8084 54.5096 48.8014 54.505 48.7931C54.4998 48.7848 54.4967 48.7755 54.4962 48.7657C54.4957 48.756 54.4972 48.7462 54.5008 48.7372C58.3679 39.4996 65.0114 31.9581 73.8778 27.296C74.7278 26.8495 75.5964 26.4381 76.4846 26.0619C94.6785 18.3485 115.1 25.3286 125.594 41.9577C128.782 47.0138 130.982 52.8118 131.835 58.7615C133.395 69.6368 131.301 79.7614 125.554 89.1358Z" fill="#C40E00"/>
<path d="M123.623 88.7117C119.33 87.9187 115.003 87.7231 110.642 88.1256C109.534 88.2285 107.48 88.5032 104.482 88.9497C102.299 83.689 98.9316 79.4298 94.3781 76.1717C93.2074 75.3337 91.9984 74.5535 90.7527 73.8319C89.4542 73.0802 88.1407 72.3182 86.8106 71.5458L89.8044 68.6705C89.8406 68.6358 89.883 68.6255 89.9311 68.64C91.3559 69.0818 92.6161 68.4842 93.1613 67.1118C93.5742 66.0725 93.3564 65.0771 92.5074 64.1268C92.4769 64.0921 92.4578 64.0523 92.45 64.0068C92.4309 63.8878 92.421 63.7699 92.421 63.6535C92.42 58.1569 92.42 52.6608 92.421 47.1642C92.421 46.2967 92.33 45.6371 91.585 45.2229C91.0232 44.9111 90.4681 44.9563 89.9198 45.3586C89.4614 45.6934 89.2322 46.0783 89.2312 46.5132C89.2224 52.25 89.2214 57.9877 89.2281 63.7254C89.2281 64.2116 88.7491 64.5614 88.5804 64.9219C88.2426 65.641 88.211 66.3834 88.4863 67.1506C88.4956 67.1759 88.4971 67.2033 88.4909 67.2297C88.4847 67.2556 88.4713 67.2794 88.4516 67.2975L85.2069 70.4097C82.6089 68.462 81.0755 65.895 80.6068 62.7093C80.3616 61.0435 80.4361 59.3922 80.8309 57.7554C81.5655 54.6944 82.9653 51.9231 84.4609 48.9121C85.5147 46.7904 86.3316 44.6898 86.9115 42.6104C88.7144 36.1469 86.7889 29.965 82.4444 25.0244C82.4242 25.0012 82.3989 24.9897 82.3678 24.9897C82.3518 24.9897 82.3347 24.9897 82.3177 24.9897C82.2845 24.9907 82.2664 24.9748 82.2628 24.942L82.2494 24.8251C91.8556 22.7101 100.889 23.9601 109.349 28.575C118.39 33.507 125.231 42.1153 128.459 51.9319C132.479 64.1599 130.809 77.7335 123.914 88.645C123.902 88.6641 123.885 88.6802 123.866 88.691C123.846 88.7024 123.824 88.7081 123.802 88.7086L123.623 88.7117ZM95.1329 35.1885L95.123 64.2163C95.123 64.2406 95.1303 64.2649 95.1442 64.2851C95.1582 64.3053 95.1779 64.3213 95.2012 64.3301L125.256 75.9839C125.268 75.9886 125.281 75.9907 125.294 75.9901C125.307 75.9896 125.319 75.9865 125.331 75.9808C125.343 75.9751 125.353 75.9669 125.361 75.957C125.369 75.9472 125.375 75.9358 125.379 75.9234C127.423 68.7496 127.357 61.6059 125.181 54.4921C120.961 41.1958 109.395 31.2727 95.2224 30.437C95.2105 30.4362 95.1986 30.4379 95.1872 30.442C95.1758 30.446 95.1655 30.4524 95.1567 30.4606C95.1479 30.4689 95.1406 30.4788 95.136 30.4899C95.1313 30.501 95.1287 30.5129 95.1287 30.525L95.1329 35.1885Z" fill="white"/>
<path d="M82.2496 24.8252L82.2625 24.9421C82.2661 24.9748 82.2842 24.9907 82.3174 24.9898C82.3344 24.9898 82.3515 24.9898 82.3675 24.9898C82.3986 24.9898 82.4239 25.0013 82.4441 25.0244C86.7886 29.965 88.7141 36.147 86.9112 42.6104C86.3313 44.6898 85.5144 46.7904 84.4606 48.9121C82.965 51.9231 81.5652 54.6944 80.8306 57.7555C80.4358 59.3923 80.3613 61.0436 80.6066 62.7094C81.0752 65.8951 82.6086 68.4621 85.2066 70.4098L71.1731 83.8893C68.5327 80.3983 66.7888 76.5391 65.9419 72.312C65.0531 67.878 65.2187 63.4668 66.4385 59.0778C68.1726 52.8378 71.6423 47.8108 76.8482 43.9975C76.8554 43.9923 76.8642 43.9892 76.8735 43.9885C76.8823 43.9879 76.8911 43.9896 76.8994 43.9935C76.9077 43.9975 76.9144 44.0036 76.9196 44.0111C76.9242 44.0187 76.9273 44.0274 76.9278 44.0364C76.9304 44.0913 76.9211 44.1462 76.8989 44.201C76.2263 45.8522 75.5538 47.5135 74.8823 49.185C74.8787 49.1936 74.8772 49.2032 74.8792 49.2125C74.8808 49.2218 74.8854 49.2303 74.8922 49.237C74.8989 49.2436 74.9077 49.2479 74.917 49.2495C74.9263 49.251 74.9361 49.2497 74.9444 49.2456L79.5315 47.2552C79.6231 47.2147 79.6873 47.1484 79.725 47.056L82.9997 38.9082C83.0075 38.8905 83.0075 38.8707 83.0002 38.8529C82.9935 38.8352 82.9795 38.8208 82.9625 38.8129L75.1524 35.3546C75.0996 35.3315 75.0463 35.331 74.9936 35.3532L70.3749 37.3233C70.3666 37.3269 70.3599 37.3321 70.3542 37.3388C70.348 37.3454 70.3438 37.3531 70.3418 37.3616C70.3392 37.37 70.3386 37.3788 70.3402 37.3874C70.3418 37.396 70.3454 37.4043 70.35 37.4114C70.3723 37.4432 70.4038 37.4681 70.4442 37.4865C72.3205 38.3063 74.1891 39.1247 76.0499 39.9416C76.0639 39.9479 76.0758 39.9578 76.0846 39.9703C76.0934 39.9828 76.0986 39.9974 76.0996 40.0126C76.1012 40.0277 76.098 40.0429 76.0913 40.0566C76.0846 40.0703 76.0743 40.0819 76.0618 40.0903C68.035 45.2474 62.8028 53.9366 61.9455 63.4642C61.1825 71.9447 63.3651 79.612 68.4939 86.4671C68.2833 86.6368 68.0816 86.8365 67.8891 87.0662C67.3697 87.6895 67.4851 88.553 68.3164 88.7811C68.8503 88.9265 69.35 88.3321 69.7163 87.9782C71.4199 89.7837 73.3236 91.4526 75.4281 92.9854L63.005 94.7221L62.7583 94.7335C62.7371 94.7345 62.7164 94.7304 62.6967 94.7221C62.677 94.7138 62.6589 94.7014 62.6439 94.6859C59.1541 90.9627 56.4396 86.7252 54.5007 81.9726C50.1762 70.9059 50.2051 59.8527 54.5871 48.814C59.5669 36.8932 69.6128 27.8678 82.2496 24.8252Z" fill="#FFD5AF"/>
<path fill-rule="evenodd" clip-rule="evenodd" d="M125.181 54.492C120.961 41.1956 109.395 31.2724 95.2229 30.4367C95.2105 30.4359 95.1986 30.4376 95.1872 30.4417C95.1758 30.4458 95.1655 30.4521 95.1567 30.4604C95.1479 30.4686 95.1406 30.4786 95.136 30.4897C95.1313 30.5007 95.1287 30.5127 95.1287 30.5248L95.1334 35.1883C95.1334 35.1882 95.1334 35.1884 95.1334 35.1883L95.123 64.2162C95.123 64.2405 95.1308 64.2648 95.1443 64.285C95.1582 64.3052 95.1779 64.3212 95.2012 64.33L125.256 75.9838C125.268 75.9885 125.281 75.9905 125.294 75.99C125.307 75.9895 125.319 75.9864 125.331 75.9807C125.343 75.975 125.353 75.9667 125.361 75.9569C125.37 75.9471 125.375 75.9357 125.379 75.9233C127.423 68.7495 127.357 61.6057 125.181 54.492ZM100.52 40.764C100.521 40.7843 100.521 40.804 100.521 40.8232C100.521 40.8241 100.521 40.825 100.521 40.8259C100.522 40.8319 100.523 40.8368 100.527 40.8406C100.53 40.8449 100.535 40.8478 100.542 40.8492L101.077 40.956C101.119 40.9646 101.157 40.9834 101.19 41.0109C101.396 41.1831 101.631 41.302 101.895 41.3674C101.919 41.3735 101.94 41.3858 101.957 41.4032C101.963 41.4096 101.969 41.4167 101.973 41.4243C101.982 41.4369 101.987 41.4509 101.991 41.4655M111.317 46.5462C111.318 46.5514 111.32 46.5562 111.322 46.5609L111.317 46.5462ZM108.961 45.1951C108.962 45.1977 108.963 45.2003 108.964 45.2029L108.961 45.1951Z" fill="#FD9035"/>
<path d="M71.1731 83.8892L68.4944 86.4671C63.3657 79.612 61.1825 71.9447 61.9456 63.4642C62.8028 53.9365 68.035 45.2475 76.0619 40.0903C76.0743 40.0819 76.0846 40.0703 76.0914 40.0566C76.0981 40.043 76.1012 40.0278 76.1002 40.0125C76.0986 39.9974 76.0934 39.9828 76.0846 39.9703C76.0759 39.9579 76.064 39.9479 76.0505 39.9416C74.1892 39.1247 72.3206 38.3063 70.4442 37.4864C70.4039 37.4682 70.3723 37.4431 70.3506 37.4114C70.3454 37.4042 70.3418 37.3961 70.3408 37.3875C70.3392 37.3788 70.3397 37.37 70.3418 37.3616C70.3444 37.3532 70.3485 37.3454 70.3542 37.3388C70.3599 37.3322 70.3671 37.3269 70.3749 37.3234L74.9936 35.3531C75.0469 35.331 75.0997 35.3315 75.1524 35.3546L82.9625 38.8129C82.9801 38.8208 82.9935 38.8352 83.0008 38.853C83.0075 38.8708 83.0075 38.8905 83.0003 38.9082L79.7251 47.056C79.6873 47.1484 79.6232 47.2148 79.5316 47.2552L74.9445 49.2456C74.9362 49.2497 74.9263 49.2511 74.917 49.2495C74.9077 49.248 74.8989 49.2436 74.8922 49.237C74.8855 49.2304 74.8808 49.2218 74.8793 49.2125C74.8777 49.2032 74.8788 49.1936 74.8824 49.185C75.5544 47.5136 76.2264 45.8522 76.8989 44.201C76.9212 44.1462 76.9305 44.0913 76.9279 44.0365C76.9274 44.0275 76.9248 44.0187 76.9196 44.0112C76.9144 44.0036 76.9077 43.9976 76.8994 43.9936C76.8917 43.9896 76.8824 43.9878 76.8736 43.9886C76.8643 43.9892 76.856 43.9923 76.8482 43.9975C71.6429 47.8109 68.1726 52.8377 66.4391 59.0777C65.2187 63.4667 65.0532 67.878 65.9425 72.312C66.7893 76.5391 68.5327 80.3983 71.1731 83.8892Z" fill="white"/>
<path d="M86.8107 71.5453L72.4337 85.3641L69.7172 87.9781C69.3504 88.332 68.8512 88.9264 68.3168 88.781C67.4854 88.5529 67.3701 87.6895 67.89 87.0661C68.0824 86.8359 68.2837 86.6362 68.4947 86.467L71.1734 83.8892L85.2075 70.4097L88.4522 67.2975C88.4713 67.2794 88.4847 67.2556 88.491 67.2292C88.4972 67.2033 88.4956 67.1759 88.4868 67.1506C88.2116 66.3834 88.2426 65.6405 88.5805 64.9219C88.7491 64.5608 89.2287 64.2116 89.2287 63.7253C89.2219 57.9877 89.223 52.25 89.2313 46.5131C89.2323 46.0782 89.462 45.6933 89.9198 45.3584C90.4682 44.9562 91.0238 44.911 91.5856 45.2227C92.3306 45.637 92.4211 46.2966 92.4211 47.1641C92.4201 52.6602 92.4201 58.1568 92.4211 63.6529C92.4211 63.7693 92.4309 63.8873 92.4501 64.0068C92.4578 64.0518 92.477 64.0921 92.508 64.1268C93.3564 65.0771 93.5747 66.0725 93.1619 67.1113C92.6161 68.4842 91.3559 69.0817 89.9312 68.64C89.8831 68.6255 89.8412 68.6358 89.8045 68.6705L86.8107 71.5453Z" fill="#C40E00"/>
<path d="M86.8106 71.5452C88.1407 72.3181 89.4547 73.0801 90.7526 73.8317C91.9989 74.5534 93.2074 75.333 94.3786 76.1711C98.9316 79.4297 102.299 83.6889 104.482 88.9496L103.397 89.1012L81.6855 92.1218C81.6632 91.9951 81.5442 91.9082 81.329 91.8606C81.1459 91.8202 81.0124 91.7804 80.9276 91.7411C77.6327 90.2196 74.8014 88.0939 72.4336 85.364L86.8106 71.5452Z" fill="#FFD5AF"/>
<path d="M54.5008 81.9724C56.4397 86.7246 59.1542 90.9625 62.644 94.6852C62.659 94.7012 62.6772 94.7137 62.6968 94.7219C62.7165 94.7302 62.7372 94.7338 62.7584 94.7333L63.0051 94.7214L62.4521 94.8166C59.0393 90.9998 56.3694 86.7458 54.4429 82.0557C54.4315 82.0273 54.4382 82.0035 54.463 81.9854C54.4744 81.9766 54.4874 81.9724 54.5008 81.9724Z" fill="#97A7B7"/>
<path d="M72.4333 85.364C74.8011 88.0939 77.6324 90.2196 80.9273 91.7411C81.0121 91.7804 81.1456 91.8203 81.3287 91.8606C81.5439 91.9077 81.6629 91.9951 81.6851 92.1219L75.4281 92.9853C73.3236 91.4524 71.4198 89.783 69.7168 87.9781L72.4333 85.364Z" fill="white"/>
<path fill-rule="evenodd" clip-rule="evenodd" d="M123.622 88.7112L125.554 89.1359L126.391 89.3392L126.827 89.4561L127.94 89.7562C133.684 91.4375 138.9 94.1281 143.587 97.8275C143.637 97.8663 143.674 97.9242 143.698 98.0024C143.629 98.0215 143.556 98.0231 143.479 98.0065C140.718 97.4043 137.926 97.1307 135.103 97.1855C135.087 97.2114 135.049 97.2186 134.988 97.2072C132.102 97.2734 129.27 97.7789 126.492 98.724C125.776 98.0872 125.175 97.5792 124.689 97.2C120.97 94.2978 116.737 92.5254 111.99 91.8824C110.122 91.6382 108.277 91.5973 106.457 91.7598C105.557 91.8394 104.27 91.9776 102.597 92.1742L88.3103 93.737L61.4522 96.6785C53.1548 97.5792 44.8572 98.4943 36.5597 99.424C36.552 99.425 36.361 99.455 35.9867 99.5135C35.5345 99.5838 35.0731 99.5647 34.6025 99.456L38.3726 98.6175C38.929 98.498 39.4857 98.3754 40.0429 98.2522C42.0425 97.8115 44.0491 97.3686 46.073 97.0841C48.3151 96.7696 50.5576 96.4571 52.8004 96.1462L59.5728 95.2093L62.4522 94.8167L63.0052 94.7215L75.4283 92.9853L81.6854 92.1219L103.397 89.1012L104.482 88.9497C107.48 88.5032 109.534 88.2285 110.642 88.1256C115.003 87.7231 119.33 87.9186 123.622 88.7112Z" fill="#FE9335"/>
<path fill-rule="evenodd" clip-rule="evenodd" d="M111.991 91.8823C110.122 91.6381 108.277 91.5973 106.457 91.7597C105.557 91.8394 104.27 91.9775 102.597 92.1741L88.3104 93.7369L61.4524 96.679C61.4524 96.6784 61.4524 96.6784 61.4524 96.6784C53.155 97.5791 44.8574 98.4943 36.56 99.4239C36.5523 99.4249 36.3613 99.4549 35.987 99.5134C35.5347 99.5837 35.0733 99.5646 34.6028 99.456C34.1178 99.5527 33.6174 99.6505 33.1016 99.7488C31.6337 100.027 30.5642 100.551 29.9927 101.957C29.8242 102.372 29.7333 102.953 29.7198 103.701C29.7035 104.6 29.7208 105.443 29.7718 106.228C32.6066 109.079 35.7339 111.365 39.1537 113.085C45.6566 116.233 52.3205 116.703 59.1456 114.496C60.5471 114.043 62.1177 113.421 63.8585 112.631L61.0137 112.264C60.9759 112.259 60.9418 112.241 60.9169 112.213C60.8916 112.185 60.8781 112.149 60.8776 112.111L60.8937 104.31C60.8937 104.25 60.9237 104.22 60.9832 104.219L61.4798 104.207L66.4332 104.209C66.4503 104.209 66.4673 104.212 66.4834 104.218C66.4989 104.225 66.5134 104.235 66.5253 104.246C66.5372 104.258 66.547 104.272 66.5532 104.288C66.5599 104.304 66.5636 104.32 66.5636 104.337L66.5677 111.362L75.1093 107.095C75.1238 104.205 75.1238 102.257 75.1093 101.253C75.0995 100.589 75.4124 100.43 76.0317 100.364C76.9308 100.268 77.8284 100.18 78.7254 100.1C79.2893 100.049 79.7932 100.158 79.7844 100.82C79.7663 102.227 79.7683 103.719 79.7906 105.296C83.2505 104.19 86.7626 103.746 90.3254 103.962C94.9731 104.32 99.2902 105.726 102.906 108.738C105.113 110.577 107.032 112.696 108.952 114.842C110.838 116.982 112.808 119.07 114.863 121.105C120.426 126.525 126.65 131.054 133.384 134.937C140.946 139.446 148.836 143.897 157.484 145.844C160.147 146.445 162.957 146.716 165.912 146.66C166.119 144.497 165.664 142.519 164.546 140.726C164.229 140.217 163.624 139.471 162.732 138.489C156.625 131.762 150.514 125.038 144.397 118.319C144.373 118.293 144.367 118.253 144.38 118.199C144.308 118.179 144.245 118.139 144.191 118.08C138.689 112.029 133.189 105.976 127.691 99.9221C127.501 99.7126 127.283 99.502 127.06 99.2873C126.868 99.1031 126.674 98.9159 126.492 98.7239C125.776 98.0871 125.175 97.5791 124.689 97.1999C120.97 94.2977 116.737 92.5253 111.991 91.8823ZM61.9604 104.099C61.9594 104.098 61.9583 104.096 61.9573 104.095C61.9568 104.093 61.9557 104.092 61.9557 104.09C61.9547 104.087 61.9552 104.083 61.9563 104.079C61.9573 104.076 61.9594 104.073 61.9625 104.071C61.9651 104.069 61.9687 104.067 61.9718 104.067L62.516 104.009C62.5584 104.005 62.5905 103.984 62.6127 103.946C62.7167 103.763 62.7172 103.586 62.6143 103.415C62.6014 103.393 62.5936 103.37 62.591 103.345C62.5879 103.32 62.5905 103.295 62.5983 103.271C62.6495 103.113 62.6438 102.957 62.5812 102.803C62.5724 102.782 62.5657 102.755 62.561 102.722C62.5553 102.68 62.5631 102.644 62.5853 102.614C62.6164 102.573 62.6246 102.528 62.6102 102.478C62.5791 102.369 62.5796 102.263 62.6112 102.162C62.666 101.986 62.6945 101.891 62.6966 101.878C62.7638 101.388 62.7783 100.898 62.74 100.407C62.7276 100.24 62.7571 100.004 62.8295 99.6996C62.8854 99.4637 62.9221 98.9769 62.9407 98.2392C62.9412 98.2045 62.933 98.1735 62.9154 98.1456C62.933 98.1735 62.9418 98.2045 62.9407 98.2392C62.9226 98.9769 62.8849 99.4637 62.8295 99.6996C62.7571 100.004 62.7271 100.24 62.74 100.407C62.7783 100.898 62.7638 101.388 62.6966 101.878C62.6945 101.891 62.666 101.986 62.6112 102.162C62.5796 102.263 62.5791 102.369 62.6102 102.478C62.6241 102.528 62.6164 102.573 62.5853 102.614C62.5631 102.644 62.5548 102.68 62.561 102.722C62.5657 102.755 62.5724 102.782 62.5812 102.803C62.6438 102.957 62.6495 103.113 62.5983 103.271C62.5905 103.295 62.5879 103.32 62.591 103.345C62.5936 103.37 62.6014 103.393 62.6143 103.415C62.7172 103.586 62.7167 103.763 62.6127 103.946C62.5905 103.984 62.5584 104.005 62.516 104.009L61.9718 104.067C61.9687 104.067 61.9651 104.069 61.9625 104.071C61.9594 104.073 61.9573 104.076 61.9563 104.079C61.9552 104.083 61.9547 104.087 61.9557 104.09C61.9563 104.093 61.9578 104.096 61.9604 104.099ZM62.724 97.6055C62.7105 97.3665 62.7219 97.1751 62.7586 97.0307C62.7685 96.9945 62.7912 96.9718 62.8279 96.963C62.7912 96.9718 62.7679 96.9945 62.7586 97.0307C62.7219 97.1751 62.7105 97.3665 62.724 97.6055ZM62.9588 96.7555C62.9588 96.7555 62.9588 96.756 62.9588 96.7566V96.7555ZM87.6208 103.688H87.6126H87.612H87.6208ZM87.7005 103.726C87.7015 103.736 87.6995 103.746 87.6938 103.754C87.6881 103.763 87.6793 103.769 87.67 103.772L87.5427 103.805C87.5329 103.807 87.5231 103.807 87.5132 103.805C87.5117 103.804 87.5096 103.804 87.5081 103.803C87.5065 103.802 87.5055 103.802 87.5039 103.801C87.5055 103.802 87.5075 103.803 87.5091 103.803C87.5106 103.804 87.5122 103.804 87.5132 103.805C87.5231 103.807 87.5329 103.807 87.5427 103.805L87.67 103.772C87.6798 103.769 87.6881 103.763 87.6938 103.754C87.699 103.746 87.7015 103.736 87.7005 103.726ZM108.691 98.1435C109.44 98.0949 110.167 98.115 110.875 98.2045C113.428 98.5853 115.933 99.697 118.034 101.042C123.963 104.842 129.235 110.411 133.448 115.754C133.706 116.082 133.503 116.602 133.169 116.763C133.021 116.836 132.819 116.837 132.564 116.768C122.346 113.97 114.375 111.753 108.652 110.115C108.482 110.066 108.37 109.928 108.315 109.702C107.896 107.204 107.945 104.505 108.002 101.974C108.029 100.812 108.136 99.6567 108.323 98.5087C108.359 98.2868 108.448 98.1595 108.691 98.1435ZM162.422 141.387C154.821 140.528 148.078 135.846 143.645 129.765C143.629 129.743 143.618 129.718 143.612 129.691C143.605 129.664 143.604 129.636 143.609 129.609C143.646 129.397 143.883 129.36 144.062 129.416C147.601 130.518 151.22 131.213 154.918 131.501C155.223 131.525 155.537 131.793 155.762 132.054C158.2 134.884 160.641 137.71 163.087 140.533C163.358 140.846 163.285 141.297 162.845 141.374C162.706 141.398 162.565 141.402 162.422 141.387ZM38.0303 109.386C38.0149 109.368 38.0064 109.346 38.0062 109.322V104.294C38.0062 104.281 38.0087 104.269 38.0136 104.257C38.0185 104.245 38.0256 104.235 38.0346 104.226C38.0435 104.216 38.0542 104.209 38.0659 104.205C38.0776 104.2 38.0902 104.197 38.1029 104.197L39.6314 104.209C39.6566 104.209 39.6806 104.22 39.6984 104.237C39.7162 104.255 39.7264 104.279 39.7267 104.304L39.7368 109.532C39.737 109.546 39.7341 109.559 39.7284 109.572C39.7228 109.585 39.7145 109.596 39.7041 109.605C39.6937 109.615 39.6814 109.621 39.6681 109.626C39.6549 109.629 39.6409 109.63 39.6271 109.629L38.09 109.418C38.0668 109.415 38.0457 109.403 38.0303 109.386ZM106.691 111.877C106.686 111.878 106.681 111.878 106.676 111.878C106.667 111.877 106.658 111.877 106.649 111.876C106.665 111.878 106.681 111.879 106.696 111.877C106.695 111.877 106.693 111.877 106.691 111.877ZM40.9347 109.757C40.9182 109.739 40.909 109.715 40.9088 109.691L40.9391 104.311C40.9391 104.284 40.9498 104.259 40.9687 104.24C40.9877 104.221 41.0134 104.21 41.0402 104.21L44.1073 104.214C44.1339 104.214 44.1594 104.225 44.1783 104.244C44.1972 104.262 44.208 104.288 44.2084 104.314L44.2575 110.07C44.2575 110.084 44.2546 110.099 44.2488 110.112C44.243 110.125 44.2346 110.137 44.2239 110.146C44.2132 110.156 44.2007 110.163 44.1871 110.167C44.1735 110.171 44.1591 110.173 44.1449 110.171L40.9983 109.79C40.9738 109.787 40.9512 109.776 40.9347 109.757ZM45.4454 110.315C45.4332 110.302 45.4265 110.284 45.4266 110.265L45.467 104.291C45.4673 104.272 45.4753 104.253 45.489 104.239C45.5027 104.226 45.5212 104.218 45.5406 104.217L48.6583 104.207C48.6782 104.207 48.6973 104.215 48.7113 104.229C48.7254 104.243 48.7333 104.262 48.7333 104.282L48.7636 110.656C48.7638 110.667 48.7615 110.678 48.7571 110.688C48.7528 110.697 48.7463 110.706 48.7383 110.714C48.7302 110.72 48.7207 110.726 48.7103 110.729C48.7 110.732 48.6892 110.733 48.6785 110.731L45.493 110.34C45.4746 110.338 45.4577 110.329 45.4454 110.315ZM49.9593 110.874C49.9486 110.863 49.9428 110.847 49.9429 110.831L49.9819 104.287C49.9819 104.27 49.9887 104.253 50.0009 104.241C50.0131 104.229 50.0296 104.222 50.0468 104.222L53.7489 104.207C53.7665 104.207 53.783 104.214 53.7949 104.226C53.8073 104.239 53.8141 104.255 53.8141 104.272L53.8585 111.304C53.8591 111.314 53.857 111.323 53.8534 111.331C53.8492 111.34 53.8435 111.347 53.8368 111.353C53.8296 111.36 53.8218 111.364 53.8125 111.367C53.8037 111.37 53.7944 111.371 53.7851 111.369L50.0006 110.896C49.9847 110.894 49.97 110.886 49.9593 110.874ZM55.0608 111.497C55.0479 111.482 55.0406 111.463 55.0406 111.443L55.0624 104.294C55.0624 104.272 55.0712 104.252 55.0862 104.237C55.1012 104.222 55.1219 104.213 55.1436 104.213L59.5584 104.21C59.5802 104.21 59.6009 104.218 59.6159 104.234C59.6309 104.249 59.6397 104.27 59.6397 104.291L59.6955 111.996C59.6961 112.007 59.6935 112.019 59.6888 112.029C59.6842 112.04 59.6774 112.049 59.6686 112.057C59.6598 112.064 59.65 112.07 59.6386 112.074C59.6278 112.077 59.6164 112.078 59.605 112.077L55.1115 111.524C55.0918 111.521 55.0737 111.512 55.0608 111.497Z" fill="#C40E00"/>
<path fill-rule="evenodd" clip-rule="evenodd" d="M143.479 98.0066C140.718 97.4044 137.926 97.1307 135.103 97.1856C135.088 97.2114 135.049 97.2187 134.988 97.2073C132.102 97.2735 129.27 97.7795 126.492 98.7241C126.674 98.916 126.868 99.1033 127.06 99.2875C127.282 99.5022 127.501 99.7127 127.691 99.9222C133.188 105.977 138.688 112.029 144.19 118.08C144.245 118.139 144.308 118.179 144.379 118.199C148.214 118.571 152.049 118.667 155.883 118.487L155.961 118.439C155.99 118.454 156.013 118.453 156.029 118.437C157.871 118.365 159.652 118.032 161.372 117.437C162.08 117.192 162.704 116.817 163.244 116.312C157.322 109.725 150.913 103.674 144.017 98.1582C143.976 98.1256 143.87 98.0738 143.698 98.0024C143.629 98.0216 143.556 98.0231 143.479 98.0066ZM156.029 118.437C156.029 118.436 156.03 118.436 156.03 118.436C156.03 118.436 156.029 118.436 156.029 118.437Z" fill="#C40E00"/>
<path d="M110.875 98.2047C113.428 98.5855 115.932 99.6972 118.034 101.042C123.963 104.843 129.234 110.411 133.448 115.755C133.706 116.082 133.502 116.602 133.169 116.763C133.021 116.836 132.819 116.837 132.564 116.768C122.346 113.97 114.375 111.753 108.652 110.115C108.481 110.066 108.369 109.928 108.315 109.702C107.895 107.204 107.944 104.505 108.002 101.974C108.029 100.812 108.136 99.6569 108.323 98.5089C108.359 98.287 108.448 98.1597 108.691 98.1437C109.439 98.095 110.167 98.1152 110.875 98.2047Z" fill="#FFD5AF"/>
<path d="M79.7899 105.296L79.7842 127.874C79.7842 127.888 79.7888 127.902 79.7976 127.913C79.8059 127.924 79.8183 127.932 79.8318 127.936L112.082 135.946C114.536 136.561 116.99 137.174 119.443 137.786C122.779 138.619 125.987 139.796 129.068 141.318C129.709 141.635 130.896 142.272 132.629 143.229C138.994 146.711 145.362 150.187 151.732 153.656C153.863 154.817 156.056 155.199 158.311 154.799C158.71 154.728 159.274 154.58 160.002 154.356C162.677 153.917 165.277 153.413 167.8 152.846C167.856 152.833 167.913 152.845 167.97 152.884C168.462 153.917 168.995 155.748 168.45 156.83C167.869 157.987 166.391 158.701 165.197 159.021C161.977 159.887 158.691 159.467 155.485 158.763C152.396 158.085 149.322 157.348 146.263 156.551C142.468 155.58 138.683 154.57 134.909 153.524C134.006 153.273 133.085 152.994 132.148 152.685C102.221 142.826 72.3005 132.956 42.3864 123.075L32.1991 119.718C32.1777 119.711 32.1592 119.698 32.146 119.68C32.1328 119.661 32.1256 119.64 32.1255 119.617L32.1284 116.004C32.4844 116.159 32.8544 116.283 33.2384 116.375C35.2619 116.866 37.2836 117.363 39.3034 117.866L75.0801 126.753C75.0858 126.754 75.0915 126.754 75.0967 126.753C75.1024 126.752 75.1075 126.75 75.1122 126.746C75.1163 126.743 75.1199 126.738 75.1225 126.733C75.1251 126.728 75.1262 126.723 75.1262 126.717L75.1091 107.096C75.1236 104.205 75.1236 102.258 75.1091 101.253C75.0987 100.589 75.4122 100.43 76.0315 100.364C76.9301 100.269 77.8276 100.181 78.7247 100.1C79.2891 100.05 79.793 100.159 79.7842 100.82C79.7661 102.228 79.7676 103.72 79.7899 105.296Z" fill="#FFD5AF"/>
<path d="M38.0059 109.323V104.294C38.0059 104.281 38.0084 104.269 38.0132 104.257C38.0181 104.245 38.0252 104.235 38.0342 104.226C38.0432 104.216 38.0538 104.21 38.0656 104.205C38.0773 104.2 38.0899 104.197 38.1026 104.197L39.6311 104.209C39.6562 104.209 39.6803 104.22 39.698 104.237C39.7158 104.255 39.726 104.279 39.7264 104.304L39.7365 109.532C39.7366 109.546 39.7337 109.559 39.7281 109.572C39.7225 109.585 39.7141 109.596 39.7037 109.605C39.6933 109.615 39.6811 109.621 39.6678 109.626C39.6545 109.629 39.6405 109.631 39.6267 109.629L38.0896 109.418C38.0665 109.415 38.0453 109.404 38.0299 109.386C38.0146 109.368 38.006 109.346 38.0059 109.323Z" fill="#FFD5AF"/>
<path d="M40.9087 109.691L40.939 104.312C40.939 104.285 40.9496 104.259 40.9686 104.24C40.9875 104.221 41.0132 104.21 41.04 104.21L44.1072 104.215C44.1337 104.215 44.1592 104.225 44.1781 104.244C44.197 104.262 44.2078 104.288 44.2082 104.314L44.2573 110.07C44.2574 110.085 44.2545 110.099 44.2487 110.112C44.2429 110.125 44.2344 110.137 44.2237 110.147C44.2131 110.156 44.2005 110.163 44.1869 110.167C44.1733 110.172 44.1589 110.173 44.1447 110.171L40.9981 109.791C40.9737 109.788 40.951 109.776 40.9346 109.757C40.9181 109.739 40.9088 109.716 40.9087 109.691Z" fill="#FFD5AF"/>
<path d="M45.4263 110.265L45.4667 104.291C45.467 104.272 45.4749 104.253 45.4887 104.24C45.5024 104.226 45.5209 104.218 45.5403 104.218L48.658 104.208C48.6779 104.208 48.697 104.216 48.711 104.229C48.7251 104.243 48.733 104.263 48.733 104.283L48.7633 110.657C48.7634 110.667 48.7612 110.678 48.7568 110.688C48.7524 110.698 48.746 110.706 48.7379 110.714C48.7298 110.72 48.7203 110.726 48.71 110.729C48.6997 110.732 48.6888 110.733 48.6782 110.732L45.4926 110.341C45.4743 110.338 45.4574 110.329 45.4451 110.316C45.4328 110.302 45.4261 110.284 45.4263 110.265Z" fill="#FFD5AF"/>
<path d="M49.9424 110.831L49.9813 104.287C49.9813 104.27 49.9882 104.253 50.0004 104.241C50.0125 104.229 50.029 104.222 50.0463 104.222L53.7486 104.208C53.7656 104.208 53.7822 104.214 53.7946 104.226C53.8065 104.239 53.8132 104.255 53.8132 104.272L53.8582 111.304C53.8582 111.314 53.8562 111.323 53.8525 111.332C53.8489 111.34 53.8432 111.348 53.836 111.354C53.8293 111.36 53.821 111.364 53.8122 111.368C53.8034 111.37 53.7941 111.371 53.7848 111.37L50.0001 110.896C49.9841 110.894 49.9694 110.887 49.9588 110.875C49.9481 110.863 49.9423 110.847 49.9424 110.831Z" fill="#FFD5AF"/>
<path d="M55.0405 111.443L55.0623 104.294C55.0623 104.273 55.0705 104.252 55.0861 104.237C55.1011 104.222 55.1218 104.213 55.143 104.213L59.5583 104.21C59.5796 104.21 59.6002 104.219 59.6152 104.234C59.6308 104.249 59.639 104.27 59.639 104.291L59.6954 111.996C59.6954 112.007 59.6934 112.019 59.6887 112.03C59.6835 112.04 59.6768 112.049 59.6685 112.057C59.6597 112.065 59.6494 112.07 59.6385 112.074C59.6277 112.077 59.6158 112.078 59.6044 112.077L55.1114 111.524C55.0917 111.522 55.0736 111.512 55.0607 111.497C55.0478 111.482 55.0405 111.463 55.0405 111.443Z" fill="#FFD5AF"/>
<path d="M61.4796 104.208L66.433 104.209C66.4501 104.209 66.4672 104.212 66.4827 104.219C66.4987 104.225 66.5127 104.235 66.5251 104.247C66.537 104.258 66.5468 104.273 66.553 104.288C66.5598 104.304 66.5629 104.321 66.5629 104.338L66.5675 111.362L66.5385 112.846C66.5375 112.906 66.507 112.932 66.4475 112.926L63.8583 112.631L61.0135 112.265C60.9757 112.259 60.9416 112.241 60.9162 112.213C60.8914 112.185 60.8774 112.149 60.8774 112.111L60.8935 104.31C60.8935 104.25 60.9235 104.22 60.983 104.219L61.4796 104.208Z" fill="#FFD5AF"/>
<path fill-rule="evenodd" clip-rule="evenodd" d="M163.758 71.0428C163.601 70.7976 163.449 70.5529 163.302 70.3082C159.09 63.2747 153.972 57.0942 147.962 51.5373C144.985 48.7843 141.792 46.3075 138.381 44.1068C136.744 43.0517 135.076 42.089 133.163 41.6373C130.845 41.0896 133.491 45.2208 133.859 45.7953L133.881 45.8288C134.823 47.3049 135.803 48.7545 136.822 50.1777C138.108 51.9742 139.409 53.76 140.709 55.5458H140.709C143.571 59.477 146.432 63.4071 149.144 67.4464C151.113 70.3776 153.234 73.6616 154.311 76.9636C154.458 77.4142 154.546 77.9735 154.577 78.6419C154.424 81.2456 151.157 80.2776 149.6 79.7019C148.226 79.1928 146.86 78.6615 145.502 78.1085C144.377 77.6491 142.676 77.0159 141.633 77.2047C138.815 77.7164 143.757 83.6656 144.828 84.9548C144.884 85.022 144.929 85.0769 144.963 85.1172C146.75 87.2998 149.862 90.8642 154.297 95.8114C155.28 96.9081 157.517 99.5139 161.007 103.629L167.357 111.309L174.403 120.171C174.447 120.227 174.472 120.219 174.477 120.148C174.711 116.233 174.664 111.61 174.425 107.606C174.426 107.607 174.427 107.609 174.428 107.61C174.17 103.442 173.626 99.3168 172.795 95.2341C171.088 86.6661 168.076 78.6025 163.758 71.0428ZM172.78 95.2729C172.779 95.2755 172.778 95.2775 172.777 95.2796C172.776 95.2801 172.775 95.2812 172.774 95.2822C172.772 95.2837 172.771 95.2853 172.768 95.2863C172.774 95.2832 172.778 95.2786 172.78 95.2729ZM162.385 71.6952L162.275 71.5033C162.266 71.4893 162.258 71.48 162.25 71.4758C162.258 71.48 162.267 71.4893 162.275 71.5033L162.385 71.6952ZM160.404 73.2011C160.395 73.1996 160.386 73.1975 160.376 73.1949L160.371 73.1939L160.376 73.1949C160.386 73.1975 160.395 73.1996 160.404 73.2011Z" fill="#FD9035"/>
<path fill-rule="evenodd" clip-rule="evenodd" d="M95.9316 168.149C95.646 168.092 95.3625 168.039 95.0816 167.99C87.001 166.607 79.3875 164.07 72.0332 160.477C68.3901 158.698 64.9256 156.616 61.6406 154.232C60.0648 153.087 58.5635 151.88 57.4508 150.26C56.1021 148.298 60.9106 149.27 61.579 149.406L61.6178 149.413C63.3348 149.758 65.041 150.147 66.7363 150.583C68.8764 151.132 71.012 151.699 73.147 152.265H73.1475C77.8469 153.512 82.5458 154.758 87.2922 155.825C90.7376 156.601 94.5664 157.391 98.0345 157.201C98.5074 157.174 99.0609 157.054 99.6951 156.841C102.068 155.757 99.9838 153.062 98.8835 151.818C97.9119 150.721 96.9228 149.639 95.9156 148.574C95.0806 147.69 93.8752 146.334 93.674 145.293C93.1318 142.482 100.465 144.937 102.055 145.469C102.138 145.497 102.205 145.519 102.255 145.535C104.936 146.413 109.385 148.025 115.601 150.37C116.98 150.89 120.217 152.034 125.316 153.799L134.774 156.942L145.584 160.305C145.651 160.326 145.653 160.352 145.589 160.382C142.024 162.016 137.697 163.645 133.877 164.87C133.879 164.871 133.88 164.871 133.881 164.872C129.903 166.139 125.86 167.124 121.753 167.825C113.148 169.332 104.54 169.441 95.9316 168.149ZM121.784 167.798C121.786 167.796 121.788 167.794 121.789 167.792C121.789 167.79 121.79 167.789 121.79 167.788C121.791 167.786 121.792 167.784 121.792 167.782C121.791 167.788 121.789 167.793 121.784 167.798ZM96.7303 164.242C96.7252 164.234 96.72 164.226 96.7148 164.218L96.7117 164.214L96.7148 164.218C96.72 164.226 96.7252 164.234 96.7303 164.242Z" fill="#FD9035"/>
<path fill-rule="evenodd" clip-rule="evenodd" d="M172.563 128.044C169.902 123.844 166.698 120.04 163.244 116.312C162.703 116.817 162.079 117.192 161.372 117.437C159.63 118.04 157.827 118.374 155.961 118.439L155.883 118.487C152.049 118.667 148.214 118.571 144.38 118.199C144.367 118.254 144.373 118.293 144.397 118.319C150.514 125.039 156.625 131.762 162.732 138.489C163.624 139.471 164.228 140.217 164.546 140.726C165.664 142.519 166.119 144.497 165.912 146.66C165.841 147.451 165.679 148.181 165.422 148.851C164.453 151.386 162.647 153.221 160.002 154.356C162.677 153.916 165.277 153.413 167.8 152.846C167.856 152.833 167.913 152.845 167.97 152.883C167.959 152.851 167.961 152.823 167.975 152.8C167.987 152.781 168.01 152.769 168.044 152.762C169.262 152.513 170.465 152.205 171.653 151.837C173.443 151.284 174.8 150.268 176.184 149.073C177.55 147.896 178.481 146.415 178.978 144.629C179.574 142.2 179.325 139.802 178.231 137.437C176.679 134.081 174.899 131.431 172.563 128.044Z" fill="#FF8E30"/>
<path d="M162.421 141.388C154.821 140.529 148.078 135.846 143.645 129.765C143.629 129.743 143.618 129.718 143.611 129.691C143.605 129.664 143.604 129.636 143.609 129.61C143.646 129.397 143.883 129.36 144.062 129.416C147.601 130.518 151.22 131.213 154.918 131.502C155.222 131.525 155.537 131.793 155.762 132.054C158.2 134.885 160.641 137.711 163.087 140.533C163.358 140.846 163.285 141.298 162.845 141.375C162.706 141.398 162.565 141.403 162.421 141.388Z" fill="#FFD5AF"/>
<path fill-rule="evenodd" clip-rule="evenodd" d="M90.3254 103.962C94.9731 104.32 99.2902 105.726 102.906 108.738C105.113 110.577 107.032 112.696 108.952 114.842C110.838 116.982 112.808 119.07 114.863 121.105C120.426 126.525 126.65 131.054 133.384 134.937C140.946 139.446 148.836 143.898 157.484 145.844C160.147 146.445 162.957 146.716 165.912 146.66C165.842 147.451 165.679 148.181 165.423 148.851C164.454 151.386 162.647 153.221 160.003 154.356C159.274 154.58 158.71 154.728 158.311 154.799C156.056 155.199 153.863 154.817 151.732 153.656C145.362 150.187 138.994 146.711 132.629 143.229C130.896 142.272 129.709 141.635 129.069 141.318C125.987 139.796 122.779 138.618 119.444 137.786C116.99 137.174 114.536 136.561 112.083 135.946L79.8319 127.935C79.8185 127.932 79.8066 127.924 79.7978 127.913C79.789 127.902 79.7844 127.888 79.7844 127.874L79.79 105.296C83.2504 104.19 86.7621 103.746 90.3254 103.962ZM133.102 141.257C133.104 141.262 133.105 141.266 133.105 141.272C133.105 141.276 133.105 141.28 133.104 141.285C133.106 141.275 133.105 141.266 133.102 141.257ZM29.7717 106.228C32.6065 109.079 35.7338 111.365 39.1536 113.086C45.6565 116.233 52.3205 116.703 59.1456 114.496C60.5465 114.043 62.1176 113.421 63.8585 112.631L66.4477 112.925C66.5072 112.932 66.5377 112.906 66.5387 112.846L66.5677 111.362L75.1093 107.095L75.1269 126.717C75.1269 126.722 75.1253 126.728 75.1227 126.733C75.1201 126.738 75.1165 126.743 75.1124 126.746C75.1077 126.75 75.1025 126.752 75.0974 126.753C75.0917 126.754 75.086 126.754 75.0803 126.753L39.3037 117.866C37.284 117.363 35.2623 116.866 33.2387 116.375C32.8548 116.283 32.4848 116.159 32.1287 116.004C30.5295 115.171 29.7236 113.826 29.7111 111.97C29.6976 109.948 29.7178 108.034 29.7717 106.228ZM41.2047 115.801C41.1835 115.843 41.1541 115.879 41.1166 115.909C40.9049 116.079 40.7731 116.302 40.7211 116.577C40.7731 116.302 40.9049 116.079 41.1166 115.909C41.1541 115.879 41.1835 115.843 41.2047 115.801ZM40.6088 116.946C40.6087 116.95 40.6083 116.954 40.6077 116.958C40.6053 116.976 40.5987 116.993 40.5883 117.008L40.5585 117.052L40.6088 116.946ZM40.5585 117.052L40.4021 117.384C40.3971 117.366 40.3949 117.348 40.3957 117.331C40.397 117.303 40.4063 117.275 40.4238 117.25L40.5585 117.052Z" fill="url(#paint0_linear_540_15270)"/>
</g>
<defs>
<linearGradient id="paint0_linear_540_15270" x1="29.707" y1="112.182" x2="165.912" y2="148.558" gradientUnits="userSpaceOnUse">
<stop stop-color="#E9424B"/>
<stop offset="1" stop-color="#FE9434"/>
</linearGradient>
<clipPath id="clip0_540_15270">
<rect width="209" height="209" fill="white"/>
</clipPath>
</defs>
</svg>
