<?xml version="1.0" encoding="UTF-8"?>
<svg id="Layer_1" data-name="Layer 1" xmlns="http://www.w3.org/2000/svg" xmlns:xlink="http://www.w3.org/1999/xlink" viewBox="0 0 128 128">
  <defs>
    <style>
      .cls-1 {
        fill: #171622;
      }

      .cls-1, .cls-2, .cls-3, .cls-4, .cls-5, .cls-6 {
        stroke-width: 0px;
      }

      .cls-7 {
        fill: url(#linear-gradient);
        stroke: url(#linear-gradient-2);
        stroke-miterlimit: 10;
        stroke-width: .25px;
      }

      .cls-2 {
        fill: url(#linear-gradient-6);
      }

      .cls-3 {
        fill: url(#linear-gradient-5);
      }

      .cls-4 {
        fill: url(#linear-gradient-7);
      }

      .cls-5 {
        fill: url(#linear-gradient-3);
      }

      .cls-6 {
        fill: url(#linear-gradient-4);
      }
    </style>
    <linearGradient id="linear-gradient" x1="42.13" y1="62.15" x2="86.53" y2="14.11" gradientUnits="userSpaceOnUse">
      <stop offset=".23" stop-color="#8f693a"/>
      <stop offset=".52" stop-color="#71775b"/>
      <stop offset=".96" stop-color="#6c8d7c"/>
    </linearGradient>
    <linearGradient id="linear-gradient-2" x1="35.43" y1="52.05" x2="78.43" y2="52.05" xlink:href="#linear-gradient"/>
    <linearGradient id="linear-gradient-3" x1="40.86" y1="67.25" x2="68.74" y2="112.89" gradientUnits="userSpaceOnUse">
      <stop offset=".13" stop-color="#e9414c"/>
      <stop offset=".19" stop-color="#e94749"/>
      <stop offset=".27" stop-color="#e95a42"/>
      <stop offset=".38" stop-color="#e97837"/>
      <stop offset=".39" stop-color="#e97e35"/>
      <stop offset=".99" stop-color="#e78a34"/>
    </linearGradient>
    <linearGradient id="linear-gradient-4" x1="48.61" y1="42.81" x2="103.49" y2="42.81" gradientUnits="userSpaceOnUse">
      <stop offset=".39" stop-color="#741d8a"/>
      <stop offset=".78" stop-color="#b93189"/>
      <stop offset=".96" stop-color="#e63646"/>
    </linearGradient>
    <linearGradient id="linear-gradient-5" x1="48.54" y1="82.65" x2="52.73" y2="82.65" gradientUnits="userSpaceOnUse">
      <stop offset="0" stop-color="#8f693a"/>
      <stop offset=".35" stop-color="#836e45"/>
      <stop offset=".68" stop-color="#71775b"/>
      <stop offset="1" stop-color="#6c8d7c"/>
    </linearGradient>
    <linearGradient id="linear-gradient-6" x1="26.21" y1="284.37" x2="72.15" y2="271.63" gradientTransform="translate(-15.56 -186.81) rotate(-4.59)" gradientUnits="userSpaceOnUse">
      <stop offset="0" stop-color="#13d2e0"/>
      <stop offset=".33" stop-color="#1ee4e7"/>
      <stop offset=".61" stop-color="#13d2e0"/>
      <stop offset="1" stop-color="#11c1d7"/>
    </linearGradient>
    <linearGradient id="linear-gradient-7" x1="48" y1="-39" x2="96.62" y2="-39" gradientTransform="translate(6.92 97.79) rotate(8.09)" gradientUnits="userSpaceOnUse">
      <stop offset="0" stop-color="#e9414c"/>
      <stop offset=".53" stop-color="#e85d3d"/>
      <stop offset=".81" stop-color="#e97e35"/>
      <stop offset=".99" stop-color="#e78a34"/>
    </linearGradient>
  </defs>
  <path class="cls-7" d="m52.34,84.2s-14.24-13.73-3.33-38.98c0,0,6.77-19.69,28.88-24.24,0,0-13.84-3.74-30.7,2.63,0,0-7.68,7.57-8.79,12.52,0,0-5.76,10.7-.91,24.84,4.81,14.04,11.71,16.82,13.69,23.09.03.08.1.14.19.14h.97Z"/>
  <path class="cls-5" d="m77.28,78.49c0-.15-.05-.3-.16-.42-.32-.35-.81-.26-1.04.16-.3.54-.59,1.07-.89,1.59-.39.69-.93,1.29-1.59,1.74-4.66,3.23-12.96,6.92-24.22,3.78,0,0-14.28-2.97-21.69-20.97,0,0-3.79-7.23-1.93-19.16,0,0-9.76,12.31-5.93,30.88,0,0,1.43,7.38,2.42,9.27.99,1.89,17.53,14.92,31.38,9.16,0,0,10.91-2.71,21.89-14.1.73-.64,1.26-1.16,1.58-1.49.11-.11.17-.26.18-.4"/>
  <path class="cls-6" d="m80.16,22.48c-7.68.3-18.18,9.8-18.18,9.8-10.5,10.6-11.51,24.24-11.51,24.24l-.46,2.47c-.47.78-1.61,2.8-1.36,4,0,0,.71.77,1.13-1.04l.37-2.84c.04-.1.08-.2.13-.3.02-.03.04-.06.06-.1h-.01c1.03-2.29,3-5.5,6.81-9.67,8.58-9.39,18.28-11.31,18.28-11.31,16.16-4.95,28.08,3.53,28.08,3.53-8.38-13.23-23.33-18.78-23.33-18.78Z"/>
  <path class="cls-3" d="m48.54,79.66s1.47,4.88,3.52,5.98c0,0,1.58-.09-.12-2.32l-3.41-3.66Z"/>
  <path class="cls-2" d="m89.14,79.32s-2.9-13.81-11.59-23.23c-.19-.72-.93-3.2-2.05-3.89,0,0-1.05,0-.01,1.54l1.9,2.29c.6,1.95,5.91,20.38-2.68,32.76,0,0-7.09,16.48-31.32,16.29,0,0,18.56,7.83,38.92-1.71,0,0,8.23-10.39,6.83-24.05Z"/>
  <path class="cls-4" d="m63.71,44.19c2.98.68,18.04,4.82,28.18,20.42.01.02.03.04.04.06.48.56,8.68,10.46,5.68,29.45,0,0,10.39-9.58,11.44-30.12,0-.12-.02-.24-.08-.34-.78-1.38-6.59-11.12-17.24-14.64-.03,0-.05-.02-.08-.03-.61-.32-8.88-4.46-28.05-3.55-.46.02-.79-.44-.61-.87h0c.12-.28.42-.44.72-.37Z"/>
  <path class="cls-1" d="m57.68,55.29c-.93-.08-1.56.47-1.57,1.5-.03,5.48-.02,10.97-.02,16.45,0,.97.57,1.5,1.49,1.47.91-.03,1.26-.63,1.24-1.55-.04-2.31-.04-4.61-.03-6.92,0-.26-.19-.6-.09-.65,2.59,2.48,5.27,4.74,7.56,7.34,1.6,1.81,3.38,1.66,5.49,1.55-.29-.31-.46-.5-.64-.69-2.67-2.79-5.33-5.58-8.01-8.35-.47-.48-.54-.78.03-1.32,2.51-2.35,4.95-4.78,7.43-7.16.39-.38.83-.71,1.25-1.05l-.14-.38c-1,0-2.01,0-3.01,0-.41,0-.71.18-1,.45-2.96,2.8-5.97,5.55-8.86,8.65,0-2.68-.01-5.2,0-7.73,0-.84-.13-1.53-1.14-1.62Z"/>
</svg>