<svg viewBox="0 0 210 60" xmlns="http://www.w3.org/2000/svg">
    <!-- Cloud icon -->
    <path
        d="M12 27c0-2.49 2.01-4.5 4.5-4.5 0.83 0 1.58 0.23 2.25 0.6C19.1 19.8 20.1 18.75 21.25 18.75c2.49 0 4.5 2.01 4.5 4.5 0 0.33-0.03 0.66-0.09 0.98C26.33 24.75 27.68 25.5 29.25 25.5c2.49 0 4.5-2.01 4.5-4.5s-2.01-4.5-4.5-4.5c-0.83 0-1.58 0.23-2.25 0.6C28.65 15.3 27.65 14.25 26.5 14.25c-2.49 0-4.5 2.01-4.5 4.5 0 0.33 0.03 0.66 0.09 0.98C20.18 18.75 18.83 18 17.25 18c-3.32 0-6 2.68-6 6s2.68 6 6 6c0.83 0 1.58-0.23 2.25-0.6z"
        fill="#6B7280"
    />
    <text x="42" y="42" font-size="32" fill="#6B7280" font-family="sans-serif" font-weight="400">
        sendcloud
    </text>
</svg>
